<svg width="400" height="400" viewBox="0 0 400 400" fill="none" xmlns="http://www.w3.org/2000/svg">
<path d="M278.599 162.819C253.595 155.632 240.034 169.709 226.913 183.315C220.106 190.373 213.61 197.119 205.771 200.883C213.618 208.661 224.751 214.96 237.105 218.511C269.811 227.913 294.148 219.778 300.606 197.286C304.863 182.465 295.4 167.645 278.591 162.819H278.599Z" fill="#FFFBF6"/>
<path d="M136.405 176.039C116.546 176.039 102.469 184.796 97.7791 201.104C93.5219 215.924 102.985 230.745 119.794 235.571C144.798 242.757 158.359 228.681 171.479 215.074C178.286 208.017 184.782 201.271 192.621 197.507C184.774 189.728 173.642 183.43 161.288 179.878C152.295 177.298 143.94 176.039 136.413 176.039H136.405Z" fill="#FFFBF6"/>
<path d="M179.88 237.114C170.478 269.821 178.613 294.158 201.106 300.615C208.246 302.664 215.653 301.602 221.967 297.61C228.387 293.55 233.22 286.804 235.573 278.601C242.759 253.597 228.682 240.036 215.076 226.915C208.019 220.108 201.273 213.612 197.509 205.773C189.73 213.62 183.432 224.752 179.88 237.107V237.114Z" fill="#FFFBF6"/>
<path d="M199.2 0C89.1809 0 0 89.1885 0 199.2C0 309.212 89.1885 398.4 199.2 398.4C309.212 398.4 398.4 309.212 398.4 199.2C398.4 89.1885 309.212 0 199.2 0ZM307.906 199.39C304.195 212.298 295.552 221.662 282.91 226.458C276.755 228.795 269.743 229.964 262.087 229.964C253.747 229.964 244.64 228.575 235.01 225.813C228.818 224.037 222.899 221.601 217.458 218.672C218.407 219.598 219.37 220.524 220.342 221.465C234.859 235.458 251.311 251.318 242.865 280.709C239.996 290.695 234.009 298.982 226.018 304.036C220.569 307.481 214.483 309.242 208.284 309.242C205.195 309.242 202.076 308.802 199.003 307.921C186.095 304.211 176.73 295.567 171.934 282.925C167.047 270.054 167.275 253.496 172.579 235.026C174.355 228.841 176.783 222.922 179.72 217.481C178.794 218.429 177.869 219.386 176.935 220.357C165.583 232.134 153.001 245.179 132.967 245.179C128.3 245.179 123.238 244.473 117.691 242.88C96.7239 236.855 85.0224 217.997 90.4786 199.018C94.1894 186.11 102.833 176.745 115.475 171.949C128.346 167.07 144.904 167.29 163.374 172.594C169.567 174.37 175.478 176.806 180.927 179.735C179.978 178.81 179.014 177.884 178.051 176.95C163.534 162.957 147.082 147.097 155.528 117.706C161.553 96.7391 180.403 85.0451 199.39 90.4937C212.298 94.2045 221.662 102.848 226.458 115.49C231.345 128.361 231.118 144.919 225.813 163.39C224.037 169.574 221.609 175.493 218.672 180.934C219.598 179.986 220.524 179.03 221.457 178.058C235.451 163.541 251.311 147.089 280.701 155.535C301.669 161.561 313.37 180.418 307.914 199.397L307.906 199.39Z" fill="#FFFBF6"/>
<path d="M218.513 161.288C223.362 144.403 223.658 129.5 219.363 118.177C215.447 107.857 207.813 100.807 197.296 97.7869C194.905 97.1039 192.515 96.77 190.17 96.77C177.96 96.77 166.881 105.702 162.828 119.801C155.642 144.806 169.719 158.366 183.325 171.487C190.382 178.294 197.129 184.79 200.893 192.629C208.671 184.782 214.969 173.65 218.521 161.296L218.513 161.288Z" fill="#FFFBF6"/>
</svg>
