<svg width="1440" height="1080" viewBox="0 0 1440 1080" fill="none" xmlns="http://www.w3.org/2000/svg">
<g clip-path="url(#clip0_106_26308)">
<rect width="1440" height="1080" fill="white"/>
<rect x="316" width="1534" height="896" fill="#93A9F6"/>
<path d="M420 473.684V896H702V473.684C702 473.048 702 472.422 702 471.787V471.73C701.497 431.993 685.816 396.079 660.715 369.961C635.191 343.416 599.95 327 561.009 327C502.391 327 452.125 364.214 430.858 417.171C429.61 420.272 428.46 423.42 427.418 426.626C425.918 431.244 424.625 435.967 423.574 440.775C421.239 451.359 420.009 462.37 420.009 473.684H420Z" fill="#27075E"/>
<path d="M1434 473.684V896H1716V473.684C1716 473.048 1716 472.422 1716 471.787V471.73C1715.5 431.993 1699.82 396.079 1674.71 369.961C1649.19 343.416 1613.95 327 1575.01 327C1516.39 327 1466.12 364.214 1444.86 417.171C1443.61 420.272 1442.46 423.42 1441.42 426.626C1439.92 431.244 1438.63 435.967 1437.57 440.775C1435.24 451.359 1434.01 462.37 1434.01 473.684H1434Z" fill="#27075E"/>
<path d="M1112 473.684V896H1394V473.684C1394 473.048 1394 472.422 1394 471.787V471.73C1393.5 431.993 1377.82 396.079 1352.71 369.961C1327.19 343.416 1291.95 327 1253.01 327C1194.39 327 1144.12 364.214 1122.86 417.171C1121.61 420.272 1120.46 423.42 1119.42 426.626C1117.92 431.244 1116.63 435.967 1115.57 440.775C1113.24 451.359 1112.01 462.37 1112.01 473.684H1112Z" fill="#27075E"/>
<path d="M757 473.684V896H1039V473.684C1039 473.048 1039 472.422 1039 471.787V471.73C1038.5 431.993 1022.82 396.079 997.715 369.961C972.191 343.416 936.95 327 898.009 327C839.391 327 789.125 364.214 767.858 417.171C766.61 420.272 765.46 423.42 764.418 426.626C762.918 431.244 761.625 435.967 760.574 440.775C758.239 451.359 757.009 462.37 757.009 473.684H757Z" fill="#27075E"/>
<path fill-rule="evenodd" clip-rule="evenodd" d="M1842 0H320V894H383.48V448.675H383.49C383.49 436.745 384.86 425.134 387.46 413.974C388.63 408.904 390.07 403.924 391.74 399.054C392.9 395.673 394.18 392.353 395.57 389.083C419.25 333.241 475.22 294 540.49 294C583.85 294 623.09 311.311 651.51 339.302C679.46 366.842 696.92 404.714 697.48 446.615V446.675V448.675V894H739.48V448.675H739.49C739.49 436.745 740.86 425.134 743.46 413.974C744.63 408.904 746.07 403.924 747.74 399.054C748.9 395.673 750.18 392.353 751.57 389.083C775.25 333.241 831.22 294 896.49 294C939.85 294 979.09 311.311 1007.51 339.302C1035.46 366.842 1052.92 404.714 1053.48 446.615V446.675V448.675V894H1095.48V448.675H1095.49C1095.49 436.745 1096.86 425.134 1099.46 413.974C1100.63 408.904 1102.07 403.924 1103.74 399.054C1104.9 395.673 1106.18 392.353 1107.57 389.083C1131.25 333.241 1187.22 294 1252.49 294C1295.85 294 1335.09 311.311 1363.51 339.302C1391.46 366.842 1408.92 404.714 1409.48 446.615V446.675V448.675V894H1451.48V448.675H1451.49C1451.49 436.745 1452.86 425.134 1455.46 413.974C1456.63 408.904 1458.07 403.924 1459.74 399.054C1460.9 395.673 1462.18 392.353 1463.57 389.083C1487.25 333.241 1543.22 294 1608.49 294C1651.85 294 1691.09 311.311 1719.51 339.302C1747.46 366.842 1764.92 404.714 1765.48 446.615V446.675V448.675V894H1842V0Z" fill="#5E7FF1"/>
<path d="M2158.52 1045.27V1079.24H-1.47998L-0.83998 1078.86L36.33 1056.94L36.41 1056.89L53.41 1046.87L53.5 1046.82L315.54 892.26L315.57 892.24H1835.34L1835.38 892.26L2158.37 1045.2H2158.38L2158.52 1045.27Z" fill="#E1CCBC"/>
<path d="M754.64 892.26L652.25 1079.24H521.96L664.68 892.26H754.64Z" fill="#E1CCBC"/>
<path d="M934.57 892.26L912.85 1079.24H782.54L844.6 892.26H934.57Z" fill="#E1CCBC"/>
<path d="M1173.44 1079.24H1043.14L1024.53 892.26H1114.49L1173.44 1079.24Z" fill="#E1CCBC"/>
<path d="M1434.03 1079.24H1303.73L1204.45 892.26H1294.42L1434.03 1079.24Z" fill="#E1CCBC"/>
<path d="M1694.62 1079.24H1564.33L1384.38 892.26H1474.34L1694.62 1079.24Z" fill="#E1CCBC"/>
<path d="M394.79 892.26L131.06 1079.24H0.77002L1.38002 1078.86L48.59 1049.83L53.41 1046.87L53.5 1046.82L304.83 892.26H394.79Z" fill="#E1CCBC"/>
<path d="M574.72 892.26L391.65 1079.24H261.36L484.75 892.26H574.72Z" fill="#E1CCBC"/>
<g style="mix-blend-mode:darken" opacity="0.08">
<path d="M2160.94 1045.32V1079.29H0.939941L1.57994 1078.91L38.7499 1056.99L38.8299 1056.94L55.8299 1046.92L55.9099 1046.87L317.96 892.31L317.99 892.29H1837.76L1837.8 892.31L2160.79 1045.25H2160.8L2160.94 1045.32Z" fill="black"/>
</g>
<path d="M-2.41992 1079.62V1080L-1.75992 1079.62L314.11 896.219L320.58 892.459L320.79 557.499L321.13 -0.380547L320.88 -0.490547L318.92 -1.31055L-2.15992 -0.310547L-2.40992 1045.55V1051.45L-2.41992 1079.62Z" fill="#5E7FF1"/>
<mask id="mask0_106_26308" style="mask-type:luminance" maskUnits="userSpaceOnUse" x="-3" y="-11" width="324" height="1091">
<path d="M-2.41992 -9.63062V1080L-1.75992 1079.62L320.73 892.059V890.949L320.79 553.339L320.88 -9.09062V-9.70062L320.14 -10.0106L318.67 -10.6406L119.59 -10.0106L-2.41992 -9.63062Z" fill="white"/>
</mask>
<g mask="url(#mask0_106_26308)">
<path d="M145.31 1087.32H235.08L235.08 -1.05078H145.31L145.31 1087.32Z" fill="#5E7FF1"/>
<path d="M-34.22 1087.32H55.55L55.55 -1.05078H-34.22L-34.22 1087.32Z" fill="#5E7FF1"/>
</g>
<g style="mix-blend-mode:darken" opacity="0.06">
<path d="M-2.41992 1079.62V1080L-1.75992 1079.62L314.11 896.219L320.58 892.459L320.79 557.499L321.13 -0.380547L320.88 -0.490547L318.92 -1.31055L-2.15992 -0.310547L-2.40992 1045.55V1051.45L-2.41992 1079.62Z" fill="black"/>
</g>
<path d="M719.879 777.255C699.876 771.506 689.027 782.767 678.531 793.652C673.085 799.298 667.888 804.695 661.617 807.706C667.894 813.929 676.8 818.967 686.684 821.809C712.849 829.33 732.318 822.822 737.485 804.828C740.89 792.972 733.32 781.116 719.873 777.255H719.879Z" fill="#FFFBF6"/>
<path d="M606.124 787.831C590.237 787.831 578.975 794.837 575.223 807.883C571.818 819.739 579.388 831.596 592.835 835.457C612.838 841.206 623.687 829.945 634.184 819.06C639.629 813.414 644.826 808.017 651.097 805.006C644.82 798.783 635.914 793.744 626.03 790.903C618.836 788.839 612.152 787.831 606.13 787.831H606.124Z" fill="#FFFBF6"/>
<path d="M640.904 836.692C633.383 862.857 639.891 882.326 657.885 887.493C663.597 889.132 669.522 888.282 674.573 885.089C679.709 881.841 683.577 876.444 685.458 869.881C691.208 849.878 679.946 839.029 669.061 828.533C663.415 823.087 658.018 817.89 655.007 811.619C648.784 817.896 643.746 826.802 640.904 836.686V836.692Z" fill="#FFFBF6"/>
<path d="M656.36 647C568.345 647 497 718.351 497 806.36C497 894.369 568.351 965.72 656.36 965.72C744.369 965.72 815.72 894.369 815.72 806.36C815.72 718.351 744.369 647 656.36 647ZM743.325 806.512C740.356 816.838 733.442 824.33 723.328 828.167C718.404 830.036 712.795 830.971 706.669 830.971C699.997 830.971 692.712 829.86 685.008 827.651C680.055 826.23 675.319 824.281 670.966 821.938C671.725 822.678 672.496 823.419 673.273 824.172C684.887 835.367 698.049 848.055 691.292 871.567C688.997 879.556 684.207 886.186 677.814 890.229C673.456 892.985 668.587 894.394 663.627 894.394C661.156 894.394 658.661 894.041 656.202 893.337C645.876 890.369 638.384 883.454 634.547 873.34C630.638 863.044 630.82 849.797 635.063 835.021C636.484 830.073 638.427 825.338 640.776 820.985C640.035 821.744 639.295 822.508 638.548 823.286C629.466 832.708 619.401 843.143 603.374 843.143C599.64 843.143 595.591 842.579 591.153 841.304C574.379 836.484 565.018 821.398 569.383 806.214C572.351 795.888 579.266 788.396 589.38 784.56C599.676 780.656 612.923 780.832 627.699 785.076C632.653 786.496 637.383 788.445 641.741 790.788C640.983 790.048 640.212 789.307 639.441 788.56C627.827 777.366 614.665 764.678 621.422 741.165C626.242 724.391 641.322 715.036 656.512 719.395C666.838 722.364 674.33 729.278 678.167 739.392C682.076 749.689 681.894 762.935 677.651 777.712C676.23 782.659 674.287 787.395 671.938 791.747C672.678 790.989 673.419 790.224 674.166 789.447C685.36 777.833 698.049 764.671 721.561 771.428C738.335 776.249 747.696 791.335 743.331 806.518L743.325 806.512Z" fill="#FFFBF6"/>
<path d="M671.81 776.03C675.69 762.523 675.926 750.6 672.49 741.542C669.358 733.286 663.25 727.646 654.836 725.23C652.924 724.683 651.012 724.416 649.136 724.416C639.368 724.416 630.504 731.561 627.262 742.841C621.513 762.845 632.775 773.693 643.66 784.19C649.306 789.635 654.703 794.832 657.714 801.103C663.936 794.826 668.975 785.92 671.816 776.037L671.81 776.03Z" fill="#FFFBF6"/>
</g>
<defs>
<clipPath id="clip0_106_26308">
<rect width="1440" height="1080" fill="white"/>
</clipPath>
</defs>
</svg>
