<svg width="1440" height="1080" viewBox="0 0 1440 1080" fill="none" xmlns="http://www.w3.org/2000/svg">
<g clip-path="url(#clip0_106_26308)">
<rect width="1440" height="1080" fill="white"/>
<rect x="316" width="1534" height="896" fill="#93A9F6"/>
<path d="M439 473.684V896H721V473.684C721 473.048 721 472.422 721 471.787V471.73C720.497 431.994 704.816 396.079 679.715 369.961C654.191 343.416 618.95 327 580.009 327C521.391 327 471.125 364.214 449.858 417.171C448.61 420.272 447.46 423.42 446.418 426.626C444.918 431.244 443.625 435.967 442.574 440.775C440.239 451.359 439.009 462.37 439.009 473.684H439Z" fill="#27075E"/>
<path d="M1434 473.684V896H1716V473.684C1716 473.048 1716 472.422 1716 471.787V471.73C1715.5 431.994 1699.82 396.079 1674.71 369.961C1649.19 343.416 1613.95 327 1575.01 327C1516.39 327 1466.12 364.214 1444.86 417.171C1443.61 420.272 1442.46 423.42 1441.42 426.626C1439.92 431.244 1438.63 435.967 1437.57 440.775C1435.24 451.359 1434.01 462.37 1434.01 473.684H1434Z" fill="#27075E"/>
<path d="M1128 473.684V896H1410V473.684C1410 473.048 1410 472.422 1410 471.787V471.73C1409.5 431.993 1393.82 396.079 1368.71 369.961C1343.19 343.416 1307.95 327 1269.01 327C1210.39 327 1160.12 364.214 1138.86 417.171C1137.61 420.272 1136.46 423.42 1135.42 426.626C1133.92 431.244 1132.63 435.967 1131.57 440.775C1129.24 451.359 1128.01 462.37 1128.01 473.684H1128Z" fill="#27075E"/>
<path d="M780 473.684V896H1062V473.684C1062 473.048 1062 472.422 1062 471.787V471.73C1061.5 431.994 1045.82 396.079 1020.71 369.961C995.191 343.416 959.95 327 921.009 327C862.391 327 812.125 364.214 790.858 417.171C789.61 420.272 788.46 423.42 787.418 426.626C785.918 431.244 784.625 435.967 783.574 440.775C781.239 451.359 780.009 462.37 780.009 473.684H780Z" fill="#27075E"/>
<path fill-rule="evenodd" clip-rule="evenodd" d="M1842 0H320V894H383.48V448.675H383.49C383.49 436.745 384.86 425.134 387.46 413.974C388.63 408.904 390.07 403.924 391.74 399.054C392.9 395.673 394.18 392.353 395.57 389.083C419.25 333.241 475.22 294 540.49 294C583.85 294 623.09 311.311 651.51 339.302C679.46 366.842 696.92 404.714 697.48 446.615V446.675V448.675V894H739.48V448.675H739.49C739.49 436.745 740.86 425.134 743.46 413.974C744.63 408.904 746.07 403.924 747.74 399.054C748.9 395.673 750.18 392.353 751.57 389.083C775.25 333.241 831.22 294 896.49 294C939.85 294 979.09 311.311 1007.51 339.302C1035.46 366.842 1052.92 404.714 1053.48 446.615V446.675V448.675V894H1095.48V448.675H1095.49C1095.49 436.745 1096.86 425.134 1099.46 413.974C1100.63 408.904 1102.07 403.924 1103.74 399.054C1104.9 395.673 1106.18 392.353 1107.57 389.083C1131.25 333.241 1187.22 294 1252.49 294C1295.85 294 1335.09 311.311 1363.51 339.302C1391.46 366.842 1408.92 404.714 1409.48 446.615V446.675V448.675V894H1451.48V448.675H1451.49C1451.49 436.745 1452.86 425.134 1455.46 413.974C1456.63 408.904 1458.07 403.924 1459.74 399.054C1460.9 395.673 1462.18 392.353 1463.57 389.083C1487.25 333.241 1543.22 294 1608.49 294C1651.85 294 1691.09 311.311 1719.51 339.302C1747.46 366.842 1764.92 404.714 1765.48 446.615V446.675V448.675V894H1842V0Z" fill="#5E7FF1"/>
<path d="M2158.52 1045.27V1079.24H-1.47998L-0.83998 1078.86L36.33 1056.94L36.41 1056.89L53.41 1046.87L53.5 1046.82L315.54 892.26L315.57 892.24H1835.34L1835.38 892.26L2158.37 1045.2H2158.38L2158.52 1045.27Z" fill="#E1CCBC"/>
<path d="M754.64 892.26L652.25 1079.24H521.96L664.68 892.26H754.64Z" fill="#E1CCBC"/>
<path d="M934.57 892.26L912.85 1079.24H782.54L844.6 892.26H934.57Z" fill="#E1CCBC"/>
<path d="M1173.44 1079.24H1043.14L1024.53 892.26H1114.49L1173.44 1079.24Z" fill="#E1CCBC"/>
<path d="M1434.03 1079.24H1303.73L1204.45 892.26H1294.42L1434.03 1079.24Z" fill="#E1CCBC"/>
<path d="M1694.62 1079.24H1564.33L1384.38 892.26H1474.34L1694.62 1079.24Z" fill="#E1CCBC"/>
<path d="M394.79 892.26L131.06 1079.24H0.77002L1.38002 1078.86L48.59 1049.83L53.41 1046.87L53.5 1046.82L304.83 892.26H394.79Z" fill="#E1CCBC"/>
<path d="M574.72 892.26L391.65 1079.24H261.36L484.75 892.26H574.72Z" fill="#E1CCBC"/>
<g style="mix-blend-mode:darken" opacity="0.08">
<path d="M2160.94 1045.32V1079.29H0.939941L1.57994 1078.91L38.7499 1056.99L38.8299 1056.94L55.8299 1046.92L55.9099 1046.87L317.96 892.31L317.99 892.29H1837.76L1837.8 892.31L2160.79 1045.25H2160.8L2160.94 1045.32Z" fill="black"/>
</g>
<path d="M-2.41992 1079.62V1080L-1.75992 1079.62L314.11 896.219L320.58 892.459L320.79 557.499L321.13 -0.380547L320.88 -0.490547L318.92 -1.31055L-2.15992 -0.310547L-2.40992 1045.55V1051.45L-2.41992 1079.62Z" fill="#5E7FF1"/>
<mask id="mask0_106_26308" style="mask-type:luminance" maskUnits="userSpaceOnUse" x="-3" y="-11" width="324" height="1091">
<path d="M-2.41992 -9.63062V1080L-1.75992 1079.62L320.73 892.059V890.949L320.79 553.339L320.88 -9.09062V-9.70062L320.14 -10.0106L318.67 -10.6406L119.59 -10.0106L-2.41992 -9.63062Z" fill="white"/>
</mask>
<g mask="url(#mask0_106_26308)">
<path d="M145.31 1087.32H235.08L235.08 -1.05078H145.31L145.31 1087.32Z" fill="#5E7FF1"/>
<path d="M-34.2197 1087.32H55.5503L55.5503 -1.05078H-34.2197L-34.2197 1087.32Z" fill="#5E7FF1"/>
</g>
<g style="mix-blend-mode:darken" opacity="0.06">
<path d="M-2.41992 1079.62V1080L-1.75992 1079.62L314.11 896.219L320.58 892.459L320.79 557.499L321.13 -0.380547L320.88 -0.490547L318.92 -1.31055L-2.15992 -0.310547L-2.40992 1045.55V1051.45L-2.41992 1079.62Z" fill="black"/>
</g>
<path d="M739.599 746.819C714.595 739.633 701.034 753.709 687.913 767.316C681.106 774.373 674.61 781.119 666.771 784.883C674.618 792.662 685.751 798.96 698.105 802.512C730.811 811.914 755.148 803.779 761.606 781.286C765.863 766.466 756.4 751.645 739.591 746.819H739.599Z" fill="#FFFBF6"/>
<path d="M597.405 760.038C577.546 760.038 563.469 768.795 558.779 785.103C554.522 799.924 563.985 814.744 580.794 819.57C605.798 826.757 619.359 812.68 632.479 799.074C639.286 792.016 645.782 785.27 653.621 781.506C645.774 773.728 634.642 767.429 622.288 763.878C613.295 761.298 604.94 760.038 597.413 760.038H597.405Z" fill="#FFFBF6"/>
<path d="M640.88 821.114C631.478 853.821 639.613 878.158 662.106 884.615C669.246 886.664 676.653 885.602 682.967 881.61C689.387 877.55 694.22 870.804 696.573 862.601C703.759 837.597 689.682 824.036 676.076 810.915C669.019 804.108 662.273 797.612 658.509 789.773C650.73 797.62 644.432 808.752 640.88 821.107V821.114Z" fill="#FFFBF6"/>
<path d="M660.2 584C550.181 584 461 673.188 461 783.2C461 893.212 550.188 982.4 660.2 982.4C770.212 982.4 859.4 893.212 859.4 783.2C859.4 673.188 770.212 584 660.2 584ZM768.906 783.39C765.195 796.298 756.552 805.662 743.91 810.458C737.755 812.795 730.743 813.964 723.087 813.964C714.747 813.964 705.64 812.575 696.01 809.813C689.818 808.037 683.899 805.601 678.458 802.672C679.407 803.598 680.37 804.524 681.342 805.465C695.859 819.458 712.311 835.318 703.865 864.709C700.996 874.695 695.009 882.982 687.018 888.036C681.569 891.481 675.483 893.242 669.284 893.242C666.195 893.242 663.076 892.802 660.003 891.921C647.095 888.211 637.73 879.567 632.934 866.925C628.047 854.054 628.275 837.496 633.579 819.026C635.355 812.841 637.783 806.922 640.72 801.481C639.794 802.429 638.869 803.386 637.935 804.357C626.583 816.134 614.001 829.179 593.967 829.179C589.3 829.179 584.238 828.473 578.691 826.88C557.724 820.855 546.022 801.997 551.479 783.018C555.189 770.11 563.833 760.745 576.475 755.949C589.346 751.07 605.904 751.29 624.374 756.594C630.567 758.37 636.478 760.806 641.927 763.735C640.978 762.81 640.014 761.884 639.051 760.95C624.534 746.957 608.082 731.097 616.528 701.706C622.553 680.739 641.403 669.045 660.39 674.494C673.298 678.205 682.662 686.848 687.458 699.49C692.345 712.361 692.118 728.919 686.813 747.39C685.037 753.574 682.609 759.493 679.672 764.934C680.598 763.986 681.524 763.03 682.457 762.058C696.451 747.541 712.311 731.089 741.701 739.535C762.669 745.561 774.37 764.418 768.914 783.397L768.906 783.39Z" fill="#FFFBF6"/>
<path d="M679.513 745.289C684.362 728.404 684.658 713.5 680.363 702.178C676.447 691.857 668.813 684.808 658.296 681.787C655.905 681.104 653.515 680.771 651.17 680.771C638.96 680.771 627.881 689.702 623.828 703.802C616.642 728.806 630.719 742.367 644.325 755.488C651.382 762.295 658.129 768.79 661.893 776.629C669.671 768.783 675.969 757.65 679.521 745.296L679.513 745.289Z" fill="#FFFBF6"/>
</g>
<defs>
<clipPath id="clip0_106_26308">
<rect width="1440" height="1080" fill="white"/>
</clipPath>
</defs>
</svg>
