<svg width="720" height="1080" viewBox="0 0 720 1080" fill="none" xmlns="http://www.w3.org/2000/svg">
<g clip-path="url(#clip0_106_25963)">
<rect width="720" height="1080" fill="white"/>
<g clip-path="url(#clip1_106_25963)">
<mask id="mask0_106_25963" style="mask-type:luminance" maskUnits="userSpaceOnUse" x="-1440" y="0" width="2160" height="1080">
<path d="M720 0H-1440V1080H720V0Z" fill="white"/>
</mask>
<g mask="url(#mask0_106_25963)">
<path d="M395.52 -1.37988H-1112.48V892.62H395.52V-1.37988Z" fill="#FFFBF6"/>
<path d="M34.1099 -2.72949H-55.9102V892.56H34.1099V-2.72949Z" fill="#FFFBF6"/>
<path d="M214.14 -2.72949H124.12V892.56H214.14V-2.72949Z" fill="#FFFBF6"/>
<path d="M398 -3H304V893H398V-3Z" fill="#FFFBF6"/>
<path d="M718.52 1045.27V1079.24H-1441.48L-1440.84 1078.86L-1403.67 1056.94L-1403.59 1056.89L-1386.59 1046.87L-1386.5 1046.82L-1124.46 892.26L-1124.43 892.24H395.34L395.38 892.26L718.37 1045.2H718.38L718.52 1045.27Z" fill="#5E7FF1"/>
<path d="M254.62 1079.24H124.33L-55.6201 892.26H34.3398L254.62 1079.24Z" fill="#5E7FF1"/>
<path d="M515.22 1079.24H384.93L124.3 892.26H214.27L515.22 1079.24Z" fill="#5E7FF1"/>
<path d="M718.52 1051.17V1079.24H718.38V1079.62L717.72 1079.24H645.51L304.23 892.26H394.19L395.23 892.77L401.85 896.01L718.37 1051.1H718.38L718.52 1051.17Z" fill="#5E7FF1"/>
<g style="mix-blend-mode:darken" opacity="0.08">
<path d="M720.94 1045.32V1079.29H-1439.06L-1438.42 1078.91L-1401.25 1056.99L-1401.17 1056.94L-1384.17 1046.92L-1384.09 1046.87L-1122.04 892.31L-1122.01 892.29H397.76L397.8 892.31L720.79 1045.25H720.8L720.94 1045.32Z" fill="black"/>
</g>
<path d="M718.38 1079.62V1080L717.72 1079.62L401.85 896.22L395.38 892.46L395.17 557.5L394.83 -0.37957L395.08 -0.48957L397.04 -1.30957L718.12 -0.30957L718.37 1045.55V1051.45L718.38 1079.62Z" fill="#FFFBF6"/>
<mask id="mask1_106_25963" style="mask-type:luminance" maskUnits="userSpaceOnUse" x="395" y="-11" width="324" height="1091">
<path d="M718.38 -9.62965V1080L717.72 1079.62L395.23 892.06V890.95L395.17 553.34L395.08 -9.08965V-9.69965L395.82 -10.0096L397.29 -10.6396L596.37 -10.0096L718.38 -9.62965Z" fill="white"/>
</mask>
<g mask="url(#mask1_106_25963)">
<path d="M570.66 -1.05957H480.89V1087.31H570.66V-1.05957Z" fill="#FFFBF6"/>
<path d="M750.2 -1.05957H660.43V1087.31H750.2V-1.05957Z" fill="#FFFBF6"/>
</g>
<g style="mix-blend-mode:darken" opacity="0.06">
<path d="M718.38 1079.62V1080L717.72 1079.62L401.85 896.22L395.38 892.46L395.17 557.5L394.83 -0.37957L395.08 -0.48957L397.04 -1.30957L718.12 -0.30957L718.37 1045.55V1051.45L718.38 1079.62Z" fill="black"/>
</g>
</g>
</g>
<path d="M26 446.67V891.98H340V446.67C340 446 340 445.34 340 444.67V444.61C339.44 402.71 321.98 364.84 294.03 337.3C265.61 309.31 226.37 292 183.01 292C117.74 292 61.77 331.24 38.09 387.08C36.7 390.35 35.42 393.67 34.26 397.05C32.59 401.92 31.15 406.9 29.98 411.97C27.38 423.13 26.01 434.74 26.01 446.67H26Z" fill="#27075E"/>
<path d="M26.0002 808.13H297.43V891.98H26.0002V808.13Z" fill="#E1CCBC"/>
<path d="M26.0002 783.65V808.13H297.43L216 783.41H214.78V783.65H26.0002Z" fill="#926B5C"/>
<path d="M26.0002 783.41H214.78V783.66H26.0002V783.41Z" fill="#E1CCBC"/>
<path d="M26.0002 725.34H214.78V783.41H26.0002V725.34Z" fill="#E1CCBC"/>
<path d="M26.0002 708.3V725.34H214.78L158.15 708.14H158.04V708.3H26.0002Z" fill="#926B5C"/>
<path d="M26.0001 708.14H158.04V708.29H26.0001V708.14Z" fill="#E1CCBC"/>
<path d="M26.0001 666.47H158.04V708.14H26.0001V666.47Z" fill="#E1CCBC"/>
<path d="M26.0001 654.13V666.47H158.04L118.43 654.13H26.0001Z" fill="#926B5C"/>
<path d="M26.0002 625.04V654.13H118.43H120.2V625.04H26.0002Z" fill="#E1CCBC"/>
<path d="M26.0002 616.46V625.04H120.2L91.9402 616.46H26.0002Z" fill="#926B5C"/>
<path d="M26.0004 596V616.46H91.9404H92.1904V596H26.0004Z" fill="#E1CCBC"/>
<path d="M26.0004 590.35V596H92.1904L72.3405 589.98H72.2304V590.35H26.0004Z" fill="#926B5C"/>
<path d="M26 589.98H72.23V590.36H26V589.98Z" fill="#E1CCBC"/>
<path d="M26 575.95H72.23V589.97H26V575.95Z" fill="#E1CCBC"/>
<path d="M26 571.71V575.95H72.23L58.36 571.71H26Z" fill="#926B5C"/>
<g style="mix-blend-mode:darken" opacity="0.75">
<path d="M26.0002 446.67V571.71H52.5303V422.04C52.3503 408.5 46.8903 396.21 38.0803 387.08C36.6903 390.35 35.4102 393.67 34.2502 397.05C32.5802 401.92 31.1402 406.9 29.9702 411.97C27.3702 423.13 26.0002 434.74 26.0002 446.67Z" fill="black"/>
</g>
</g>
<defs>
<clipPath id="clip0_106_25963">
<rect width="720" height="1080" fill="white"/>
</clipPath>
<clipPath id="clip1_106_25963">
<rect width="2160" height="1080" fill="white" transform="translate(-1440)"/>
</clipPath>
</defs>
</svg>
