<svg width="1920" height="960" viewBox="0 0 1920 960" fill="none" xmlns="http://www.w3.org/2000/svg">
<rect width="1920" height="960" fill="#141414"/>
<g clip-path="url(#clip0_119_210)">
<path d="M585.448 350.732C585.448 351.785 584.595 352.639 583.542 352.639H576.907C575.854 352.639 575 351.785 575 350.732V343.907C575 342.854 575.854 342 576.907 342H583.542C584.595 342 585.448 342.854 585.448 343.907V350.732Z" fill="white"/>
<path d="M631.538 350.732C631.538 351.785 630.684 352.639 629.631 352.639H622.996C621.943 352.639 621.089 351.785 621.089 350.732V343.907C621.089 342.854 621.943 342 622.996 342H629.631C630.684 342 631.538 342.854 631.538 343.907V350.732Z" fill="white"/>
<path d="M677.626 350.732C677.626 351.785 676.773 352.639 675.72 352.639H669.085C668.032 352.639 667.178 351.785 667.178 350.732V343.907C667.178 342.854 668.032 342 669.085 342H675.72C676.773 342 677.626 342.854 677.626 343.907V350.732Z" fill="white"/>
<path d="M723.716 350.732C723.716 351.785 722.862 352.639 721.809 352.639H715.174C714.121 352.639 713.268 351.785 713.268 350.732V343.907C713.268 342.854 714.121 342 715.174 342H721.809C722.862 342 723.716 342.854 723.716 343.907V350.732Z" fill="white"/>
<path d="M585.448 541.355C585.448 542.408 584.595 543.261 583.542 543.261H576.907C575.854 543.261 575 542.408 575 541.355V534.529C575 533.476 575.854 532.623 576.907 532.623H583.542C584.595 532.623 585.448 533.476 585.448 534.529V541.355Z" fill="white"/>
<path d="M631.538 541.355C631.538 542.408 630.684 543.261 629.631 543.261H622.996C621.943 543.261 621.089 542.408 621.089 541.355V534.529C621.089 533.476 621.943 532.623 622.996 532.623H629.631C630.684 532.623 631.538 533.476 631.538 534.529V541.355Z" fill="white"/>
<path d="M677.626 541.355C677.626 542.408 676.773 543.261 675.72 543.261H669.085C668.032 543.261 667.178 542.408 667.178 541.355V534.529C667.178 533.476 668.032 532.623 669.085 532.623H675.72C676.773 532.623 677.626 533.476 677.626 534.529V541.355Z" fill="white"/>
<path d="M723.716 541.355C723.716 542.408 722.862 543.261 721.809 543.261H715.174C714.121 543.261 713.268 542.408 713.268 541.355V534.529C713.268 533.476 714.121 532.623 715.174 532.623H721.809C722.862 532.623 723.716 533.476 723.716 534.529V541.355Z" fill="white"/>
<path d="M792.16 416.129V426.844H760.854V543.261H750.405V343.373H792.16V354.088H760.854V416.129H792.16Z" fill="white"/>
<path d="M821.52 543.261H811.072V343.373H821.52V543.261Z" fill="white"/>
<path d="M953.31 532.813V543.261H841.849V342H852.564V532.813H953.348H953.31ZM953.31 363.125V516.874H942.862V363.125C942.862 357.367 938.476 352.677 932.146 352.677C925.816 352.677 921.431 356.795 921.431 363.125V516.874H910.983V363.125C910.983 357.367 906.026 352.677 900.268 352.677C894.51 352.677 889.553 356.795 889.553 363.125V516.874H879.104V342H889.553V347.224C892.565 343.945 896.95 342 901.374 342C908.771 342 912.623 345.012 916.207 349.131C920.058 345.012 926.083 342 932.413 342C944.234 342 953.272 350.237 953.272 363.125H953.31Z" fill="white"/>
<path d="M1004.1 363.697V363.163C1004.1 357.405 999.447 352.715 993.384 352.715C987.321 352.715 982.935 357.367 982.935 363.163V405.719C982.935 411.477 987.321 416.167 993.384 416.167C1005.2 416.167 1014.81 424.67 1014.81 437.292V522.136C1014.81 533.957 1005.2 543.261 993.384 543.261C981.563 543.261 972.258 534.491 972.258 522.136V521.602H982.973V522.136C982.973 527.894 987.626 532.851 993.422 532.851C999.218 532.851 1004.14 527.894 1004.14 522.136V437.292C1004.14 431.534 999.485 427.149 993.689 426.577C981.067 425.471 972.258 419.179 972.258 405.147V363.125C972.258 351.876 981.601 342 993.384 342C1005.17 342 1014.81 350.503 1014.81 363.125V363.659H1004.1V363.697Z" fill="white"/>
<path d="M1071.1 354.088H1055.46V543.261H1044.75V354.088H1028.81V343.373H1071.1V354.088Z" fill="white"/>
<path d="M1129.82 437.559V543.261H1119.11V437.559C1119.11 431.534 1114.46 426.844 1108.66 426.844H1097.95V543.261H1087.23V343.373H1108.66C1121.28 343.373 1129.79 352.448 1129.79 364.498V405.681C1129.79 411.706 1127.57 416.93 1122.66 421.62C1127.31 425.204 1129.52 431.229 1129.79 437.559H1129.82ZM1108.7 416.129C1114.46 416.129 1119.15 411.477 1119.15 405.681V364.536C1119.15 358.778 1114.5 354.088 1108.7 354.088H1097.98V416.129H1108.7Z" fill="white"/>
<path d="M1160.59 543.261H1150.14V343.373H1160.59V543.261Z" fill="white"/>
<path d="M1180.88 343.373H1202.01C1214.9 343.373 1223.13 352.715 1223.13 364.498V405.681C1223.13 411.172 1220.92 416.396 1216 421.62C1220.39 425.738 1222.87 430.962 1223.13 437.559V522.403C1223.13 534.224 1214.9 543.261 1202.01 543.261H1180.88V343.373ZM1202.01 416.129C1207.77 416.129 1212.72 411.477 1212.72 405.681V364.536C1212.72 358.778 1208.34 354.088 1202.01 354.088H1191.29V416.129H1202.01ZM1202.01 532.813C1208.34 532.813 1212.72 528.161 1212.72 522.365V437.521C1212.72 431.496 1207.77 426.806 1202.01 426.806H1191.29V532.775H1202.01V532.813Z" fill="white"/>
<path d="M1285.21 416.129V426.844H1253.37V532.546H1285.21V543.261H1242.92V343.373H1285.21V354.088H1253.37V416.129H1285.21Z" fill="white"/>
<path d="M1345.88 363.125V543.261H1335.17V363.125C1335.17 357.367 1330.51 352.677 1324.72 352.677C1318.39 352.677 1314 357.329 1314 363.125V543.261H1303.29V342H1314V347.224C1316.48 344.212 1321.71 342 1325.82 342C1338.45 342 1345.88 351.609 1345.88 363.125Z" fill="white"/>
<path d="M575 617.58V574.148H586.755C589.323 574.148 591.546 574.453 593.373 575.063C595.201 575.673 596.682 576.474 597.818 577.504C598.954 578.533 599.794 579.677 600.288 581.012C600.782 582.346 601.029 583.719 601.029 585.13V586.732C601.029 587.914 600.93 588.905 600.683 589.706C600.436 590.507 600.09 591.231 599.596 591.841C598.707 592.985 597.324 593.938 595.497 594.777C597.374 595.464 598.806 596.493 599.695 597.828C600.584 599.163 601.029 600.993 601.029 603.319V605.759C601.029 609.573 599.843 612.509 597.423 614.53C595.003 616.551 591.2 617.58 585.915 617.58H575ZM583.051 579.982V591.956H586.705C589.373 591.956 591.2 591.422 592.138 590.392C593.077 589.363 593.521 587.837 593.521 585.854C593.521 583.872 593.027 582.423 591.99 581.469C590.953 580.478 589.126 580.02 586.409 580.02H583.1L583.051 579.982ZM583.051 597.447V611.365H586.508C588.138 611.365 589.422 611.174 590.36 610.831C591.299 610.45 591.99 609.954 592.435 609.306C592.929 608.657 593.176 607.895 593.324 606.98C593.423 606.103 593.472 605.111 593.472 604.043C593.472 602.976 593.373 601.984 593.225 601.184C593.077 600.383 592.731 599.696 592.287 599.124C591.743 598.552 591.052 598.133 590.163 597.866C589.274 597.599 588.088 597.485 586.607 597.485H583.051V597.447Z" fill="#CCB26F"/>
<path d="M611.501 617.58V574.148H619.552V617.58H611.501Z" fill="#CCB26F"/>
<path d="M630.02 617.58V574.148H641.775C644.343 574.148 646.566 574.453 648.393 575.063C650.221 575.673 651.702 576.474 652.838 577.504C653.974 578.533 654.814 579.677 655.308 581.012C655.802 582.346 656.049 583.719 656.049 585.13V586.732C656.049 587.914 655.95 588.905 655.703 589.706C655.456 590.507 655.11 591.231 654.616 591.841C653.727 592.985 652.344 593.938 650.517 594.777C652.394 595.464 653.826 596.493 654.715 597.828C655.604 599.163 656.049 600.993 656.049 603.319V605.759C656.049 609.573 654.863 612.509 652.443 614.53C650.023 616.551 646.22 617.58 640.935 617.58H629.971H630.02ZM638.071 579.982V591.956H641.726C644.393 591.956 646.22 591.422 647.158 590.392C648.097 589.363 648.541 587.837 648.541 585.854C648.541 583.872 648.048 582.423 647.01 581.469C645.973 580.478 644.146 580.02 641.429 580.02H638.12L638.071 579.982ZM638.071 597.447V611.365H641.528C643.158 611.365 644.442 611.174 645.38 610.831C646.319 610.45 647.01 609.954 647.455 609.306C647.949 608.657 648.196 607.895 648.344 606.98C648.443 606.103 648.492 605.111 648.492 604.043C648.492 602.976 648.393 601.984 648.245 601.184C648.097 600.383 647.751 599.696 647.307 599.124C646.763 598.552 646.072 598.133 645.183 597.866C644.294 597.599 643.108 597.485 641.627 597.485H638.071V597.447Z" fill="#CCB26F"/>
<path d="M666.27 617.58V574.148H674.321V611.365H690.274V617.58H666.27Z" fill="#CCB26F"/>
<path d="M698.378 617.58V574.148H706.429V617.58H698.378Z" fill="#CCB26F"/>
<path d="M716.403 584.406C716.403 582.652 716.798 581.127 717.588 579.754C718.378 578.419 719.416 577.275 720.749 576.398C722.033 575.559 723.466 574.911 725.046 574.453C726.676 573.996 728.256 573.767 729.886 573.767C731.516 573.767 733.146 573.996 734.727 574.453C736.356 574.911 737.789 575.559 739.122 576.398C740.406 577.275 741.394 578.419 742.184 579.754C742.975 581.088 743.37 582.652 743.37 584.406V607.361C743.37 609.192 742.975 610.755 742.184 612.052C741.394 613.348 740.357 614.416 739.122 615.293C737.789 616.17 736.356 616.856 734.727 617.314C733.097 617.771 731.516 618 729.886 618C728.256 618 726.627 617.771 725.046 617.314C723.466 616.856 721.984 616.208 720.749 615.293C719.416 614.454 718.378 613.348 717.588 612.052C716.798 610.755 716.403 609.192 716.403 607.361V584.406ZM724.453 607.361C724.453 608.849 724.997 609.993 726.083 610.679C727.17 611.365 728.454 611.747 729.936 611.747C731.417 611.747 732.702 611.403 733.788 610.679C734.875 609.954 735.418 608.849 735.418 607.361V584.406C735.418 582.919 734.875 581.775 733.788 581.088C732.702 580.364 731.417 580.021 729.936 580.021C728.454 580.021 727.17 580.364 726.083 581.088C724.997 581.813 724.453 582.919 724.453 584.406V607.361Z" fill="#CCB26F"/>
<path d="M757.495 617.581V579.983H748.16V574.111H774.88V579.983H765.545V617.581H757.495Z" fill="#CCB26F"/>
<path d="M781.003 617.58V574.148H805.007V580.02H789.054V592.756H802.982V598.629H789.054V611.365H805.007V617.58H781.003Z" fill="#CCB26F"/>
<path d="M812.863 617.58V574.148H820.914V593.977H821.062L832.817 574.148H840.868L829.903 591.536L842.942 617.58H834.397L825.211 598.286L820.865 604.577V617.58H812.814H812.863Z" fill="#CCB26F"/>
<path d="M849.167 617.58V574.148H873.171V580.02H857.218V592.756H871.146V598.629H857.218V611.365H873.171V617.58H849.167Z" fill="#CCB26F"/>
<path d="M880.974 617.58V574.148H893.914C903.397 574.148 908.139 578.381 908.139 586.884C908.139 589.439 907.645 591.612 906.608 593.405C905.571 595.197 903.792 596.646 901.175 597.752L909.867 617.58H901.323L893.816 599.048H888.975V617.58H880.925H880.974ZM889.025 579.982V593.519H893.618C895.05 593.519 896.186 593.366 897.026 593.061C897.866 592.756 898.508 592.337 899.002 591.765C899.446 591.193 899.693 590.507 899.891 589.668C900.039 588.829 900.138 587.875 900.138 586.77C900.138 585.664 900.039 584.711 899.891 583.872C899.742 583.033 899.397 582.308 898.952 581.698C897.964 580.554 896.038 579.982 893.272 579.982H889.074H889.025Z" fill="#CCB26F"/>
<path d="M916.93 617.58V574.148H924.684L936.834 600.307H936.982V574.148H945.033V617.58H937.427L925.079 591.46H924.931V617.58H916.88H916.93Z" fill="#CCB26F"/>
<path d="M954.958 617.58V574.148H978.962V580.02H963.009V592.756H976.937V598.629H963.009V611.365H978.962V617.58H954.958Z" fill="#CCB26F"/>
<path d="M1012.89 586.656H1004.84V585.245C1004.84 583.834 1004.4 582.576 1003.56 581.546C1002.67 580.516 1001.24 579.983 999.161 579.983C998.075 579.983 997.136 580.135 996.494 580.478C995.803 580.822 995.26 581.203 994.815 581.699C994.371 582.232 994.124 582.843 993.926 583.491C993.778 584.177 993.679 584.864 993.679 585.588C993.679 586.427 993.679 587.151 993.778 587.723C993.877 588.295 994.074 588.791 994.371 589.249C994.667 589.706 995.161 590.088 995.754 590.393C996.346 590.736 997.186 591.041 998.223 591.384L1004.4 593.291C1006.17 593.825 1007.66 594.435 1008.74 595.159C1009.83 595.884 1010.72 596.684 1011.36 597.638C1011.95 598.629 1012.35 599.735 1012.55 600.955C1012.74 602.175 1012.84 603.624 1012.84 605.188C1012.84 607.018 1012.6 608.734 1012.15 610.298C1011.66 611.861 1010.92 613.196 1009.88 614.301C1008.79 615.445 1007.31 616.322 1005.53 616.971C1003.75 617.619 1001.53 617.962 998.964 617.962C997.038 617.962 995.21 617.695 993.531 617.161C991.852 616.627 990.419 615.903 989.185 614.95C987.95 613.996 987.011 612.929 986.32 611.67C985.629 610.412 985.233 609.077 985.233 607.628V605.302H993.284V607.247C993.284 608.391 993.729 609.421 994.568 610.336C995.457 611.251 996.889 611.708 998.964 611.708C1000.35 611.708 1001.38 611.556 1002.17 611.251C1002.92 610.946 1003.51 610.526 1003.95 609.954C1004.35 609.382 1004.64 608.696 1004.69 607.895C1004.74 607.094 1004.79 606.217 1004.79 605.226C1004.79 604.082 1004.74 603.167 1004.64 602.404C1004.54 601.68 1004.35 601.07 1004 600.65C1003.66 600.193 1003.16 599.849 1002.52 599.544C1001.93 599.277 1001.09 598.972 1000.1 598.629L994.321 596.799C990.864 595.693 988.493 594.244 987.308 592.452C986.122 590.66 985.53 588.372 985.53 585.664C985.53 584.025 985.826 582.499 986.419 581.012C987.011 579.563 987.851 578.305 989.036 577.237C990.123 576.169 991.555 575.331 993.284 574.72C995.013 574.072 997.038 573.767 999.408 573.767C1001.43 573.767 1003.26 574.034 1004.89 574.606C1006.57 575.178 1008 575.941 1009.19 576.856C1011.61 578.801 1012.84 581.05 1012.84 583.567V586.618L1012.89 586.656Z" fill="#CCB26F"/>
<path d="M1038.82 617.58V574.148H1062.83V580.02H1046.87V593.214H1060.8V599.086H1046.87V617.618H1038.82V617.58Z" fill="#CCB26F"/>
<path d="M1070.88 617.58V574.148H1078.93V617.58H1070.88Z" fill="#CCB26F"/>
<path d="M1089.39 617.58V574.148H1097.44V611.365H1113.4V617.58H1089.39Z" fill="#CCB26F"/>
<path d="M1121.21 617.58V574.148H1128.96L1139.33 597.142H1139.48L1149.75 574.148H1157.56V617.58H1149.51V591.155H1149.36L1141.36 609.84H1137.36L1129.45 591.155H1129.31V617.58H1121.25H1121.21Z" fill="#CCB26F"/>
<path d="M1173.07 617.581V579.983H1163.74V574.111H1190.46V579.983H1181.12V617.581H1173.07Z" fill="#CCB26F"/>
<path d="M1196.87 617.58V574.148H1204.92V617.58H1196.87Z" fill="#CCB26F"/>
<path d="M1215.34 617.58V574.148H1223.39V611.365H1239.35V617.58H1215.34Z" fill="#CCB26F"/>
<path d="M1247.2 617.58V574.148H1258.95C1261.52 574.148 1263.74 574.453 1265.57 575.063C1267.4 575.673 1268.88 576.474 1270.02 577.504C1271.2 578.533 1271.99 579.677 1272.49 581.012C1272.98 582.346 1273.23 583.719 1273.23 585.13V586.732C1273.23 587.914 1273.13 588.905 1272.88 589.706C1272.63 590.507 1272.29 591.231 1271.79 591.841C1270.91 592.985 1269.52 593.938 1267.69 594.777C1269.57 595.464 1271 596.493 1271.89 597.828C1272.78 599.163 1273.23 600.993 1273.23 603.319V605.759C1273.23 609.573 1272.04 612.509 1269.62 614.53C1267.2 616.551 1263.4 617.58 1258.11 617.58H1247.15H1247.2ZM1255.25 579.982V591.956H1258.9C1261.57 591.956 1263.4 591.422 1264.34 590.392C1265.27 589.363 1265.72 587.837 1265.72 585.854C1265.72 583.872 1265.23 582.423 1264.19 581.469C1263.15 580.478 1261.32 580.02 1258.61 580.02H1255.3L1255.25 579.982ZM1255.25 597.447V611.365H1258.71C1260.34 611.365 1261.62 611.174 1262.56 610.831C1263.5 610.45 1264.19 609.954 1264.63 609.306C1265.13 608.657 1265.42 607.895 1265.52 606.98C1265.62 606.103 1265.67 605.111 1265.67 604.043C1265.67 602.976 1265.57 601.984 1265.42 601.184C1265.27 600.383 1264.93 599.696 1264.48 599.124C1263.94 598.552 1263.25 598.133 1262.36 597.866C1261.47 597.599 1260.29 597.485 1258.8 597.485H1255.25V597.447Z" fill="#CCB26F"/>
<path d="M1309.53 574.148V607.819C1309.53 609.229 1309.18 610.564 1308.54 611.746C1307.9 612.928 1306.96 613.996 1305.72 614.949C1304.49 615.903 1303.11 616.627 1301.53 617.161C1299.95 617.695 1298.27 617.962 1296.49 617.962C1294.71 617.962 1293.03 617.695 1291.45 617.161C1289.92 616.627 1288.54 615.903 1287.3 614.949C1286.07 613.996 1285.13 612.928 1284.44 611.746C1283.75 610.564 1283.4 609.229 1283.4 607.819V574.148H1291.45V607.208C1291.45 608.772 1291.94 609.878 1292.88 610.64C1293.82 611.365 1295.01 611.746 1296.44 611.746C1297.87 611.746 1299.06 611.365 1300 610.64C1300.93 609.916 1301.43 608.772 1301.43 607.208V574.148H1309.48H1309.53Z" fill="#CCB26F"/>
<path d="M1319.75 617.58V574.148H1331.71C1336.35 574.148 1339.86 575.139 1342.28 577.084C1344.7 579.029 1345.88 581.812 1345.88 585.397V605.721C1345.88 609.801 1344.6 612.776 1342.03 614.72C1339.46 616.665 1335.81 617.618 1331.01 617.618H1319.8L1319.75 617.58ZM1327.8 579.982V611.708H1331.51C1333.78 611.708 1335.36 611.289 1336.35 610.412C1337.34 609.534 1337.78 608.162 1337.78 606.293V585.359C1337.78 583.643 1337.34 582.346 1336.45 581.393C1335.56 580.44 1333.93 579.982 1331.56 579.982H1327.85H1327.8Z" fill="#CCB26F"/>
</g>
<defs>
<clipPath id="clip0_119_210">
<rect width="770.882" height="276" fill="white" transform="translate(575 342)"/>
</clipPath>
</defs>
</svg>
