<svg width="244" height="605" viewBox="0 0 244 605" fill="none" xmlns="http://www.w3.org/2000/svg">
<circle cx="49.3333" cy="49.3333" r="49.3333" transform="matrix(-1 0 0 1 153.333 0)" fill="#2B2B2B"/>
<circle cx="13.3333" cy="13.3333" r="13.3333" transform="matrix(-1 0 0 1 117.333 36)" fill="#999999"/>
<circle cx="6.66667" cy="6.66667" r="6.66667" transform="matrix(-1 0 0 1 110.667 42.6665)" fill="#999999"/>
<circle cx="6.66667" cy="6.66667" r="6.66667" transform="matrix(-1 0 0 1 110.667 42.6665)" fill="black" fill-opacity="0.2"/>
<circle cx="49.3333" cy="49.3333" r="49.3333" transform="matrix(-1 0 0 1 244 0)" fill="#2B2B2B"/>
<circle cx="13.3333" cy="13.3333" r="13.3333" transform="matrix(-1 0 0 1 208 36)" fill="#999999"/>
<circle cx="6.66667" cy="6.66667" r="6.66667" transform="matrix(-1 0 0 1 201.333 42.6665)" fill="#999999"/>
<circle cx="6.66667" cy="6.66667" r="6.66667" transform="matrix(-1 0 0 1 201.333 42.6665)" fill="black" fill-opacity="0.2"/>
<rect width="132" height="81.3333" transform="matrix(-1 0 0 1 205.333 97.3335)" fill="#2B2B2B"/>
<rect width="13.3333" height="46.6667" transform="matrix(-1 0 0 1 73.3333 104)" fill="#2B2B2B"/>
<path d="M59.9998 118.912L-0.000244319 97.3335V156L59.9998 139.142V118.912Z" fill="#2B2B2B"/>
<rect width="10.6667" height="9.33333" transform="matrix(-1 0 0 1 216 113.333)" fill="#2B2B2B"/>
<path d="M228 108L216 113.333V122.667L228 126.667C228 126.667 231.333 126.667 231.333 117.333C231.333 108 228 108 228 108Z" fill="#2B2B2B"/>
<path d="M228.666 591.229L156.666 224.562" stroke="#BF9D72" stroke-width="10" stroke-linecap="round"/>
<path d="M134.667 224L109.333 542.667" stroke="#BF9D72" stroke-width="10" stroke-linecap="round"/>
<path d="M35.9998 600L113.333 226.666" stroke="#BF9D72" stroke-width="10" stroke-linecap="round"/>
<circle cx="21.3333" cy="21.3333" r="21.3333" transform="matrix(-1 0 0 1 156 178.667)" fill="#666666"/>
<rect width="57.3333" height="17.3333" transform="matrix(-1 0 0 1 164 178.667)" fill="#454547"/>
<rect width="57.3333" height="17.3333" transform="matrix(-1 0 0 1 164 209.333)" fill="#454547"/>
</svg>
