<svg width="270" height="285" viewBox="0 0 270 285" fill="none" xmlns="http://www.w3.org/2000/svg">
<path d="M6.42847 177.857C6.42847 177.857 14.9999 201.429 103.929 199.286C192.857 197.143 199.286 177.857 199.286 177.857V210C199.286 210 192.857 231.429 103.929 231.429C6.42847 231.429 6.42847 210 6.42847 210V177.857Z" fill="#BFBDBD"/>
<g style="mix-blend-mode:darken" opacity="0.2">
<path d="M199.286 199.286V207.858C160.714 228.215 61.0715 222.858 45 214.286C28.9286 205.715 199.286 199.286 199.286 199.286Z" fill="#393838"/>
</g>
<path d="M4.285 190.714C5.35634 203.571 48.2136 214.286 102.857 214.286C168.214 214.286 201.428 200.357 201.428 190.714C201.428 181.072 201.428 197.143 201.428 197.143C201.428 197.143 192.857 218.572 102.857 218.572C12.8564 218.572 4.285 197.143 4.285 197.143C4.285 197.143 4.28491 193.929 4.285 190.714Z" fill="#D9D7D7"/>
<ellipse cx="102.856" cy="190.714" rx="98.5715" ry="23.5714" fill="#E8E8E8"/>
<path d="M6.42871 175.715C6.42871 175.715 23.5716 199.965 103.929 199.286C199.286 197.143 199.286 175.715 199.286 175.715V188.572C199.286 188.572 192.857 210.001 103.929 210.001C15.0001 210.001 6.42871 188.572 6.42871 188.572V175.715Z" fill="#BFBDBD"/>
<ellipse cx="102.857" cy="175.714" rx="96.4286" ry="23.5714" fill="#E8E8E8"/>
<g style="mix-blend-mode:multiply">
<ellipse cx="102.857" cy="175.714" rx="96.4286" ry="23.5714" fill="#E8E8E8"/>
</g>
<path d="M2.14209 139.286C2.14209 139.286 10.7135 162.857 99.6422 160.714C188.571 158.571 194.999 139.286 194.999 139.286V171.429C194.999 171.429 188.571 192.857 99.6422 192.857C2.14209 192.857 2.14209 171.429 2.14209 171.429V139.286Z" fill="#BFBDBD"/>
<g style="mix-blend-mode:darken" opacity="0.2">
<path d="M195 160.714V169.285C156.428 189.642 56.7853 184.285 40.7139 175.714C24.6425 167.142 195 160.714 195 160.714Z" fill="#393838"/>
</g>
<path d="M-0.000159461 152.143C1.07119 165 43.9284 175.714 98.5714 175.714C163.928 175.714 197.143 161.785 197.143 152.143C197.143 142.5 197.143 158.571 197.143 158.571C197.143 158.571 188.571 180 98.5714 180C8.57128 180 -0.000159461 158.571 -0.000159461 158.571C-0.000159461 158.571 -0.000244141 155.357 -0.000159461 152.143Z" fill="#D9D7D7"/>
<ellipse cx="98.5713" cy="152.143" rx="98.5715" ry="23.5714" fill="#E8E8E8"/>
<path d="M2.14209 137.143C2.14209 137.143 19.285 161.393 99.6422 160.714C194.999 158.571 194.999 137.143 194.999 137.143V150C194.999 150 188.571 171.428 99.6422 171.428C10.7135 171.428 2.14209 150 2.14209 150V137.143Z" fill="#BFBDBD"/>
<ellipse cx="98.5707" cy="137.143" rx="96.4286" ry="23.5714" fill="#E8E8E8"/>
<g style="mix-blend-mode:multiply">
<ellipse cx="98.5707" cy="137.143" rx="96.4286" ry="23.5714" fill="#E8E8E8"/>
</g>
<path d="M6.42871 100.714C6.42871 100.714 15.0001 124.286 103.929 122.143C192.857 120 199.286 100.714 199.286 100.714V132.857C199.286 132.857 192.857 154.286 103.929 154.286C6.42871 154.286 6.42871 132.857 6.42871 132.857V100.714Z" fill="#BFBDBD"/>
<g style="mix-blend-mode:darken" opacity="0.2">
<path d="M199.286 122.143V130.714C160.714 151.072 61.0715 145.715 45 137.143C28.9286 128.572 199.286 122.143 199.286 122.143Z" fill="#393838"/>
</g>
<path d="M4.285 113.571C5.35634 126.428 48.2136 137.143 102.857 137.143C168.214 137.143 201.428 123.214 201.428 113.571C201.428 103.929 201.428 120 201.428 120C201.428 120 192.857 141.429 102.857 141.429C12.8564 141.429 4.285 120 4.285 120C4.285 120 4.28491 116.786 4.285 113.571Z" fill="#D9D7D7"/>
<ellipse cx="102.856" cy="113.571" rx="98.5715" ry="23.5714" fill="#E8E8E8"/>
<path d="M6.42871 98.5713C6.42871 98.5713 23.5716 122.821 103.929 122.143C199.286 120 199.286 98.5713 199.286 98.5713V111.428C199.286 111.428 192.857 132.857 103.929 132.857C15.0001 132.857 6.42871 111.428 6.42871 111.428V98.5713Z" fill="#BFBDBD"/>
<ellipse cx="102.857" cy="98.5714" rx="96.4286" ry="23.5714" fill="#E8E8E8"/>
<g style="mix-blend-mode:multiply">
<ellipse cx="102.857" cy="98.5714" rx="96.4286" ry="23.5714" fill="#E8E8E8"/>
</g>
<path d="M2.14209 62.1431C2.14209 62.1431 10.7135 85.7145 99.6422 83.5716C188.571 81.4288 194.999 62.1431 194.999 62.1431V94.2859C194.999 94.2859 188.571 115.714 99.6422 115.714C2.14209 115.714 2.14209 94.2859 2.14209 94.2859V62.1431Z" fill="#BFBDBD"/>
<g style="mix-blend-mode:darken" opacity="0.2">
<path d="M194.999 83.5718V92.1432C156.428 112.5 56.7851 107.143 40.7136 98.5718C24.6422 90.0003 194.999 83.5718 194.999 83.5718Z" fill="#393838"/>
</g>
<path d="M-0.000159461 75.0006C1.07119 87.8576 43.9284 98.572 98.5714 98.572C163.928 98.572 197.143 84.6433 197.143 75.0006C197.143 65.3578 197.143 81.429 197.143 81.429C197.143 81.429 188.571 102.858 98.5714 102.858C8.57128 102.858 -0.000159461 81.429 -0.000159461 81.429C-0.000159461 81.429 -0.000244141 78.2147 -0.000159461 75.0006Z" fill="#D9D7D7"/>
<ellipse cx="98.5713" cy="75.0001" rx="98.5715" ry="23.5714" fill="#E8E8E8"/>
<path d="M2.14209 60.0005C2.14209 60.0005 19.285 84.2506 99.6422 83.5719C194.999 81.4291 194.999 60.0005 194.999 60.0005V72.8576C194.999 72.8576 188.571 94.2862 99.6422 94.2862C10.7135 94.2862 2.14209 72.8576 2.14209 72.8576V60.0005Z" fill="#BFBDBD"/>
<ellipse cx="98.5707" cy="60.0001" rx="96.4286" ry="23.5714" fill="#E8E8E8"/>
<g style="mix-blend-mode:multiply">
<ellipse cx="98.5707" cy="60.0001" rx="96.4286" ry="23.5714" fill="#E8E8E8"/>
</g>
<path d="M6.42871 25.7144C6.42871 25.7144 15.0001 49.2858 103.929 47.1429C192.857 45.0001 199.286 25.7144 199.286 25.7144V57.8572C199.286 57.8572 192.857 79.2858 103.929 79.2858C6.42871 79.2858 6.42871 57.8572 6.42871 57.8572V25.7144Z" fill="#BFBDBD"/>
<g style="mix-blend-mode:darken" opacity="0.2">
<path d="M199.286 47.1431V55.7145C160.714 76.0716 61.0715 70.7145 45 62.1431C28.9286 53.5716 199.286 47.1431 199.286 47.1431Z" fill="#393838"/>
</g>
<path d="M4.285 38.5718C5.35634 51.4289 48.2136 62.1433 102.857 62.1433C168.214 62.1433 201.428 48.2146 201.428 38.5718C201.428 28.9291 201.428 45.0003 201.428 45.0003C201.428 45.0003 192.857 66.429 102.857 66.429C12.8564 66.429 4.285 45.0003 4.285 45.0003C4.285 45.0003 4.28491 41.786 4.285 38.5718Z" fill="#D9D7D7"/>
<ellipse cx="102.856" cy="38.5714" rx="98.5715" ry="23.5714" fill="#E8E8E8"/>
<path d="M6.42847 23.5713C6.42847 23.5713 6.42847 47.1427 103.929 47.1427C199.286 44.9999 199.286 23.5713 199.286 23.5713V36.4284C199.286 36.4284 192.857 57.857 103.929 57.857C14.9999 57.857 6.42847 36.4284 6.42847 36.4284V23.5713Z" fill="#CDCDCD"/>
<ellipse cx="102.857" cy="23.5714" rx="96.4286" ry="23.5714" fill="#E8E8E8"/>
<ellipse cx="184.286" cy="199.286" rx="85.7144" ry="85.7143" fill="#A4A2A2"/>
<ellipse cx="184.286" cy="199.286" rx="68.5715" ry="68.5714" fill="url(#paint0_radial_100_18110)"/>
<path fill-rule="evenodd" clip-rule="evenodd" d="M270 199.286C270 246.624 231.624 285 184.285 285C136.946 285 98.5708 246.624 98.5708 199.286C98.5708 151.947 136.946 113.571 184.285 113.571C231.624 113.571 270 151.947 270 199.286ZM252.857 199.285C255.224 199.285 257.156 201.206 257.017 203.569C256.102 219.125 250.219 233.984 240.237 245.95C238.721 247.768 235.998 247.846 234.272 246.226L209.717 223.166C207.991 221.546 207.935 218.848 209.298 216.913C212.095 212.945 213.909 208.365 214.586 203.557C214.917 201.213 216.805 199.285 219.172 199.285H252.857ZM216.942 264.414C219.058 263.353 219.755 260.72 218.572 258.67L201.729 229.497C200.545 227.447 197.932 226.776 195.737 227.662C191.234 229.479 186.361 230.199 181.526 229.761C179.169 229.547 176.86 230.945 176.32 233.249L168.628 266.045C168.087 268.349 169.516 270.669 171.848 271.073C187.203 273.734 203.012 271.399 216.942 264.414ZM150 258.67C148.817 260.72 146.187 261.432 144.211 260.13C131.196 251.559 121.27 239.036 115.897 224.408C115.081 222.186 116.375 219.789 118.641 219.105L150.889 209.368C153.155 208.684 155.52 209.984 156.513 212.133C158.552 216.539 161.611 220.399 165.436 223.39C167.301 224.848 168.027 227.447 166.843 229.497L150 258.67ZM111.555 195.002C111.416 197.364 113.348 199.285 115.714 199.285H149.4C151.767 199.285 153.655 197.357 153.986 195.013C154.663 190.206 156.476 185.626 159.274 181.657C160.637 179.723 160.581 177.025 158.855 175.404L134.3 152.345C132.574 150.725 129.851 150.802 128.335 152.62C118.353 164.587 112.47 179.445 111.555 195.002ZM150 139.901C148.817 137.851 149.514 135.217 151.63 134.156C165.56 127.171 181.369 124.837 196.724 127.498C199.056 127.902 200.485 130.221 199.944 132.526L192.252 165.321C191.712 167.626 189.403 169.023 187.046 168.81C182.211 168.372 177.338 169.091 172.835 170.908C170.64 171.794 168.027 171.123 166.843 169.073L150 139.901ZM224.361 138.44C222.385 137.138 219.755 137.851 218.572 139.901L201.729 169.073C200.545 171.123 201.271 173.722 203.136 175.18C206.961 178.171 210.02 182.031 212.059 186.438C213.052 188.586 215.417 189.886 217.683 189.202L249.931 179.466C252.197 178.782 253.491 176.385 252.675 174.163C247.302 159.535 237.376 147.011 224.361 138.44Z" fill="#D9D9D9"/>
<ellipse cx="184.286" cy="199.286" rx="8.57144" ry="8.57143" fill="#292323"/>
<defs>
<radialGradient id="paint0_radial_100_18110" cx="0" cy="0" r="1" gradientUnits="userSpaceOnUse" gradientTransform="translate(184.286 199.286) rotate(90) scale(68.5714 68.5715)">
<stop offset="0.24" stop-color="#292323"/>
<stop offset="0.54" stop-color="#453A3A"/>
<stop offset="0.855" stop-color="#292323"/>
</radialGradient>
</defs>
</svg>
