<?xml version="1.0" encoding="UTF-8"?>
<svg xmlns="http://www.w3.org/2000/svg" xmlns:xlink="http://www.w3.org/1999/xlink" viewBox="0 0 2160 1080">
  <defs>
    <style>
      .cls-1 {
        fill: none;
      }

      .cls-2 {
        fill: #805646;
      }

      .cls-3 {
        fill: #f0f;
      }

      .cls-4 {
        fill: #413732;
      }

      .cls-5 {
        opacity: .75;
      }

      .cls-5, .cls-6 {
        fill: #ffad8c;
      }

      .cls-5, .cls-7, .cls-8, .cls-9 {
        mix-blend-mode: darken;
      }

      .cls-10 {
        isolation: isolate;
      }

      .cls-11 {
        clip-path: url(#clippath-1);
      }

      .cls-12 {
        clip-path: url(#clippath-3);
      }

      .cls-13 {
        clip-path: url(#clippath-4);
      }

      .cls-14 {
        clip-path: url(#clippath-2);
      }

      .cls-15 {
        clip-path: url(#clippath-6);
      }

      .cls-16 {
        clip-path: url(#clippath-5);
      }

      .cls-17 {
        fill: #664538;
      }

      .cls-18 {
        fill: #bf8169;
      }

      .cls-19 {
        clip-path: url(#clippath);
      }

      .cls-7 {
        opacity: .2;
      }

      .cls-8 {
        opacity: .16;
      }

      .cls-9 {
        opacity: .14;
      }
    </style>
    <clipPath id="clippath">
      <rect class="cls-1" x="321.53" y="-10.26" width="1515.3" height="903.26"/>
    </clipPath>
    <clipPath id="clippath-1">
      <rect class="cls-1" x="643.59" y="-6.21" width="2160.42" height="1092.41"/>
    </clipPath>
    <clipPath id="clippath-2">
      <rect class="cls-1" x="635.55" y="-53.62" width="2176.51" height="1187.21"/>
    </clipPath>
    <clipPath id="clippath-3">
      <rect class="cls-1" x="-1524.87" y="-53.62" width="2176.51" height="1187.21"/>
    </clipPath>
    <clipPath id="clippath-4">
      <polygon class="cls-1" points="2159.86 -9.25 2159.86 1080.38 2159.2 1080 1836.71 892.44 1836.71 891.33 1836.65 553.72 1836.56 -8.71 1836.56 -9.32 1837.3 -9.63 1838.77 -10.26 2037.85 -9.63 2159.86 -9.25"/>
    </clipPath>
    <clipPath id="clippath-5">
      <polygon class="cls-1" points="321.93 892.95 321.91 892.96 3.53 1079.62 0 1079.62 0 -1.38 319.68 -1.38 321.67 0 321.91 824.26 321.93 892.95"/>
    </clipPath>
    <clipPath id="clippath-6">
      <rect class="cls-1" x="-1524.13" y="-52.32" width="2176.08" height="1186.51"/>
    </clipPath>
  </defs>
  <g class="cls-10">
    <g id="Layer_1">
      <g id="Layer_3">
        <circle class="cls-3" cx="249.4" cy="633.79" r="10"/>
      </g>
      <g id="Layer_4">
        <rect class="cls-17" x="329" y="-1" width="1508" height="894"/>
        <g class="cls-19">
          <g class="cls-11">
            <g class="cls-14">
              <g>
                <rect class="cls-6" x="665.42" y="-3.04" width="90.02" height="1092.41"/>
                <rect class="cls-6" x="845.46" y="-3.04" width="90.02" height="1092.41"/>
                <rect class="cls-6" x="1025.49" y="-3.04" width="90.02" height="1092.41"/>
                <rect class="cls-6" x="1205.53" y="-3.04" width="90.02" height="1092.41"/>
                <rect class="cls-6" x="1385.56" y="-3.04" width="90.02" height="1092.41"/>
                <rect class="cls-6" x="1565.6" y="-3.04" width="90.02" height="1092.41"/>
                <rect class="cls-6" x="1745.63" y="-3.04" width="90.02" height="1092.41"/>
              </g>
            </g>
          </g>
          <g class="cls-12">
            <rect class="cls-6" x="305.35" y="-3.04" width="90.02" height="1092.41"/>
            <rect class="cls-6" x="485.39" y="-3.04" width="90.02" height="1092.41"/>
          </g>
        </g>
        <g>
          <polygon class="cls-17" points="2160 1045.65 2160 1079.62 0 1079.62 .64 1079.24 37.81 1057.32 37.89 1057.27 54.89 1047.25 54.97 1047.2 317.02 892.64 317.05 892.62 1836.82 892.62 1836.86 892.64 2159.85 1045.58 2159.86 1045.58 2160 1045.65"/>
          <g>
            <polygon class="cls-6" points="756.12 892.64 653.73 1079.62 523.44 1079.62 666.16 892.64 756.12 892.64"/>
            <polygon class="cls-6" points="936.05 892.64 914.33 1079.62 784.02 1079.62 846.08 892.64 936.05 892.64"/>
            <polygon class="cls-6" points="1174.92 1079.62 1044.62 1079.62 1026.01 892.64 1115.97 892.64 1174.92 1079.62"/>
            <polygon class="cls-6" points="1435.51 1079.62 1305.21 1079.62 1205.93 892.64 1295.9 892.64 1435.51 1079.62"/>
            <polygon class="cls-6" points="1696.1 1079.62 1565.81 1079.62 1385.86 892.64 1475.82 892.64 1696.1 1079.62"/>
            <polygon class="cls-6" points="1956.7 1079.62 1826.41 1079.62 1565.78 892.64 1655.75 892.64 1956.7 1079.62"/>
            <polygon class="cls-6" points="2160 1051.55 2160 1079.62 2159.86 1079.62 2159.86 1080 2159.2 1079.62 2086.99 1079.62 1745.71 892.64 1835.67 892.64 1836.71 893.15 1843.33 896.39 2159.85 1051.48 2159.86 1051.48 2160 1051.55"/>
            <polygon class="cls-6" points="396.27 892.64 132.54 1079.62 2.25 1079.62 2.86 1079.24 50.07 1050.21 54.89 1047.25 54.97 1047.2 306.31 892.64 396.27 892.64"/>
            <polygon class="cls-6" points="576.2 892.64 393.13 1079.62 262.84 1079.62 486.23 892.64 576.2 892.64"/>
          </g>
          <polygon class="cls-7" points="2162.25 1046.03 2162.25 1080 2.25 1080 2.89 1079.62 40.06 1057.7 40.14 1057.65 57.14 1047.63 57.22 1047.58 319.27 893.02 319.3 893 1839.07 893 1839.11 893.02 2162.1 1045.96 2162.11 1045.96 2162.25 1046.03"/>
        </g>
        <path class="cls-5" d="M545.51,458.24c0-4.22.17-8.41.5-12.55,0,.67,0,1.33,0,2v445.31h-.49v-434.76Z"/>
        <g>
          <polygon class="cls-17" points="2159.86 1080 2159.86 1080.38 2159.2 1080 1843.33 896.6 1836.86 892.84 1836.65 557.88 1836.31 0 1836.56 -.11 1838.52 -.93 2159.6 .07 2159.85 1045.93 2159.85 1051.83 2159.86 1080"/>
          <g class="cls-13">
            <g>
              <rect class="cls-6" x="1922.37" y="-.68" width="89.77" height="1088.37"/>
              <rect class="cls-6" x="2101.9" y="-.68" width="89.77" height="1088.37"/>
            </g>
          </g>
          <polygon class="cls-9" points="2159.86 1080 2159.86 1080.38 2159.2 1080 1843.33 896.6 1836.86 892.84 1836.65 557.88 1836.31 0 1836.56 -.11 1838.52 -.93 2159.6 .07 2159.85 1045.93 2159.85 1051.83 2159.86 1080"/>
        </g>
        <polygon class="cls-17" points="321.67 0 321.67 893.07 .86 1079.07 0 1079.57 0 -.93 319.46 -.93 321.67 0"/>
        <g class="cls-16">
          <g class="cls-15">
            <g>
              <g id="_x3C_Grid_Repeat_x3E_">
                <rect class="cls-6" x="-54.26" y="-1.77" width="90" height="1091.76"/>
              </g>
              <g id="_x3C_Grid_Repeat_x3E_-2" data-name="_x3C_Grid_Repeat_x3E_">
                <rect class="cls-6" x="125.74" y="-1.77" width="90" height="1091.76"/>
              </g>
              <g id="_x3C_Grid_Repeat_x3E_-3" data-name="_x3C_Grid_Repeat_x3E_">
                <rect class="cls-6" x="305.74" y="-1.77" width="90" height="1091.76"/>
              </g>
              <g id="_x3C_Grid_Repeat_x3E_-4" data-name="_x3C_Grid_Repeat_x3E_">
                <rect class="cls-6" x="485.74" y="-1.77" width="90" height="1091.76"/>
              </g>
            </g>
          </g>
        </g>
        <g>
          <path class="cls-4" d="M846,447.69v445.31h-314v-445.31c0-.67,0-1.33,0-2v-.06c.56-41.9,18.02-79.77,45.97-107.31,28.42-27.99,67.66-45.3,111.02-45.3,65.27,0,121.24,39.24,144.92,95.08,1.39,3.27,2.67,6.59,3.83,9.97h0c1.67,4.87,3.11,9.85,4.28,14.92,2.6,11.16,3.97,22.77,3.97,34.7Z"/>
          <g>
            <rect class="cls-2" x="574.57" y="809.15" width="271.43" height="83.85"/>
            <polygon class="cls-18" points="846 784.67 846 809.15 574.57 809.15 656 784.43 657.22 784.43 657.22 784.67 846 784.67"/>
            <rect class="cls-2" x="657.22" y="784.43" width="188.78" height=".25"/>
            <rect class="cls-2" x="657.22" y="726.36" width="188.78" height="58.07"/>
            <polygon class="cls-18" points="846 709.32 846 726.36 657.22 726.36 713.85 709.16 713.96 709.16 713.96 709.32 846 709.32"/>
            <rect class="cls-2" x="713.96" y="709.16" width="132.04" height=".15"/>
            <rect class="cls-2" x="713.96" y="667.49" width="132.04" height="41.67"/>
            <polygon class="cls-18" points="846 655.15 846 667.49 713.96 667.49 753.57 655.15 846 655.15"/>
            <polygon class="cls-2" points="846 626.06 846 655.15 753.57 655.15 751.8 655.15 751.8 626.06 846 626.06"/>
            <polygon class="cls-18" points="846 617.48 846 626.06 751.8 626.06 780.06 617.48 846 617.48"/>
            <polygon class="cls-2" points="846 597.02 846 617.48 780.06 617.48 779.81 617.48 779.81 597.02 846 597.02"/>
            <polygon class="cls-18" points="846 591.37 846 597.02 779.81 597.02 799.66 591 799.77 591 799.77 591.37 846 591.37"/>
            <rect class="cls-2" x="799.77" y="591" width="46.23" height=".38"/>
            <rect class="cls-2" x="799.77" y="576.97" width="46.23" height="14.02"/>
            <polygon class="cls-18" points="846 572.73 846 576.97 799.77 576.97 813.64 572.73 846 572.73"/>
          </g>
          <path class="cls-7" d="M846,447.69v125.04h-26.53v-149.67c.18-13.54,5.64-25.83,14.45-34.96,1.39,3.27,2.67,6.59,3.83,9.97h0c1.67,4.87,3.11,9.85,4.28,14.92,2.6,11.16,3.97,22.77,3.97,34.7Z"/>
        </g>
        <polygon class="cls-8" points="321.67 -.45 321.67 894.33 .86 1080.69 0 1081.19 0 -1.38 319.46 -1.38 321.67 -.45"/>
      </g>
    </g>
  </g>
</svg>