<svg width="940" height="488" viewBox="0 0 940 488" fill="none" xmlns="http://www.w3.org/2000/svg">
<path d="M36.8694 368.261L36.8694 424.524C36.8694 425.977 38.0472 427.154 39.5 427.154C40.9529 427.154 42.1306 425.977 42.1306 424.524V368.261C42.1306 366.808 40.9529 365.63 39.5 365.63C38.0472 365.63 36.8694 366.808 36.8694 368.261Z" fill="#4030FE"/>
<path d="M36.8694 276.854L36.8694 333.116C36.8694 334.569 38.0471 335.747 39.5 335.747C40.9529 335.747 42.1306 334.569 42.1306 333.116V276.854C42.1306 275.401 40.9529 274.223 39.5 274.223C38.0471 274.223 36.8694 275.401 36.8694 276.854Z" fill="#4030FE"/>
<path d="M36.8694 185.445L36.8694 241.708C36.8694 243.161 38.0471 244.339 39.5 244.339C40.9529 244.339 42.1306 243.161 42.1306 241.708V185.445C42.1306 183.992 40.9529 182.815 39.5 182.815C38.0471 182.815 36.8694 183.992 36.8694 185.445Z" fill="#4030FE"/>
<path d="M36.8694 94.0381L36.8694 150.301C36.8694 151.754 38.0471 152.932 39.5 152.932C40.9529 152.932 42.1306 151.754 42.1306 150.301V94.0381C42.1306 92.5852 40.9529 91.4074 39.5 91.4074C38.0471 91.4074 36.8694 92.5852 36.8694 94.0381Z" fill="#4030FE"/>
<path d="M36.8694 2.63084L36.8694 58.8938C36.8694 60.3466 38.0472 61.5244 39.5 61.5244C40.9529 61.5244 42.1306 60.3466 42.1306 58.8938V2.63084C42.1306 1.17799 40.9529 0.000213623 39.5 0.000213623C38.0472 0.000213623 36.8694 1.17799 36.8694 2.63084Z" fill="#4030FE"/>
<path d="M23.6016 476.412V478.24H17.6641V476.412H23.6016ZM18.3594 471.779V483.154H16.0156V471.779H18.3594ZM25.2734 471.779V483.154H22.9375V471.779H25.2734ZM33.6641 471.779V483.154H31.3281V471.779H33.6641ZM37.1641 471.779V473.615H27.8828V471.779H37.1641ZM41.0703 471.779H43.0547L45.9766 480.131L48.8984 471.779H50.8828L46.7734 483.154H45.1797L41.0703 471.779ZM40 471.779H41.9766L42.3359 479.92V483.154H40V471.779ZM49.9766 471.779H51.9609V483.154H49.6172V479.92L49.9766 471.779ZM62.8281 481.326V483.154H57.1016V481.326H62.8281ZM57.8594 471.779V483.154H55.5156V471.779H57.8594Z" fill="#222222"/>
<path d="M157.369 368.261V424.524C157.369 425.977 158.547 427.154 160 427.154C161.452 427.154 162.63 425.977 162.63 424.524V368.261C162.63 366.808 161.452 365.63 160 365.63C158.547 365.63 157.369 366.808 157.369 368.261Z" fill="#4030FE"/>
<path d="M157.369 276.853V333.115C157.369 334.568 158.547 335.746 160 335.746C161.452 335.746 162.63 334.568 162.63 333.115V276.853C162.63 275.4 161.452 274.222 160 274.222C158.547 274.222 157.369 275.4 157.369 276.853Z" fill="#4030FE"/>
<path d="M157.369 185.445V241.708C157.369 243.161 158.547 244.339 160 244.339C161.452 244.339 162.63 243.161 162.63 241.708V185.445C162.63 183.992 161.452 182.815 160 182.815C158.547 182.815 157.369 183.992 157.369 185.445Z" fill="#4030FE"/>
<path d="M157.369 94.0381V150.301C157.369 151.754 158.547 152.932 160 152.932C161.452 152.932 162.63 151.754 162.63 150.301V94.0381C162.63 92.5852 161.452 91.4074 160 91.4074C158.547 91.4074 157.369 92.5852 157.369 94.0381Z" fill="#4030FE"/>
<path d="M150.609 479.381H152.945C152.898 480.146 152.688 480.826 152.312 481.42C151.943 482.013 151.424 482.477 150.758 482.81C150.096 483.144 149.299 483.31 148.367 483.31C147.638 483.31 146.984 483.185 146.406 482.935C145.828 482.68 145.333 482.316 144.922 481.842C144.516 481.368 144.206 480.795 143.992 480.123C143.779 479.451 143.672 478.698 143.672 477.865V477.076C143.672 476.243 143.781 475.49 144 474.818C144.224 474.141 144.542 473.566 144.953 473.092C145.37 472.618 145.867 472.253 146.445 471.998C147.023 471.743 147.669 471.615 148.383 471.615C149.331 471.615 150.13 471.787 150.781 472.131C151.438 472.474 151.945 472.948 152.305 473.552C152.669 474.157 152.888 474.844 152.961 475.615H150.617C150.591 475.157 150.5 474.769 150.344 474.451C150.188 474.128 149.951 473.886 149.633 473.724C149.32 473.558 148.904 473.474 148.383 473.474C147.992 473.474 147.651 473.547 147.359 473.693C147.068 473.839 146.823 474.06 146.625 474.357C146.427 474.654 146.279 475.029 146.18 475.482C146.086 475.93 146.039 476.456 146.039 477.06V477.865C146.039 478.454 146.083 478.972 146.172 479.42C146.26 479.862 146.396 480.237 146.578 480.545C146.766 480.847 147.005 481.076 147.297 481.232C147.594 481.383 147.951 481.459 148.367 481.459C148.857 481.459 149.26 481.381 149.578 481.224C149.896 481.068 150.138 480.836 150.305 480.529C150.477 480.222 150.578 479.839 150.609 479.381ZM161.906 480.177C161.906 479.974 161.875 479.792 161.812 479.631C161.755 479.464 161.646 479.313 161.484 479.177C161.323 479.037 161.096 478.899 160.805 478.763C160.513 478.628 160.135 478.487 159.672 478.342C159.156 478.175 158.667 477.987 158.203 477.779C157.745 477.571 157.339 477.329 156.984 477.052C156.635 476.771 156.359 476.446 156.156 476.076C155.958 475.706 155.859 475.276 155.859 474.787C155.859 474.313 155.964 473.883 156.172 473.498C156.38 473.107 156.672 472.774 157.047 472.498C157.422 472.217 157.865 472 158.375 471.849C158.891 471.698 159.456 471.623 160.07 471.623C160.909 471.623 161.641 471.774 162.266 472.076C162.891 472.378 163.375 472.792 163.719 473.318C164.068 473.844 164.242 474.446 164.242 475.123H161.914C161.914 474.789 161.844 474.498 161.703 474.248C161.568 473.993 161.359 473.792 161.078 473.646C160.802 473.5 160.453 473.427 160.031 473.427C159.625 473.427 159.286 473.49 159.016 473.615C158.745 473.735 158.542 473.899 158.406 474.107C158.271 474.31 158.203 474.539 158.203 474.795C158.203 474.987 158.25 475.162 158.344 475.318C158.443 475.474 158.589 475.62 158.781 475.756C158.974 475.891 159.211 476.019 159.492 476.138C159.773 476.258 160.099 476.375 160.469 476.49C161.089 476.677 161.633 476.888 162.102 477.123C162.576 477.357 162.971 477.62 163.289 477.912C163.607 478.204 163.846 478.534 164.008 478.904C164.169 479.274 164.25 479.693 164.25 480.162C164.25 480.657 164.154 481.099 163.961 481.49C163.768 481.881 163.49 482.211 163.125 482.482C162.76 482.753 162.326 482.959 161.82 483.099C161.315 483.24 160.75 483.31 160.125 483.31C159.562 483.31 159.008 483.237 158.461 483.092C157.914 482.941 157.417 482.714 156.969 482.412C156.526 482.11 156.172 481.724 155.906 481.256C155.641 480.787 155.508 480.232 155.508 479.592H157.859C157.859 479.946 157.914 480.245 158.023 480.49C158.133 480.735 158.286 480.933 158.484 481.084C158.688 481.235 158.927 481.344 159.203 481.412C159.484 481.48 159.792 481.513 160.125 481.513C160.531 481.513 160.865 481.456 161.125 481.342C161.391 481.227 161.586 481.068 161.711 480.865C161.841 480.662 161.906 480.433 161.906 480.177ZM173.266 480.177C173.266 479.974 173.234 479.792 173.172 479.631C173.115 479.464 173.005 479.313 172.844 479.177C172.682 479.037 172.456 478.899 172.164 478.763C171.872 478.628 171.495 478.487 171.031 478.342C170.516 478.175 170.026 477.987 169.562 477.779C169.104 477.571 168.698 477.329 168.344 477.052C167.995 476.771 167.719 476.446 167.516 476.076C167.318 475.706 167.219 475.276 167.219 474.787C167.219 474.313 167.323 473.883 167.531 473.498C167.74 473.107 168.031 472.774 168.406 472.498C168.781 472.217 169.224 472 169.734 471.849C170.25 471.698 170.815 471.623 171.43 471.623C172.268 471.623 173 471.774 173.625 472.076C174.25 472.378 174.734 472.792 175.078 473.318C175.427 473.844 175.602 474.446 175.602 475.123H173.273C173.273 474.789 173.203 474.498 173.062 474.248C172.927 473.993 172.719 473.792 172.438 473.646C172.161 473.5 171.812 473.427 171.391 473.427C170.984 473.427 170.646 473.49 170.375 473.615C170.104 473.735 169.901 473.899 169.766 474.107C169.63 474.31 169.562 474.539 169.562 474.795C169.562 474.987 169.609 475.162 169.703 475.318C169.802 475.474 169.948 475.62 170.141 475.756C170.333 475.891 170.57 476.019 170.852 476.138C171.133 476.258 171.458 476.375 171.828 476.49C172.448 476.677 172.992 476.888 173.461 477.123C173.935 477.357 174.331 477.62 174.648 477.912C174.966 478.204 175.206 478.534 175.367 478.904C175.529 479.274 175.609 479.693 175.609 480.162C175.609 480.657 175.513 481.099 175.32 481.49C175.128 481.881 174.849 482.211 174.484 482.482C174.12 482.753 173.685 482.959 173.18 483.099C172.674 483.24 172.109 483.31 171.484 483.31C170.922 483.31 170.367 483.237 169.82 483.092C169.273 482.941 168.776 482.714 168.328 482.412C167.885 482.11 167.531 481.724 167.266 481.256C167 480.787 166.867 480.232 166.867 479.592H169.219C169.219 479.946 169.273 480.245 169.383 480.49C169.492 480.735 169.646 480.933 169.844 481.084C170.047 481.235 170.286 481.344 170.562 481.412C170.844 481.48 171.151 481.513 171.484 481.513C171.891 481.513 172.224 481.456 172.484 481.342C172.75 481.227 172.945 481.068 173.07 480.865C173.201 480.662 173.266 480.433 173.266 480.177Z" fill="#222222"/>
<path d="M275.869 368.261V424.524C275.869 425.977 277.047 427.154 278.5 427.154C279.952 427.154 281.13 425.977 281.13 424.524V368.261C281.13 366.808 279.952 365.63 278.5 365.63C277.047 365.63 275.869 366.808 275.869 368.261Z" fill="#4030FE"/>
<path d="M275.869 276.853V333.115C275.869 334.568 277.047 335.746 278.5 335.746C279.952 335.746 281.13 334.568 281.13 333.115V276.853C281.13 275.4 279.952 274.222 278.5 274.222C277.047 274.222 275.869 275.4 275.869 276.853Z" fill="#4030FE"/>
<path d="M275.869 185.445V241.708C275.869 243.161 277.047 244.339 278.5 244.339C279.953 244.339 281.13 243.161 281.13 241.708V185.445C281.13 183.992 279.953 182.815 278.5 182.815C277.047 182.815 275.869 183.992 275.869 185.445Z" fill="#4030FE"/>
<path d="M273.617 479.662V471.779H275.953V479.662C275.953 480.422 275.786 481.076 275.453 481.623C275.12 482.164 274.664 482.581 274.086 482.873C273.513 483.164 272.867 483.31 272.148 483.31C271.404 483.31 270.745 483.185 270.172 482.935C269.599 482.685 269.148 482.302 268.82 481.787C268.492 481.266 268.328 480.607 268.328 479.81H270.68C270.68 480.227 270.737 480.558 270.852 480.802C270.971 481.047 271.141 481.222 271.359 481.326C271.578 481.43 271.841 481.482 272.148 481.482C272.445 481.482 272.703 481.412 272.922 481.271C273.141 481.131 273.31 480.925 273.43 480.654C273.555 480.383 273.617 480.052 273.617 479.662ZM285.375 480.177C285.375 479.974 285.344 479.792 285.281 479.631C285.224 479.464 285.115 479.313 284.953 479.177C284.792 479.037 284.565 478.899 284.273 478.763C283.982 478.628 283.604 478.487 283.141 478.342C282.625 478.175 282.135 477.987 281.672 477.779C281.214 477.571 280.807 477.329 280.453 477.052C280.104 476.771 279.828 476.446 279.625 476.076C279.427 475.706 279.328 475.276 279.328 474.787C279.328 474.313 279.432 473.883 279.641 473.498C279.849 473.107 280.141 472.774 280.516 472.498C280.891 472.217 281.333 472 281.844 471.849C282.359 471.698 282.924 471.623 283.539 471.623C284.378 471.623 285.109 471.774 285.734 472.076C286.359 472.378 286.844 472.792 287.188 473.318C287.536 473.844 287.711 474.446 287.711 475.123H285.383C285.383 474.789 285.312 474.498 285.172 474.248C285.036 473.993 284.828 473.792 284.547 473.646C284.271 473.5 283.922 473.427 283.5 473.427C283.094 473.427 282.755 473.49 282.484 473.615C282.214 473.735 282.01 473.899 281.875 474.107C281.74 474.31 281.672 474.539 281.672 474.795C281.672 474.987 281.719 475.162 281.812 475.318C281.911 475.474 282.057 475.62 282.25 475.756C282.443 475.891 282.68 476.019 282.961 476.138C283.242 476.258 283.568 476.375 283.938 476.49C284.557 476.677 285.102 476.888 285.57 477.123C286.044 477.357 286.44 477.62 286.758 477.912C287.076 478.204 287.315 478.534 287.477 478.904C287.638 479.274 287.719 479.693 287.719 480.162C287.719 480.657 287.622 481.099 287.43 481.49C287.237 481.881 286.958 482.211 286.594 482.482C286.229 482.753 285.794 482.959 285.289 483.099C284.784 483.24 284.219 483.31 283.594 483.31C283.031 483.31 282.477 483.237 281.93 483.092C281.383 482.941 280.885 482.714 280.438 482.412C279.995 482.11 279.641 481.724 279.375 481.256C279.109 480.787 278.977 480.232 278.977 479.592H281.328C281.328 479.946 281.383 480.245 281.492 480.49C281.602 480.735 281.755 480.933 281.953 481.084C282.156 481.235 282.396 481.344 282.672 481.412C282.953 481.48 283.26 481.513 283.594 481.513C284 481.513 284.333 481.456 284.594 481.342C284.859 481.227 285.055 481.068 285.18 480.865C285.31 480.662 285.375 480.433 285.375 480.177Z" fill="#222222"/>
<path d="M357.102 471.779V483.154H354.766V471.779H357.102ZM360.602 471.779V473.615H351.32V471.779H360.602ZM367.219 473.724L364.125 483.154H361.633L365.859 471.779H367.445L367.219 473.724ZM369.789 483.154L366.688 473.724L366.438 471.779H368.039L372.289 483.154H369.789ZM369.648 478.92V480.756H363.641V478.92H369.648ZM377.336 471.779V483.154H375V471.779H377.336ZM388.344 481.326V483.154H382.617V481.326H388.344ZM383.375 471.779V483.154H381.031V471.779H383.375ZM393.07 481.349L395.336 471.779H396.602L396.891 473.373L394.477 483.154H393.117L393.07 481.349ZM391.906 471.779L393.781 481.349L393.625 483.154H392.109L389.586 471.779H391.906ZM398.883 481.31L400.734 471.779H403.055L400.539 483.154H399.023L398.883 481.31ZM397.312 471.779L399.594 481.388L399.531 483.154H398.172L395.742 473.365L396.055 471.779H397.312ZM408.32 471.779V483.154H405.984V471.779H408.32ZM421.273 471.779V483.154H418.93L414.359 475.529V483.154H412.016V471.779H414.359L418.938 479.412V471.779H421.273ZM428.305 483.154H425.828L425.844 481.326H428.305C428.919 481.326 429.438 481.188 429.859 480.912C430.281 480.631 430.599 480.222 430.812 479.685C431.031 479.149 431.141 478.5 431.141 477.74V477.185C431.141 476.602 431.078 476.089 430.953 475.646C430.833 475.204 430.654 474.831 430.414 474.529C430.174 474.227 429.88 474 429.531 473.849C429.182 473.693 428.781 473.615 428.328 473.615H425.781V471.779H428.328C429.089 471.779 429.784 471.909 430.414 472.17C431.049 472.425 431.599 472.792 432.062 473.271C432.526 473.75 432.883 474.323 433.133 474.99C433.388 475.651 433.516 476.388 433.516 477.201V477.74C433.516 478.547 433.388 479.284 433.133 479.951C432.883 480.618 432.526 481.191 432.062 481.67C431.604 482.144 431.055 482.511 430.414 482.771C429.779 483.026 429.076 483.154 428.305 483.154ZM427.156 471.779V483.154H424.812V471.779H427.156Z" fill="#222222"/>
<path d="M389 368.58V424.843C389 426.296 390.178 427.474 391.631 427.474C393.084 427.474 394.261 426.296 394.261 424.843V368.58C394.261 367.127 393.084 365.949 391.631 365.949C390.178 365.949 389 367.127 389 368.58Z" fill="#4030FE"/>
<path d="M389 277.173V333.436C389 334.889 390.178 336.066 391.631 336.066C393.083 336.066 394.261 334.889 394.261 333.436V277.173C394.261 275.72 393.083 274.542 391.631 274.542C390.178 274.542 389 275.72 389 277.173Z" fill="#4030FE"/>
<path d="M389 185.766V242.029C389 243.481 390.178 244.659 391.631 244.659C393.083 244.659 394.261 243.481 394.261 242.029V185.766C394.261 184.313 393.083 183.135 391.631 183.135C390.178 183.135 389 184.313 389 185.766Z" fill="#4030FE"/>
<path d="M389 93.6308V149.894C389 151.347 390.178 152.524 391.631 152.524C393.083 152.524 394.261 151.347 394.261 149.894V93.6308C394.261 92.178 393.083 91.0002 391.631 91.0002C390.178 91.0002 389 92.178 389 93.6308Z" fill="#4030FE"/>
<path d="M505.37 368.261V424.524C505.37 425.977 506.548 427.154 508.001 427.154C509.454 427.154 510.631 425.977 510.631 424.524V368.261C510.631 366.808 509.454 365.63 508.001 365.63C506.548 365.63 505.37 366.808 505.37 368.261Z" fill="#4030FE"/>
<path d="M505.37 276.854V333.116C505.37 334.569 506.548 335.747 508.001 335.747C509.454 335.747 510.631 334.569 510.631 333.116V276.854C510.631 275.401 509.454 274.223 508.001 274.223C506.548 274.223 505.37 275.401 505.37 276.854Z" fill="#4030FE"/>
<path d="M505.37 185.445V241.708C505.37 243.161 506.548 244.339 508.001 244.339C509.454 244.339 510.631 243.161 510.631 241.708V185.445C510.631 183.992 509.454 182.815 508.001 182.815C506.548 182.815 505.37 183.992 505.37 185.445Z" fill="#4030FE"/>
<path d="M505.37 93.6309V149.894C505.37 151.347 506.548 152.524 508.001 152.524C509.454 152.524 510.631 151.347 510.631 149.894V93.6309C510.631 92.178 509.454 91.0002 508.001 91.0002C506.548 91.0002 505.37 92.178 505.37 93.6309Z" fill="#4030FE"/>
<path d="M483.359 471.779V483.154H481.016V471.779H483.359ZM487.891 476.638V478.467H482.719V476.638H487.891ZM488.438 471.779V473.615H482.719V471.779H488.438ZM493.789 471.779V483.154H491.453V471.779H493.789ZM506.5 477.209V481.717C506.323 481.93 506.049 482.162 505.68 482.412C505.31 482.657 504.833 482.868 504.25 483.045C503.667 483.222 502.961 483.31 502.133 483.31C501.398 483.31 500.729 483.191 500.125 482.951C499.521 482.706 499 482.349 498.562 481.881C498.13 481.412 497.797 480.839 497.562 480.162C497.328 479.48 497.211 478.701 497.211 477.826V477.115C497.211 476.24 497.323 475.461 497.547 474.779C497.776 474.097 498.102 473.521 498.523 473.052C498.945 472.584 499.448 472.227 500.031 471.982C500.615 471.737 501.263 471.615 501.977 471.615C502.966 471.615 503.779 471.776 504.414 472.099C505.049 472.417 505.534 472.86 505.867 473.427C506.206 473.99 506.414 474.636 506.492 475.365H504.219C504.161 474.98 504.052 474.644 503.891 474.357C503.729 474.071 503.497 473.847 503.195 473.685C502.898 473.524 502.513 473.443 502.039 473.443C501.648 473.443 501.299 473.524 500.992 473.685C500.69 473.842 500.435 474.073 500.227 474.381C500.018 474.688 499.859 475.068 499.75 475.521C499.641 475.974 499.586 476.5 499.586 477.099V477.826C499.586 478.42 499.643 478.946 499.758 479.404C499.872 479.857 500.042 480.24 500.266 480.552C500.495 480.86 500.776 481.092 501.109 481.248C501.443 481.404 501.831 481.482 502.273 481.482C502.643 481.482 502.951 481.451 503.195 481.388C503.445 481.326 503.646 481.25 503.797 481.162C503.953 481.068 504.073 480.98 504.156 480.896V478.881H502.016V477.209H506.5ZM510.961 471.779H512.945L515.867 480.131L518.789 471.779H520.773L516.664 483.154H515.07L510.961 471.779ZM509.891 471.779H511.867L512.227 479.92V483.154H509.891V471.779ZM519.867 471.779H521.852V483.154H519.508V479.92L519.867 471.779ZM530.172 473.724L527.078 483.154H524.586L528.812 471.779H530.398L530.172 473.724ZM532.742 483.154L529.641 473.724L529.391 471.779H530.992L535.242 483.154H532.742ZM532.602 478.92V480.756H526.594V478.92H532.602Z" fill="#222222"/>
<path d="M622 368.557V424.82C622 426.272 623.178 427.45 624.631 427.45C626.083 427.45 627.261 426.272 627.261 424.82V368.557C627.261 367.104 626.083 365.926 624.631 365.926C623.178 365.926 622 367.104 622 368.557Z" fill="#4030FE"/>
<path d="M622 277.149V333.412C622 334.865 623.178 336.043 624.631 336.043C626.084 336.043 627.261 334.865 627.261 333.412V277.149C627.261 275.697 626.084 274.519 624.631 274.519C623.178 274.519 622 275.697 622 277.149Z" fill="#4030FE"/>
<path d="M706.508 471.779V483.154H704.172V471.779H706.508ZM717.516 481.326V483.154H711.789V481.326H717.516ZM712.547 471.779V483.154H710.203V471.779H712.547ZM727.672 481.326V483.154H721.945V481.326H727.672ZM722.703 471.779V483.154H720.359V471.779H722.703ZM736.531 471.779H738.867V479.295C738.867 480.17 738.68 480.907 738.305 481.506C737.935 482.105 737.422 482.555 736.766 482.857C736.115 483.159 735.365 483.31 734.516 483.31C733.667 483.31 732.911 483.159 732.25 482.857C731.594 482.555 731.078 482.105 730.703 481.506C730.333 480.907 730.148 480.17 730.148 479.295V471.779H732.492V479.295C732.492 479.805 732.573 480.222 732.734 480.545C732.896 480.868 733.128 481.105 733.43 481.256C733.737 481.407 734.099 481.482 734.516 481.482C734.943 481.482 735.305 481.407 735.602 481.256C735.904 481.105 736.133 480.868 736.289 480.545C736.451 480.222 736.531 479.805 736.531 479.295V471.779ZM748.219 480.177C748.219 479.974 748.188 479.792 748.125 479.631C748.068 479.464 747.958 479.313 747.797 479.177C747.635 479.037 747.409 478.899 747.117 478.763C746.826 478.628 746.448 478.487 745.984 478.342C745.469 478.175 744.979 477.987 744.516 477.779C744.057 477.571 743.651 477.329 743.297 477.052C742.948 476.771 742.672 476.446 742.469 476.076C742.271 475.706 742.172 475.276 742.172 474.787C742.172 474.313 742.276 473.883 742.484 473.498C742.693 473.107 742.984 472.774 743.359 472.498C743.734 472.217 744.177 472 744.688 471.849C745.203 471.698 745.768 471.623 746.383 471.623C747.221 471.623 747.953 471.774 748.578 472.076C749.203 472.378 749.688 472.792 750.031 473.318C750.38 473.844 750.555 474.446 750.555 475.123H748.227C748.227 474.789 748.156 474.498 748.016 474.248C747.88 473.993 747.672 473.792 747.391 473.646C747.115 473.5 746.766 473.427 746.344 473.427C745.938 473.427 745.599 473.49 745.328 473.615C745.057 473.735 744.854 473.899 744.719 474.107C744.583 474.31 744.516 474.539 744.516 474.795C744.516 474.987 744.562 475.162 744.656 475.318C744.755 475.474 744.901 475.62 745.094 475.756C745.286 475.891 745.523 476.019 745.805 476.138C746.086 476.258 746.411 476.375 746.781 476.49C747.401 476.677 747.945 476.888 748.414 477.123C748.888 477.357 749.284 477.62 749.602 477.912C749.919 478.204 750.159 478.534 750.32 478.904C750.482 479.274 750.562 479.693 750.562 480.162C750.562 480.657 750.466 481.099 750.273 481.49C750.081 481.881 749.802 482.211 749.438 482.482C749.073 482.753 748.638 482.959 748.133 483.099C747.628 483.24 747.062 483.31 746.438 483.31C745.875 483.31 745.32 483.237 744.773 483.092C744.227 482.941 743.729 482.714 743.281 482.412C742.839 482.11 742.484 481.724 742.219 481.256C741.953 480.787 741.82 480.232 741.82 479.592H744.172C744.172 479.946 744.227 480.245 744.336 480.49C744.445 480.735 744.599 480.933 744.797 481.084C745 481.235 745.24 481.344 745.516 481.412C745.797 481.48 746.104 481.513 746.438 481.513C746.844 481.513 747.177 481.456 747.438 481.342C747.703 481.227 747.898 481.068 748.023 480.865C748.154 480.662 748.219 480.433 748.219 480.177ZM758.742 471.779V483.154H756.406V471.779H758.742ZM762.242 471.779V473.615H752.961V471.779H762.242ZM765.078 471.779H769.32C770.19 471.779 770.938 471.909 771.562 472.17C772.193 472.43 772.677 472.816 773.016 473.326C773.354 473.836 773.523 474.464 773.523 475.209C773.523 475.818 773.419 476.342 773.211 476.779C773.008 477.211 772.719 477.573 772.344 477.865C771.974 478.151 771.539 478.381 771.039 478.552L770.297 478.943H766.609L766.594 477.115H769.336C769.747 477.115 770.089 477.042 770.359 476.896C770.63 476.75 770.833 476.547 770.969 476.287C771.109 476.026 771.18 475.724 771.18 475.381C771.18 475.016 771.112 474.701 770.977 474.435C770.841 474.17 770.635 473.967 770.359 473.826C770.083 473.685 769.737 473.615 769.32 473.615H767.422V483.154H765.078V471.779ZM771.438 483.154L768.844 478.084L771.32 478.068L773.945 483.045V483.154H771.438ZM781.453 473.724L778.359 483.154H775.867L780.094 471.779H781.68L781.453 473.724ZM784.023 483.154L780.922 473.724L780.672 471.779H782.273L786.523 483.154H784.023ZM783.883 478.92V480.756H777.875V478.92H783.883ZM793.195 471.779V483.154H790.859V471.779H793.195ZM796.695 471.779V473.615H787.414V471.779H796.695ZM808.656 477.201V477.74C808.656 478.605 808.539 479.381 808.305 480.068C808.07 480.756 807.74 481.342 807.312 481.826C806.885 482.305 806.375 482.672 805.781 482.927C805.193 483.183 804.539 483.31 803.82 483.31C803.107 483.31 802.453 483.183 801.859 482.927C801.271 482.672 800.76 482.305 800.328 481.826C799.896 481.342 799.56 480.756 799.32 480.068C799.086 479.381 798.969 478.605 798.969 477.74V477.201C798.969 476.331 799.086 475.555 799.32 474.873C799.555 474.185 799.885 473.599 800.312 473.115C800.745 472.631 801.255 472.261 801.844 472.006C802.438 471.75 803.091 471.623 803.805 471.623C804.523 471.623 805.177 471.75 805.766 472.006C806.359 472.261 806.87 472.631 807.297 473.115C807.729 473.599 808.062 474.185 808.297 474.873C808.536 475.555 808.656 476.331 808.656 477.201ZM806.289 477.74V477.185C806.289 476.581 806.234 476.05 806.125 475.592C806.016 475.133 805.854 474.748 805.641 474.435C805.427 474.123 805.167 473.888 804.859 473.732C804.552 473.571 804.201 473.49 803.805 473.49C803.409 473.49 803.057 473.571 802.75 473.732C802.448 473.888 802.19 474.123 801.977 474.435C801.768 474.748 801.609 475.133 801.5 475.592C801.391 476.05 801.336 476.581 801.336 477.185V477.74C801.336 478.339 801.391 478.87 801.5 479.334C801.609 479.792 801.771 480.18 801.984 480.498C802.198 480.81 802.458 481.047 802.766 481.209C803.073 481.37 803.424 481.451 803.82 481.451C804.216 481.451 804.568 481.37 804.875 481.209C805.182 481.047 805.44 480.81 805.648 480.498C805.857 480.18 806.016 479.792 806.125 479.334C806.234 478.87 806.289 478.339 806.289 477.74ZM811.844 471.779H816.086C816.956 471.779 817.703 471.909 818.328 472.17C818.958 472.43 819.443 472.816 819.781 473.326C820.12 473.836 820.289 474.464 820.289 475.209C820.289 475.818 820.185 476.342 819.977 476.779C819.773 477.211 819.484 477.573 819.109 477.865C818.74 478.151 818.305 478.381 817.805 478.552L817.062 478.943H813.375L813.359 477.115H816.102C816.513 477.115 816.854 477.042 817.125 476.896C817.396 476.75 817.599 476.547 817.734 476.287C817.875 476.026 817.945 475.724 817.945 475.381C817.945 475.016 817.878 474.701 817.742 474.435C817.607 474.17 817.401 473.967 817.125 473.826C816.849 473.685 816.503 473.615 816.086 473.615H814.188V483.154H811.844V471.779ZM818.203 483.154L815.609 478.084L818.086 478.068L820.711 483.045V483.154H818.203Z" fill="#222222"/>
<path d="M758 368.557V424.82C758 426.272 759.178 427.45 760.631 427.45C762.083 427.45 763.261 426.272 763.261 424.82V368.557C763.261 367.104 762.083 365.926 760.631 365.926C759.178 365.926 758 367.104 758 368.557Z" fill="#4030FE"/>
<path d="M758 277.149V333.412C758 334.865 759.178 336.043 760.631 336.043C762.084 336.043 763.261 334.865 763.261 333.412V277.149C763.261 275.697 762.084 274.519 760.631 274.519C759.178 274.519 758 275.697 758 277.149Z" fill="#4030FE"/>
<path d="M758 185.741V242.004C758 243.457 759.178 244.635 760.631 244.635H760.631C762.084 244.635 763.261 243.457 763.261 242.004V185.741C763.261 184.288 762.084 183.111 760.631 183.111C759.178 183.111 758 184.288 758 185.741Z" fill="#4030FE"/>
<path d="M758 94.334V150.597C758 152.05 759.178 153.228 760.631 153.228H760.631C762.084 153.228 763.261 152.05 763.261 150.597V94.334C763.261 92.8811 762.084 91.7034 760.631 91.7034C759.178 91.7034 758 92.8811 758 94.334Z" fill="#4030FE"/>
<path d="M860.508 471.779V483.154H858.172V471.779H860.508ZM873.461 471.779V483.154H871.117L866.547 475.529V483.154H864.203V471.779H866.547L871.125 479.412V471.779H873.461ZM880.492 483.154H878.016L878.031 481.326H880.492C881.107 481.326 881.625 481.188 882.047 480.912C882.469 480.631 882.786 480.222 883 479.685C883.219 479.149 883.328 478.5 883.328 477.74V477.185C883.328 476.602 883.266 476.089 883.141 475.646C883.021 475.204 882.841 474.831 882.602 474.529C882.362 474.227 882.068 474 881.719 473.849C881.37 473.693 880.969 473.615 880.516 473.615H877.969V471.779H880.516C881.276 471.779 881.971 471.909 882.602 472.17C883.237 472.425 883.786 472.792 884.25 473.271C884.714 473.75 885.07 474.323 885.32 474.99C885.576 475.651 885.703 476.388 885.703 477.201V477.74C885.703 478.547 885.576 479.284 885.32 479.951C885.07 480.618 884.714 481.191 884.25 481.67C883.792 482.144 883.242 482.511 882.602 482.771C881.966 483.026 881.263 483.154 880.492 483.154ZM879.344 471.779V483.154H877V471.779H879.344ZM896.539 481.326V483.154H890.484V481.326H896.539ZM891.25 471.779V483.154H888.906V471.779H891.25ZM895.75 476.412V478.193H890.484V476.412H895.75ZM896.531 471.779V473.615H890.484V471.779H896.531ZM905.328 480.177C905.328 479.974 905.297 479.792 905.234 479.631C905.177 479.464 905.068 479.313 904.906 479.177C904.745 479.037 904.518 478.899 904.227 478.763C903.935 478.628 903.557 478.487 903.094 478.342C902.578 478.175 902.089 477.987 901.625 477.779C901.167 477.571 900.76 477.329 900.406 477.052C900.057 476.771 899.781 476.446 899.578 476.076C899.38 475.706 899.281 475.276 899.281 474.787C899.281 474.313 899.385 473.883 899.594 473.498C899.802 473.107 900.094 472.774 900.469 472.498C900.844 472.217 901.286 472 901.797 471.849C902.312 471.698 902.878 471.623 903.492 471.623C904.331 471.623 905.062 471.774 905.688 472.076C906.312 472.378 906.797 472.792 907.141 473.318C907.49 473.844 907.664 474.446 907.664 475.123H905.336C905.336 474.789 905.266 474.498 905.125 474.248C904.99 473.993 904.781 473.792 904.5 473.646C904.224 473.5 903.875 473.427 903.453 473.427C903.047 473.427 902.708 473.49 902.438 473.615C902.167 473.735 901.964 473.899 901.828 474.107C901.693 474.31 901.625 474.539 901.625 474.795C901.625 474.987 901.672 475.162 901.766 475.318C901.865 475.474 902.01 475.62 902.203 475.756C902.396 475.891 902.633 476.019 902.914 476.138C903.195 476.258 903.521 476.375 903.891 476.49C904.51 476.677 905.055 476.888 905.523 477.123C905.997 477.357 906.393 477.62 906.711 477.912C907.029 478.204 907.268 478.534 907.43 478.904C907.591 479.274 907.672 479.693 907.672 480.162C907.672 480.657 907.576 481.099 907.383 481.49C907.19 481.881 906.911 482.211 906.547 482.482C906.182 482.753 905.747 482.959 905.242 483.099C904.737 483.24 904.172 483.31 903.547 483.31C902.984 483.31 902.43 483.237 901.883 483.092C901.336 482.941 900.839 482.714 900.391 482.412C899.948 482.11 899.594 481.724 899.328 481.256C899.062 480.787 898.93 480.232 898.93 479.592H901.281C901.281 479.946 901.336 480.245 901.445 480.49C901.555 480.735 901.708 480.933 901.906 481.084C902.109 481.235 902.349 481.344 902.625 481.412C902.906 481.48 903.214 481.513 903.547 481.513C903.953 481.513 904.286 481.456 904.547 481.342C904.812 481.227 905.008 481.068 905.133 480.865C905.263 480.662 905.328 480.433 905.328 480.177ZM913.258 471.779V483.154H910.922V471.779H913.258ZM925.969 477.209V481.717C925.792 481.93 925.518 482.162 925.148 482.412C924.779 482.657 924.302 482.868 923.719 483.045C923.135 483.222 922.43 483.31 921.602 483.31C920.867 483.31 920.198 483.191 919.594 482.951C918.99 482.706 918.469 482.349 918.031 481.881C917.599 481.412 917.266 480.839 917.031 480.162C916.797 479.48 916.68 478.701 916.68 477.826V477.115C916.68 476.24 916.792 475.461 917.016 474.779C917.245 474.097 917.57 473.521 917.992 473.052C918.414 472.584 918.917 472.227 919.5 471.982C920.083 471.737 920.732 471.615 921.445 471.615C922.435 471.615 923.247 471.776 923.883 472.099C924.518 472.417 925.003 472.86 925.336 473.427C925.674 473.99 925.883 474.636 925.961 475.365H923.688C923.63 474.98 923.521 474.644 923.359 474.357C923.198 474.071 922.966 473.847 922.664 473.685C922.367 473.524 921.982 473.443 921.508 473.443C921.117 473.443 920.768 473.524 920.461 473.685C920.159 473.842 919.904 474.073 919.695 474.381C919.487 474.688 919.328 475.068 919.219 475.521C919.109 475.974 919.055 476.5 919.055 477.099V477.826C919.055 478.42 919.112 478.946 919.227 479.404C919.341 479.857 919.51 480.24 919.734 480.552C919.964 480.86 920.245 481.092 920.578 481.248C920.911 481.404 921.299 481.482 921.742 481.482C922.112 481.482 922.419 481.451 922.664 481.388C922.914 481.326 923.115 481.25 923.266 481.162C923.422 481.068 923.542 480.98 923.625 480.896V478.881H921.484V477.209H925.969ZM938.617 471.779V483.154H936.273L931.703 475.529V483.154H929.359V471.779H931.703L936.281 479.412V471.779H938.617Z" fill="#222222"/>
<path d="M894 368.533V424.796C894 426.249 895.178 427.427 896.631 427.427C898.083 427.427 899.261 426.249 899.261 424.796V368.533C899.261 367.08 898.083 365.903 896.631 365.903C895.178 365.903 894 367.08 894 368.533Z" fill="#4030FE"/>
<path d="M894 277.126V333.389C894 334.842 895.178 336.02 896.631 336.02C898.083 336.02 899.261 334.842 899.261 333.389V277.126C899.261 275.673 898.083 274.495 896.631 274.495C895.178 274.495 894 275.673 894 277.126Z" fill="#4030FE"/>
<path d="M894 185.719V241.982C894 243.435 895.178 244.612 896.631 244.612C898.083 244.612 899.261 243.435 899.261 241.982V185.719C899.261 184.266 898.083 183.088 896.631 183.088C895.178 183.088 894 184.266 894 185.719Z" fill="#4030FE"/>
<path d="M894 94.3115V150.574C894 152.027 895.178 153.205 896.631 153.205C898.083 153.205 899.261 152.027 899.261 150.574V94.3115C899.261 92.8587 898.083 91.6809 896.631 91.6809C895.178 91.6809 894 92.8587 894 94.3115Z" fill="#4030FE"/>
<path d="M894 2.90332V59.1663C894 60.6191 895.178 61.7969 896.631 61.7969C898.083 61.7969 899.261 60.6191 899.261 59.1663V2.90332C899.261 1.45046 898.083 0.272705 896.631 0.272705C895.178 0.272705 894 1.45046 894 2.90332Z" fill="#4030FE"/>
<path d="M574.445 478.945H571.547V477.117H574.445C574.893 477.117 575.258 477.044 575.539 476.898C575.82 476.747 576.026 476.539 576.156 476.273C576.286 476.008 576.352 475.708 576.352 475.375C576.352 475.036 576.286 474.721 576.156 474.43C576.026 474.138 575.82 473.904 575.539 473.727C575.258 473.549 574.893 473.461 574.445 473.461H572.359V483H570.016V471.625H574.445C575.336 471.625 576.099 471.786 576.734 472.109C577.375 472.427 577.865 472.867 578.203 473.43C578.542 473.992 578.711 474.635 578.711 475.359C578.711 476.094 578.542 476.729 578.203 477.266C577.865 477.802 577.375 478.216 576.734 478.508C576.099 478.799 575.336 478.945 574.445 478.945ZM581.828 471.625H586.07C586.94 471.625 587.688 471.755 588.312 472.016C588.943 472.276 589.427 472.661 589.766 473.172C590.104 473.682 590.273 474.31 590.273 475.055C590.273 475.664 590.169 476.188 589.961 476.625C589.758 477.057 589.469 477.419 589.094 477.711C588.724 477.997 588.289 478.227 587.789 478.398L587.047 478.789H583.359L583.344 476.961H586.086C586.497 476.961 586.839 476.888 587.109 476.742C587.38 476.596 587.583 476.393 587.719 476.133C587.859 475.872 587.93 475.57 587.93 475.227C587.93 474.862 587.862 474.547 587.727 474.281C587.591 474.016 587.385 473.812 587.109 473.672C586.833 473.531 586.487 473.461 586.07 473.461H584.172V483H581.828V471.625ZM588.188 483L585.594 477.93L588.07 477.914L590.695 482.891V483H588.188ZM602.922 477.047V477.586C602.922 478.451 602.805 479.227 602.57 479.914C602.336 480.602 602.005 481.188 601.578 481.672C601.151 482.151 600.641 482.518 600.047 482.773C599.458 483.029 598.805 483.156 598.086 483.156C597.372 483.156 596.719 483.029 596.125 482.773C595.536 482.518 595.026 482.151 594.594 481.672C594.161 481.188 593.826 480.602 593.586 479.914C593.352 479.227 593.234 478.451 593.234 477.586V477.047C593.234 476.177 593.352 475.401 593.586 474.719C593.82 474.031 594.151 473.445 594.578 472.961C595.01 472.477 595.521 472.107 596.109 471.852C596.703 471.596 597.357 471.469 598.07 471.469C598.789 471.469 599.443 471.596 600.031 471.852C600.625 472.107 601.135 472.477 601.562 472.961C601.995 473.445 602.328 474.031 602.562 474.719C602.802 475.401 602.922 476.177 602.922 477.047ZM600.555 477.586V477.031C600.555 476.427 600.5 475.896 600.391 475.438C600.281 474.979 600.12 474.594 599.906 474.281C599.693 473.969 599.432 473.734 599.125 473.578C598.818 473.417 598.466 473.336 598.07 473.336C597.674 473.336 597.323 473.417 597.016 473.578C596.714 473.734 596.456 473.969 596.242 474.281C596.034 474.594 595.875 474.979 595.766 475.438C595.656 475.896 595.602 476.427 595.602 477.031V477.586C595.602 478.185 595.656 478.716 595.766 479.18C595.875 479.638 596.036 480.026 596.25 480.344C596.464 480.656 596.724 480.893 597.031 481.055C597.339 481.216 597.69 481.297 598.086 481.297C598.482 481.297 598.833 481.216 599.141 481.055C599.448 480.893 599.706 480.656 599.914 480.344C600.122 480.026 600.281 479.638 600.391 479.18C600.5 478.716 600.555 478.185 600.555 477.586ZM612.703 479.227H615.039C614.992 479.992 614.781 480.672 614.406 481.266C614.036 481.859 613.518 482.323 612.852 482.656C612.19 482.99 611.393 483.156 610.461 483.156C609.732 483.156 609.078 483.031 608.5 482.781C607.922 482.526 607.427 482.161 607.016 481.688C606.609 481.214 606.299 480.641 606.086 479.969C605.872 479.297 605.766 478.544 605.766 477.711V476.922C605.766 476.089 605.875 475.336 606.094 474.664C606.318 473.987 606.635 473.411 607.047 472.938C607.464 472.464 607.961 472.099 608.539 471.844C609.117 471.589 609.763 471.461 610.477 471.461C611.424 471.461 612.224 471.633 612.875 471.977C613.531 472.32 614.039 472.794 614.398 473.398C614.763 474.003 614.982 474.69 615.055 475.461H612.711C612.685 475.003 612.594 474.615 612.438 474.297C612.281 473.974 612.044 473.732 611.727 473.57C611.414 473.404 610.997 473.32 610.477 473.32C610.086 473.32 609.745 473.393 609.453 473.539C609.161 473.685 608.917 473.906 608.719 474.203C608.521 474.5 608.372 474.875 608.273 475.328C608.18 475.776 608.133 476.302 608.133 476.906V477.711C608.133 478.299 608.177 478.818 608.266 479.266C608.354 479.708 608.49 480.083 608.672 480.391C608.859 480.693 609.099 480.922 609.391 481.078C609.688 481.229 610.044 481.305 610.461 481.305C610.951 481.305 611.354 481.227 611.672 481.07C611.99 480.914 612.232 480.682 612.398 480.375C612.57 480.068 612.672 479.685 612.703 479.227ZM625.711 481.172V483H619.656V481.172H625.711ZM620.422 471.625V483H618.078V471.625H620.422ZM624.922 476.258V478.039H619.656V476.258H624.922ZM625.703 471.625V473.461H619.656V471.625H625.703ZM634.5 480.023C634.5 479.82 634.469 479.638 634.406 479.477C634.349 479.31 634.24 479.159 634.078 479.023C633.917 478.883 633.69 478.745 633.398 478.609C633.107 478.474 632.729 478.333 632.266 478.188C631.75 478.021 631.26 477.833 630.797 477.625C630.339 477.417 629.932 477.174 629.578 476.898C629.229 476.617 628.953 476.292 628.75 475.922C628.552 475.552 628.453 475.122 628.453 474.633C628.453 474.159 628.557 473.729 628.766 473.344C628.974 472.953 629.266 472.62 629.641 472.344C630.016 472.062 630.458 471.846 630.969 471.695C631.484 471.544 632.049 471.469 632.664 471.469C633.503 471.469 634.234 471.62 634.859 471.922C635.484 472.224 635.969 472.638 636.312 473.164C636.661 473.69 636.836 474.292 636.836 474.969H634.508C634.508 474.635 634.438 474.344 634.297 474.094C634.161 473.839 633.953 473.638 633.672 473.492C633.396 473.346 633.047 473.273 632.625 473.273C632.219 473.273 631.88 473.336 631.609 473.461C631.339 473.581 631.135 473.745 631 473.953C630.865 474.156 630.797 474.385 630.797 474.641C630.797 474.833 630.844 475.008 630.938 475.164C631.036 475.32 631.182 475.466 631.375 475.602C631.568 475.737 631.805 475.865 632.086 475.984C632.367 476.104 632.693 476.221 633.062 476.336C633.682 476.523 634.227 476.734 634.695 476.969C635.169 477.203 635.565 477.466 635.883 477.758C636.201 478.049 636.44 478.38 636.602 478.75C636.763 479.12 636.844 479.539 636.844 480.008C636.844 480.503 636.747 480.945 636.555 481.336C636.362 481.727 636.083 482.057 635.719 482.328C635.354 482.599 634.919 482.805 634.414 482.945C633.909 483.086 633.344 483.156 632.719 483.156C632.156 483.156 631.602 483.083 631.055 482.938C630.508 482.786 630.01 482.56 629.562 482.258C629.12 481.956 628.766 481.57 628.5 481.102C628.234 480.633 628.102 480.078 628.102 479.438H630.453C630.453 479.792 630.508 480.091 630.617 480.336C630.727 480.581 630.88 480.779 631.078 480.93C631.281 481.081 631.521 481.19 631.797 481.258C632.078 481.326 632.385 481.359 632.719 481.359C633.125 481.359 633.458 481.302 633.719 481.188C633.984 481.073 634.18 480.914 634.305 480.711C634.435 480.508 634.5 480.279 634.5 480.023ZM645.859 480.023C645.859 479.82 645.828 479.638 645.766 479.477C645.708 479.31 645.599 479.159 645.438 479.023C645.276 478.883 645.049 478.745 644.758 478.609C644.466 478.474 644.089 478.333 643.625 478.188C643.109 478.021 642.62 477.833 642.156 477.625C641.698 477.417 641.292 477.174 640.938 476.898C640.589 476.617 640.312 476.292 640.109 475.922C639.911 475.552 639.812 475.122 639.812 474.633C639.812 474.159 639.917 473.729 640.125 473.344C640.333 472.953 640.625 472.62 641 472.344C641.375 472.062 641.818 471.846 642.328 471.695C642.844 471.544 643.409 471.469 644.023 471.469C644.862 471.469 645.594 471.62 646.219 471.922C646.844 472.224 647.328 472.638 647.672 473.164C648.021 473.69 648.195 474.292 648.195 474.969H645.867C645.867 474.635 645.797 474.344 645.656 474.094C645.521 473.839 645.312 473.638 645.031 473.492C644.755 473.346 644.406 473.273 643.984 473.273C643.578 473.273 643.24 473.336 642.969 473.461C642.698 473.581 642.495 473.745 642.359 473.953C642.224 474.156 642.156 474.385 642.156 474.641C642.156 474.833 642.203 475.008 642.297 475.164C642.396 475.32 642.542 475.466 642.734 475.602C642.927 475.737 643.164 475.865 643.445 475.984C643.727 476.104 644.052 476.221 644.422 476.336C645.042 476.523 645.586 476.734 646.055 476.969C646.529 477.203 646.924 477.466 647.242 477.758C647.56 478.049 647.799 478.38 647.961 478.75C648.122 479.12 648.203 479.539 648.203 480.008C648.203 480.503 648.107 480.945 647.914 481.336C647.721 481.727 647.443 482.057 647.078 482.328C646.714 482.599 646.279 482.805 645.773 482.945C645.268 483.086 644.703 483.156 644.078 483.156C643.516 483.156 642.961 483.083 642.414 482.938C641.867 482.786 641.37 482.56 640.922 482.258C640.479 481.956 640.125 481.57 639.859 481.102C639.594 480.633 639.461 480.078 639.461 479.438H641.812C641.812 479.792 641.867 480.091 641.977 480.336C642.086 480.581 642.24 480.779 642.438 480.93C642.641 481.081 642.88 481.19 643.156 481.258C643.438 481.326 643.745 481.359 644.078 481.359C644.484 481.359 644.818 481.302 645.078 481.188C645.344 481.073 645.539 480.914 645.664 480.711C645.794 480.508 645.859 480.279 645.859 480.023ZM653.789 471.625V483H651.453V471.625H653.789ZM666.742 471.625V483H664.398L659.828 475.375V483H657.484V471.625H659.828L664.406 479.258V471.625H666.742ZM679.297 477.055V481.562C679.12 481.776 678.846 482.008 678.477 482.258C678.107 482.503 677.63 482.714 677.047 482.891C676.464 483.068 675.758 483.156 674.93 483.156C674.195 483.156 673.526 483.036 672.922 482.797C672.318 482.552 671.797 482.195 671.359 481.727C670.927 481.258 670.594 480.685 670.359 480.008C670.125 479.326 670.008 478.547 670.008 477.672V476.961C670.008 476.086 670.12 475.307 670.344 474.625C670.573 473.943 670.898 473.367 671.32 472.898C671.742 472.43 672.245 472.073 672.828 471.828C673.411 471.583 674.06 471.461 674.773 471.461C675.763 471.461 676.576 471.622 677.211 471.945C677.846 472.263 678.331 472.706 678.664 473.273C679.003 473.836 679.211 474.482 679.289 475.211H677.016C676.958 474.826 676.849 474.49 676.688 474.203C676.526 473.917 676.294 473.693 675.992 473.531C675.695 473.37 675.31 473.289 674.836 473.289C674.445 473.289 674.096 473.37 673.789 473.531C673.487 473.688 673.232 473.919 673.023 474.227C672.815 474.534 672.656 474.914 672.547 475.367C672.438 475.82 672.383 476.346 672.383 476.945V477.672C672.383 478.266 672.44 478.792 672.555 479.25C672.669 479.703 672.839 480.086 673.062 480.398C673.292 480.706 673.573 480.938 673.906 481.094C674.24 481.25 674.628 481.328 675.07 481.328C675.44 481.328 675.747 481.297 675.992 481.234C676.242 481.172 676.443 481.096 676.594 481.008C676.75 480.914 676.87 480.826 676.953 480.742V478.727H674.812V477.055H679.297Z" fill="black"/>
</svg>
