<svg width="2160" height="1080" viewBox="0 0 2160 1080" fill="none" xmlns="http://www.w3.org/2000/svg">
<g clip-path="url(#clip0_106_27721)">
<mask id="mask0_106_27721" style="mask-type:luminance" maskUnits="userSpaceOnUse" x="0" y="0" width="2160" height="1080">
<path d="M2160 0H0V1080H2160V0Z" fill="white"/>
</mask>
<g mask="url(#mask0_106_27721)">
<path d="M1835.52 -1.38037H327.521V892.62H1835.52V-1.38037Z" fill="#3D2304"/>
<path d="M753.97 -2.72998H663.95V892.56H753.97V-2.72998Z" fill="#BFA380"/>
<path d="M934 -2.72998H843.979V892.56H934V-2.72998Z" fill="#BFA380"/>
<path d="M1114.04 -2.72998H1024.02V892.56H1114.04V-2.72998Z" fill="#BFA380"/>
<path d="M1294.07 -2.72998H1204.05V892.56H1294.07V-2.72998Z" fill="#BFA380"/>
<path d="M1474.11 -2.72998H1384.09V892.56H1474.11V-2.72998Z" fill="#BFA380"/>
<path d="M1654.14 -2.72998H1564.12V892.56H1654.14V-2.72998Z" fill="#BFA380"/>
<path d="M1838 -3H1744V893H1838V-3Z" fill="#BFA380"/>
<path d="M393.9 -3.41992H303.88V892.24H393.9V-3.41992Z" fill="#BFA380"/>
<path d="M573.93 -3.41992H483.91V892.24H573.93V-3.41992Z" fill="#BFA380"/>
<path d="M389 451.675V897H703V451.675C703 451.005 703 450.345 703 449.675V449.615C702.44 407.714 684.98 369.842 657.03 342.302C628.61 314.311 589.37 297 546.01 297C480.74 297 424.77 336.241 401.09 392.083C399.7 395.353 398.42 398.673 397.26 402.054C395.59 406.924 394.15 411.904 392.98 416.974C390.38 428.134 389.01 439.745 389.01 451.675H389Z" fill="#2B1A04"/>
<path d="M745 451.675V897H1059V451.675C1059 451.005 1059 450.345 1059 449.675V449.615C1058.44 407.714 1040.98 369.842 1013.03 342.302C984.61 314.311 945.37 297 902.01 297C836.74 297 780.77 336.241 757.09 392.083C755.7 395.353 754.42 398.673 753.26 402.054C751.59 406.924 750.15 411.904 748.98 416.974C746.38 428.134 745.01 439.745 745.01 451.675H745Z" fill="#2B1A04"/>
<path d="M1101 451.675V897H1415V451.675C1415 451.005 1415 450.345 1415 449.675V449.615C1414.44 407.714 1396.98 369.842 1369.03 342.302C1340.61 314.311 1301.37 297 1258.01 297C1192.74 297 1136.77 336.241 1113.09 392.083C1111.7 395.353 1110.42 398.673 1109.26 402.054C1107.59 406.924 1106.15 411.904 1104.98 416.974C1102.38 428.134 1101.01 439.745 1101.01 451.675H1101Z" fill="#2B1A04"/>
<path d="M1457 451.675V897H1771V451.675C1771 451.005 1771 450.345 1771 449.675V449.615C1770.44 407.714 1752.98 369.842 1725.03 342.302C1696.61 314.311 1657.37 297 1614.01 297C1548.74 297 1492.77 336.241 1469.09 392.083C1467.7 395.353 1466.42 398.673 1465.26 402.054C1463.59 406.924 1462.15 411.904 1460.98 416.974C1458.38 428.134 1457.01 439.745 1457.01 451.675H1457Z" fill="#2B1A04"/>
<path d="M2158.52 1045.27V1079.24H-1.47949L-0.839492 1078.86L36.3305 1056.94L36.4105 1056.89L53.4105 1046.87L53.5005 1046.82L315.541 892.26L315.571 892.24H1835.34L1835.38 892.26L2158.37 1045.2H2158.38L2158.52 1045.27Z" fill="#FFF4E5"/>
<g style="mix-blend-mode:darken" opacity="0.08">
<path d="M2160.94 1045.32V1079.29H0.94043L1.58043 1078.91L38.7504 1056.99L38.8304 1056.94L55.8304 1046.92L55.9104 1046.87L317.96 892.31L317.99 892.29H1837.76L1837.8 892.31L2160.79 1045.25H2160.8L2160.94 1045.32Z" fill="black"/>
</g>
<path d="M2158.38 1079.62V1080L2157.72 1079.62L1841.85 896.22L1835.38 892.46L1835.17 557.5L1834.83 -0.380059L1835.08 -0.490059L1837.04 -1.31006L2158.12 -0.310059L2158.37 1045.55V1051.45L2158.38 1079.62Z" fill="#3D2304"/>
<mask id="mask1_106_27721" style="mask-type:luminance" maskUnits="userSpaceOnUse" x="1835" y="-11" width="324" height="1091">
<path d="M2158.38 -9.63014V1080L2157.72 1079.62L1835.23 892.06V890.95L1835.17 553.34L1835.08 -9.09014V-9.70014L1835.82 -10.0101L1837.29 -10.6401L2036.37 -10.0101L2158.38 -9.63014Z" fill="white"/>
</mask>
<g mask="url(#mask1_106_27721)">
<path d="M2010.66 -1.06006H1920.89V1087.31H2010.66V-1.06006Z" fill="#BFA380"/>
<path d="M2190.2 -1.06006H2100.43V1087.31H2190.2V-1.06006Z" fill="#BFA380"/>
</g>
<g style="mix-blend-mode:darken" opacity="0.06">
<path d="M2158.38 1079.62V1080L2157.72 1079.62L1841.85 896.22L1835.38 892.46L1835.17 557.5L1834.83 -0.380059L1835.08 -0.490059L1837.04 -1.31006L2158.12 -0.310059L2158.37 1045.55V1051.45L2158.38 1079.62Z" fill="black"/>
</g>
<path d="M-2.41992 1079.62V1080L-1.75992 1079.62L314.11 896.22L320.58 892.46L320.79 557.5L321.13 -0.380059L320.88 -0.490059L318.92 -1.31006L-2.15992 -0.310059L-2.40992 1045.55V1051.45L-2.41992 1079.62Z" fill="#3D2304"/>
<mask id="mask2_106_27721" style="mask-type:luminance" maskUnits="userSpaceOnUse" x="-3" y="-11" width="324" height="1091">
<path d="M-2.41992 -9.63014V1080L-1.75992 1079.62L320.73 892.06V890.95L320.79 553.34L320.88 -9.09014V-9.70014L320.14 -10.0101L318.67 -10.6401L119.59 -10.0101L-2.41992 -9.63014Z" fill="white"/>
</mask>
<g mask="url(#mask2_106_27721)">
<path d="M145.31 1087.32H235.08L235.08 -1.05029H145.31L145.31 1087.32Z" fill="#BFA380"/>
<path d="M-34.2202 1087.32H55.5498L55.5498 -1.05029H-34.2202L-34.2202 1087.32Z" fill="#BFA380"/>
</g>
<g style="mix-blend-mode:darken" opacity="0.06">
<path d="M-2.41992 1079.62V1080L-1.75992 1079.62L314.11 896.22L320.58 892.46L320.79 557.5L321.13 -0.380059L320.88 -0.490059L318.92 -1.31006L-2.15992 -0.310059L-2.40992 1045.55V1051.45L-2.41992 1079.62Z" fill="black"/>
</g>
</g>
<path d="M1677.1 644L1682.6 600L1591.6 602L1677.1 644Z" fill="#1A1A1A"/>
<path d="M1469.6 813C1463.16 816.651 1461.15 819.323 1458.6 824.5L1508.6 831.5L1583.6 836.5L1631.1 822C1629.22 817.818 1626.77 815.544 1622.1 811.5L1469.6 813Z" fill="#3B3B3B"/>
<path d="M1623.1 814.5C1621.57 809.978 1621.94 809.944 1623.1 805.5L1470.6 803C1471.86 813.194 1472.43 807.381 1470.6 817C1535.44 824.595 1568.52 823.516 1623.1 814.5Z" fill="#2C2C2C"/>
<path d="M1618.1 762L1631.22 761.086L1630.72 803.714C1626.03 806.667 1622.64 807.305 1617.6 808L1618.1 762Z" fill="#232323"/>
<path d="M1590.22 763.699L1618.22 762.086L1617.6 808C1607.17 809.611 1601.25 810.406 1590.22 810V763.699Z" fill="#2C2C2C"/>
<path d="M1499.6 763.5L1590.22 763.086V810C1555.1 812.557 1535.39 813.142 1499.6 810.5V763.5Z" fill="#515151"/>
<path d="M1461.6 761L1499.6 764V810.5C1484.94 808.77 1475.78 808.002 1461.6 803.073V761Z" fill="#999999"/>
<g style="mix-blend-mode:darken" opacity="0.32">
<path fill-rule="evenodd" clip-rule="evenodd" d="M1499.6 764L1461.6 761V803.073C1474.6 807.592 1483.38 808.613 1496.05 810.085C1497.2 810.219 1498.38 810.356 1499.6 810.5C1535.39 813.142 1555.1 812.557 1590.22 810V763.086L1499.6 763.5V764ZM1631.22 761.086L1618.1 762L1618.1 762.093L1590.22 763.699V810C1601.25 810.406 1607.17 809.611 1617.6 808C1622.64 807.305 1626.03 806.667 1630.72 803.714L1631.22 761.086Z" fill="#232323"/>
</g>
<path d="M1458.6 824.5C1484.13 818.613 1504 825.803 1509.1 828.5L1498.6 990.5C1488.44 993.944 1433.69 988.29 1434.6 980L1458.6 824.5Z" fill="#999999"/>
<path d="M1498.6 990.5C1538.86 997.048 1557.83 996.421 1591.6 990.5L1582.1 829C1552.65 821.851 1538.3 821.604 1509.1 828.5L1498.6 990.5Z" fill="#515151"/>
<path d="M1582.1 829C1601.89 821.047 1613.1 818.916 1631.1 821.999L1656.1 981.999C1638.82 989.313 1624.11 990.87 1591.6 990.499L1582.1 829Z" fill="#2D2D2D"/>
<path d="M1593.12 601.5H1632.62C1632.62 601.5 1641.69 703.5 1642.12 712.5C1642.55 721.5 1635.6 763.5 1635.6 763.5C1617.14 767.799 1606.38 770.279 1582.6 766L1593.12 601.5Z" fill="#2B2B2B"/>
<path d="M1496.1 601H1593.1L1582.6 766C1548.49 770.896 1532.27 770.942 1506.6 766.5L1496.1 601Z" fill="#515151"/>
<path d="M1454.1 761.5L1432.1 598L1496.6 600.5L1506.6 766.5C1479.08 769.301 1466.16 768.213 1454.1 761.5Z" fill="#B8B8B8"/>
<path d="M1683.6 602.5C1703.2 599.3 1709.77 609.833 1710.6 615.5C1697.4 615.5 1688.77 628.167 1686.1 634.5L1642.1 713L1632.6 601.5C1641.6 602.833 1664 605.7 1683.6 602.5Z" fill="#2D2D2D"/>
<path d="M1536.6 530.5L1545.6 521L1566.1 530L1554.1 531L1536.6 530.5Z" fill="#4D4D4D"/>
<path d="M1556.6 568.5L1566.1 530L1554.1 531L1536.6 530.5L1540.1 568.5H1556.6Z" fill="#2D2D2D"/>
<path d="M1525.1 529L1545.6 521L1536.6 530.5L1525.1 529Z" fill="#999999"/>
<path d="M1540.1 568.5H1534.1L1525.1 529L1536.6 530.5L1540.1 568.5Z" fill="#B8B8B8"/>
<path d="M1496.6 601L1432.1 598L1534.1 568.5H1540.1L1496.6 601Z" fill="#999999"/>
<path d="M1496.1 601.5L1593.1 603L1553.6 568H1540.6L1496.1 601.5Z" fill="#4D4D4D"/>
<path d="M1592.6 602.5L1553.6 568.5H1556.6L1683.1 600L1592.6 602.5Z" fill="#2D2D2D"/>
<path d="M1428.6 786.998C1431.6 785.123 1434.6 764.5 1430.1 763C1428.1 763.002 1425.59 764.498 1425.59 764.498C1432.02 771.999 1422.1 789.998 1422.1 789.998C1422.1 790.998 1422.2 790.999 1428.6 786.998Z" fill="#1A1A1A"/>
<path d="M1400.1 755C1402.64 708.439 1393.93 678.018 1375.1 646.5C1369.03 625.218 1386.64 624.672 1391.63 626.502L1392.6 627C1392.38 626.825 1392.05 626.655 1391.63 626.502L1376.1 618.5L1358.6 624.5L1360.6 656L1391.1 765.5L1417.1 774L1422.1 767.5C1416.77 767.833 1401.6 764.5 1400.1 755Z" fill="#1A1A1A"/>
<path d="M1411.1 586C1436.7 588.996 1474.6 586 1474.6 586L1432.6 598L1439.1 656C1402.1 653 1399.1 633.5 1387.6 625.5C1376.1 617.5 1351.55 621.463 1366.6 651C1387.97 692.952 1393.21 724.5 1390.1 754C1389.36 761 1405.6 771.167 1414.6 771C1423.6 770.833 1422.1 764.5 1426.1 764.5C1430.1 764.5 1426.6 790 1422.1 790.5C1417.6 791 1385.6 784 1382.1 780.5C1378.6 777 1332.6 635.5 1335.1 631C1339.1 620.5 1367.6 584.211 1374.6 582C1385.1 578.685 1398.7 584.548 1411.1 586Z" fill="#2C2C2C"/>
<path d="M1415.6 586.5C1423.1 587 1472.6 586.5 1472.6 586.5L1432.6 598C1432.6 598 1445.1 593 1419.6 590.5C1394.1 588 1398.1 583.5 1398.1 583.5C1398.1 583.5 1408.1 586 1415.6 586.5Z" fill="#BAB3B3"/>
</g>
<defs>
<clipPath id="clip0_106_27721">
<rect width="2160" height="1080" fill="white"/>
</clipPath>
</defs>
</svg>
