<svg width="2160" height="1080" viewBox="0 0 2160 1080" fill="none" xmlns="http://www.w3.org/2000/svg">
<g clip-path="url(#clip0_106_27721)">
<mask id="mask0_106_27721" style="mask-type:luminance" maskUnits="userSpaceOnUse" x="0" y="0" width="2160" height="1080">
<path d="M2160 0H0V1080H2160V0Z" fill="white"/>
</mask>
<g mask="url(#mask0_106_27721)">
<path d="M1835.52 -1.38037H327.521V892.62H1835.52V-1.38037Z" fill="#2B1A04"/>
<path d="M753.97 -2.72998H663.95V892.56H753.97V-2.72998Z" fill="#FFF4E5"/>
<path d="M934 -2.72998H843.979V892.56H934V-2.72998Z" fill="#FFF4E5"/>
<path d="M1114.04 -2.72998H1024.02V892.56H1114.04V-2.72998Z" fill="#FFF4E5"/>
<path d="M1294.07 -2.72998H1204.05V892.56H1294.07V-2.72998Z" fill="#FFF4E5"/>
<path d="M1474.11 -2.72998H1384.09V892.56H1474.11V-2.72998Z" fill="#FFF4E5"/>
<path d="M1654.14 -2.72998H1564.12V892.56H1654.14V-2.72998Z" fill="#FFF4E5"/>
<path d="M1838 -3H1744V893H1838V-3Z" fill="#FFF4E5"/>
<path d="M393.9 -3.41992H303.88V892.24H393.9V-3.41992Z" fill="#FFF4E5"/>
<path d="M573.93 -3.41992H483.91V892.24H573.93V-3.41992Z" fill="#FFF4E5"/>
<path d="M389 451.675V897H703V451.675C703 451.005 703 450.345 703 449.675V449.615C702.44 407.714 684.98 369.842 657.03 342.302C628.61 314.311 589.37 297 546.01 297C480.74 297 424.77 336.241 401.09 392.083C399.7 395.353 398.42 398.673 397.26 402.054C395.59 406.924 394.15 411.904 392.98 416.974C390.38 428.134 389.01 439.745 389.01 451.675H389Z" fill="#412502"/>
<path d="M745 451.675V897H1059V451.675C1059 451.005 1059 450.345 1059 449.675V449.615C1058.44 407.714 1040.98 369.842 1013.03 342.302C984.61 314.311 945.37 297 902.01 297C836.74 297 780.77 336.241 757.09 392.083C755.7 395.353 754.42 398.673 753.26 402.054C751.59 406.924 750.15 411.904 748.98 416.974C746.38 428.134 745.01 439.745 745.01 451.675H745Z" fill="#412502"/>
<path d="M1101 451.675V897H1415V451.675C1415 451.005 1415 450.345 1415 449.675V449.615C1414.44 407.714 1396.98 369.842 1369.03 342.302C1340.61 314.311 1301.37 297 1258.01 297C1192.74 297 1136.77 336.241 1113.09 392.083C1111.7 395.353 1110.42 398.673 1109.26 402.054C1107.59 406.924 1106.15 411.904 1104.98 416.974C1102.38 428.134 1101.01 439.745 1101.01 451.675H1101Z" fill="#412502"/>
<path d="M1457 451.675V897H1771V451.675C1771 451.005 1771 450.345 1771 449.675V449.615C1770.44 407.714 1752.98 369.842 1725.03 342.302C1696.61 314.311 1657.37 297 1614.01 297C1548.74 297 1492.77 336.241 1469.09 392.083C1467.7 395.353 1466.42 398.673 1465.26 402.054C1463.59 406.924 1462.15 411.904 1460.98 416.974C1458.38 428.134 1457.01 439.745 1457.01 451.675H1457Z" fill="#412502"/>
<path d="M2158.52 1045.27V1079.24H-1.47949L-0.839492 1078.86L36.3305 1056.94L36.4105 1056.89L53.4105 1046.87L53.5005 1046.82L315.541 892.26L315.571 892.24H1835.34L1835.38 892.26L2158.37 1045.2H2158.38L2158.52 1045.27Z" fill="#BFA380"/>
<g style="mix-blend-mode:darken" opacity="0.08">
<path d="M2160.94 1045.32V1079.29H0.94043L1.58043 1078.91L38.7504 1056.99L38.8304 1056.94L55.8304 1046.92L55.9104 1046.87L317.96 892.31L317.99 892.29H1837.76L1837.8 892.31L2160.79 1045.25H2160.8L2160.94 1045.32Z" fill="black"/>
</g>
<path d="M2158.38 1079.62V1080L2157.72 1079.62L1841.85 896.22L1835.38 892.46L1835.17 557.5L1834.83 -0.380059L1835.08 -0.490059L1837.04 -1.31006L2158.12 -0.310059L2158.37 1045.55V1051.45L2158.38 1079.62Z" fill="#2B1A04"/>
<mask id="mask1_106_27721" style="mask-type:luminance" maskUnits="userSpaceOnUse" x="1835" y="-11" width="324" height="1091">
<path d="M2158.38 -9.63014V1080L2157.72 1079.62L1835.23 892.06V890.95L1835.17 553.34L1835.08 -9.09014V-9.70014L1835.82 -10.0101L1837.29 -10.6401L2036.37 -10.0101L2158.38 -9.63014Z" fill="white"/>
</mask>
<g mask="url(#mask1_106_27721)">
<path d="M2010.66 -1.06006H1920.89V1087.31H2010.66V-1.06006Z" fill="#FFF4E5"/>
<path d="M2190.2 -1.06006H2100.43V1087.31H2190.2V-1.06006Z" fill="#FFF4E5"/>
</g>
<g style="mix-blend-mode:darken" opacity="0.06">
<path d="M2158.38 1079.62V1080L2157.72 1079.62L1841.85 896.22L1835.38 892.46L1835.17 557.5L1834.83 -0.380059L1835.08 -0.490059L1837.04 -1.31006L2158.12 -0.310059L2158.37 1045.55V1051.45L2158.38 1079.62Z" fill="black"/>
</g>
<path d="M-2.41992 1079.62V1080L-1.75992 1079.62L314.11 896.22L320.58 892.46L320.79 557.5L321.13 -0.380059L320.88 -0.490059L318.92 -1.31006L-2.15992 -0.310059L-2.40992 1045.55V1051.45L-2.41992 1079.62Z" fill="#2B1A04"/>
<mask id="mask2_106_27721" style="mask-type:luminance" maskUnits="userSpaceOnUse" x="-3" y="-11" width="324" height="1091">
<path d="M-2.41992 -9.63014V1080L-1.75992 1079.62L320.73 892.06V890.95L320.79 553.34L320.88 -9.09014V-9.70014L320.14 -10.0101L318.67 -10.6401L119.59 -10.0101L-2.41992 -9.63014Z" fill="white"/>
</mask>
<g mask="url(#mask2_106_27721)">
<path d="M145.31 1087.32H235.08L235.08 -1.0498H145.31L145.31 1087.32Z" fill="#FFF4E5"/>
<path d="M-34.2202 1087.32H55.5498L55.5498 -1.0498H-34.2202L-34.2202 1087.32Z" fill="#FFF4E5"/>
</g>
<g style="mix-blend-mode:darken" opacity="0.06">
<path d="M-2.41992 1079.62V1080L-1.75992 1079.62L314.11 896.22L320.58 892.46L320.79 557.5L321.13 -0.380059L320.88 -0.490059L318.92 -1.31006L-2.15992 -0.310059L-2.40992 1045.55V1051.45L-2.41992 1079.62Z" fill="black"/>
</g>
</g>
<path d="M1677.1 644L1682.6 600L1591.6 602L1677.1 644Z" fill="#1A1A1A"/>
<path d="M1469.6 813C1463.16 816.651 1461.15 819.323 1458.6 824.5L1508.6 831.5L1583.6 836.5L1631.1 822C1629.22 817.818 1626.77 815.544 1622.1 811.5L1469.6 813Z" fill="#3B3B3B"/>
<path d="M1623.1 814.5C1621.56 809.978 1621.94 809.944 1623.1 805.5L1470.6 803C1471.86 813.194 1472.43 807.381 1470.6 817C1535.44 824.595 1568.52 823.516 1623.1 814.5Z" fill="#2C2C2C"/>
<path d="M1618.1 762L1631.22 761.086L1630.72 803.714C1626.03 806.667 1622.64 807.305 1617.6 808L1618.1 762Z" fill="#232323"/>
<path d="M1590.22 763.699L1618.22 762.086L1617.6 808C1607.17 809.611 1601.25 810.406 1590.22 810V763.699Z" fill="#2C2C2C"/>
<path d="M1499.6 763.5L1590.22 763.086V810C1555.1 812.557 1535.39 813.142 1499.6 810.5V763.5Z" fill="#515151"/>
<path d="M1461.6 761L1499.6 764V810.5C1484.94 808.77 1475.77 808.002 1461.6 803.073V761Z" fill="#999999"/>
<g style="mix-blend-mode:darken" opacity="0.32">
<path fill-rule="evenodd" clip-rule="evenodd" d="M1499.6 764L1461.6 761V803.073C1474.6 807.592 1483.38 808.613 1496.05 810.085C1497.2 810.219 1498.38 810.356 1499.6 810.5C1535.39 813.142 1555.1 812.557 1590.22 810V763.086L1499.6 763.5V764ZM1631.22 761.086L1618.1 762L1618.1 762.093L1590.22 763.699V810C1601.25 810.406 1607.17 809.611 1617.6 808C1622.64 807.305 1626.03 806.667 1630.72 803.714L1631.22 761.086Z" fill="#232323"/>
</g>
<path d="M1458.6 824.5C1484.13 818.613 1504 825.803 1509.1 828.5L1498.6 990.5C1488.44 993.944 1433.68 988.29 1434.6 980L1458.6 824.5Z" fill="#999999"/>
<path d="M1498.6 990.5C1538.86 997.048 1557.83 996.421 1591.6 990.5L1582.1 829C1552.65 821.851 1538.3 821.604 1509.1 828.5L1498.6 990.5Z" fill="#515151"/>
<path d="M1582.1 829C1601.89 821.047 1613.1 818.916 1631.1 821.999L1656.1 981.999C1638.82 989.313 1624.11 990.87 1591.6 990.499L1582.1 829Z" fill="#2D2D2D"/>
<path d="M1593.12 601.5H1632.62C1632.62 601.5 1641.69 703.5 1642.12 712.5C1642.55 721.5 1635.6 763.5 1635.6 763.5C1617.14 767.799 1606.38 770.279 1582.6 766L1593.12 601.5Z" fill="#2B2B2B"/>
<path d="M1496.1 601H1593.1L1582.6 766C1548.49 770.896 1532.27 770.942 1506.6 766.5L1496.1 601Z" fill="#515151"/>
<path d="M1454.1 761.5L1432.1 598L1496.6 600.5L1506.6 766.5C1479.08 769.301 1466.16 768.213 1454.1 761.5Z" fill="#B8B8B8"/>
<path d="M1683.6 602.5C1703.2 599.3 1709.76 609.833 1710.6 615.5C1697.4 615.5 1688.76 628.167 1686.1 634.5L1642.1 713L1632.6 601.5C1641.6 602.833 1664 605.7 1683.6 602.5Z" fill="#2D2D2D"/>
<path d="M1536.6 530.5L1545.6 521L1566.1 530L1554.1 531L1536.6 530.5Z" fill="#4D4D4D"/>
<path d="M1556.6 568.5L1566.1 530L1554.1 531L1536.6 530.5L1540.1 568.5H1556.6Z" fill="#2D2D2D"/>
<path d="M1525.1 529L1545.6 521L1536.6 530.5L1525.1 529Z" fill="#999999"/>
<path d="M1540.1 568.5H1534.1L1525.1 529L1536.6 530.5L1540.1 568.5Z" fill="#B8B8B8"/>
<path d="M1496.6 601L1432.1 598L1534.1 568.5H1540.1L1496.6 601Z" fill="#999999"/>
<path d="M1496.1 601.5L1593.1 603L1553.6 568H1540.6L1496.1 601.5Z" fill="#4D4D4D"/>
<path d="M1592.6 602.5L1553.6 568.5H1556.6L1683.1 600L1592.6 602.5Z" fill="#2D2D2D"/>
<path d="M1428.6 786.998C1431.6 785.123 1434.6 764.5 1430.1 763C1428.1 763.002 1425.59 764.498 1425.59 764.498C1432.02 771.999 1422.1 789.998 1422.1 789.998C1422.1 790.998 1422.2 790.999 1428.6 786.998Z" fill="#1A1A1A"/>
<path d="M1400.1 755C1402.64 708.439 1393.93 678.018 1375.1 646.5C1369.03 625.218 1386.64 624.672 1391.63 626.502L1392.6 627C1392.38 626.825 1392.05 626.655 1391.63 626.502L1376.1 618.5L1358.6 624.5L1360.6 656L1391.1 765.5L1417.1 774L1422.1 767.5C1416.76 767.833 1401.6 764.5 1400.1 755Z" fill="#1A1A1A"/>
<path d="M1411.1 586C1436.7 588.996 1474.6 586 1474.6 586L1432.6 598L1439.1 656C1402.1 653 1399.1 633.5 1387.6 625.5C1376.1 617.5 1351.55 621.463 1366.6 651C1387.97 692.952 1393.21 724.5 1390.1 754C1389.36 761 1405.6 771.167 1414.6 771C1423.6 770.833 1422.1 764.5 1426.1 764.5C1430.1 764.5 1426.6 790 1422.1 790.5C1417.6 791 1385.6 784 1382.1 780.5C1378.6 777 1332.6 635.5 1335.1 631C1339.1 620.5 1367.6 584.211 1374.6 582C1385.1 578.685 1398.69 584.548 1411.1 586Z" fill="#2C2C2C"/>
<path d="M1415.6 586.5C1423.1 587 1472.6 586.5 1472.6 586.5L1432.6 598C1432.6 598 1445.1 593 1419.6 590.5C1394.1 588 1398.1 583.5 1398.1 583.5C1398.1 583.5 1408.1 586 1415.6 586.5Z" fill="#BAB3B3"/>
<path d="M1458.86 988.172C1458.86 1004.42 1396.22 1017.59 1318.93 1017.59C1241.64 1017.59 1179 1004.42 1179 988.172C1179 972.318 1238.73 959.346 1313.5 958.787C1315.3 958.787 1317.11 958.787 1318.93 958.787C1371.9 958.787 1418 964.976 1441.76 974.047C1452.66 978.252 1458.86 983.068 1458.86 988.172Z" fill="#FAF8F9"/>
<path d="M1318.93 1004.48C1364.6 1004.48 1401.62 996.923 1401.62 987.596C1401.62 978.269 1364.6 970.708 1318.93 970.708C1273.26 970.708 1236.24 978.269 1236.24 987.596C1236.24 996.923 1273.26 1004.48 1318.93 1004.48Z" fill="#EDEDED"/>
<g style="mix-blend-mode:multiply">
<path d="M1441.76 974.064C1428.8 979.9 1415.37 984.379 1401.65 987.442C1377.7 993.135 1353.29 996.179 1328.79 996.531C1300.21 996.531 1282.01 990.596 1282.01 982.067C1282.01 979.015 1284.37 975.505 1288.9 971.894C1294.21 967.604 1302.51 963.093 1313.59 958.837C1315.4 958.837 1317.2 958.837 1319.02 958.837C1371.9 958.753 1418 964.942 1441.76 974.064Z" fill="#EDEDED"/>
</g>
<path d="M1401.62 876.973V877.498C1401.23 880.093 1397.99 882.585 1392.51 884.722C1380.85 880.11 1352.26 876.973 1318.82 876.973C1285.39 876.973 1256.93 880.093 1245.28 884.603C1239.87 882.433 1236.66 880.008 1236.29 877.431V876.905C1236.29 867.579 1273.32 859.949 1318.98 859.949C1364.63 859.949 1401.62 867.579 1401.62 876.973Z" fill="#EDEDED"/>
<path d="M1392.45 884.654C1378.72 890.08 1350.95 893.81 1318.93 893.81C1303.54 893.885 1288.17 892.928 1272.89 890.945C1263.51 889.889 1254.26 887.764 1245.29 884.603C1255.7 880.567 1279.58 877.6 1308.39 876.973C1311.83 876.973 1315.3 876.973 1318.82 876.973C1352.26 876.973 1380.85 880.11 1392.45 884.654Z" fill="#432918"/>
<path d="M1303.62 882.941C1303.62 887.231 1268.51 881.246 1261.01 885.366C1260.85 885.366 1257.32 888.079 1257.14 888.147C1253.11 887.272 1249.15 886.088 1245.29 884.603C1255.7 880.567 1279.58 877.6 1308.39 876.973C1312.6 877.77 1303.62 879.686 1303.62 882.941Z" fill="#CA9E67"/>
<path d="M1401.57 877.43C1401.38 879.55 1401.2 881.72 1401.03 883.89C1400.94 884.823 1400.86 885.739 1400.8 886.688C1398.67 912.716 1396.66 941.575 1390 962.432C1389.63 963.618 1389.23 964.771 1388.82 965.823C1385.18 975.996 1380.29 983.813 1373.52 988.086C1373.52 995.75 1349.08 1001.97 1318.91 1001.97C1288.75 1001.97 1264.29 995.75 1264.29 988.086C1241.8 973.928 1240.02 919.804 1236.27 877.345C1236.64 879.923 1239.85 882.347 1245.27 884.518C1258.97 889.978 1286.8 893.725 1318.91 893.725C1351.02 893.725 1378.7 889.995 1392.44 884.569C1397.94 882.466 1401.18 880.024 1401.57 877.43Z" fill="#FAF8F9"/>
<path d="M1434.53 930.42C1432.31 954.514 1417 972.556 1400.35 970.691C1398.51 970.488 1396.69 970.038 1394.95 969.351C1392.76 968.546 1390.68 967.404 1388.78 965.96C1389.18 964.824 1389.58 963.671 1389.95 962.569C1391.6 963.916 1393.44 964.974 1395.38 965.705C1396.72 966.234 1398.12 966.575 1399.53 966.723C1413.82 968.317 1427.06 951.615 1429.1 929.419C1431.13 907.223 1421.23 887.961 1406.94 886.367H1406.29C1404.42 886.221 1402.54 886.392 1400.72 886.876C1400.72 885.926 1400.86 885.011 1400.95 884.078C1402.84 883.624 1404.77 883.43 1406.69 883.502C1407.24 883.501 1407.79 883.535 1408.33 883.603C1425.05 885.282 1436.75 906.325 1434.53 930.42Z" fill="#F6F6F6"/>
<g style="mix-blend-mode:multiply">
<path d="M1390.03 962.433C1391.68 963.78 1393.51 964.838 1395.46 965.57L1394.95 969.351C1392.76 968.546 1390.68 967.404 1388.78 965.96C1389.26 964.773 1389.66 963.62 1390.03 962.433Z" fill="#EDEDED"/>
</g>
<g style="mix-blend-mode:multiply">
<path d="M1406.77 883.314L1406.37 886.18C1404.5 886.033 1402.62 886.205 1400.8 886.689C1400.8 885.739 1400.94 884.823 1401.03 883.891C1402.91 883.437 1404.84 883.243 1406.77 883.314Z" fill="#EDEDED"/>
</g>
<g style="mix-blend-mode:lighten" opacity="0.5">
<path d="M1309.43 869.326C1307.67 868.88 1306.01 868.075 1304.53 866.952C1302.87 865.722 1301.55 864.008 1300.72 862.001C1300.28 860.858 1300.06 859.63 1300.06 858.389C1300.06 857.148 1300.28 855.92 1300.72 854.777C1301.57 852.788 1302.84 851.045 1304.41 849.69C1307.22 847.198 1310.1 845.519 1312.71 843.501C1315.35 841.724 1317.53 839.238 1319.05 836.278C1319.73 834.771 1320.14 833.137 1320.26 831.463C1320.34 829.743 1320.14 828.022 1319.69 826.376C1318.76 822.984 1317.36 819.593 1316.51 816.202C1315.61 812.638 1315.13 808.963 1315.07 805.265C1314.97 801.619 1315.16 797.97 1315.66 794.362C1315.67 794.306 1315.68 794.253 1315.71 794.204C1315.74 794.156 1315.77 794.114 1315.81 794.081C1315.86 794.047 1315.9 794.024 1315.95 794.011C1316 793.998 1316.06 793.997 1316.11 794.006C1316.21 794.023 1316.3 794.082 1316.36 794.171C1316.42 794.26 1316.44 794.371 1316.43 794.481C1315.33 801.569 1315.71 808.838 1317.53 815.744C1318.48 819.135 1320.01 822.323 1321.15 825.918C1321.75 827.721 1322.05 829.628 1322.03 831.547C1321.99 833.492 1321.64 835.415 1321 837.228C1319.59 840.747 1317.48 843.875 1314.83 846.384C1312.33 848.927 1309.61 851.115 1307.47 853.404C1306.49 854.352 1305.71 855.506 1305.15 856.795C1304.79 857.89 1304.79 859.092 1305.15 860.186C1305.86 862.594 1308.1 865.053 1310.35 867.732C1310.44 867.826 1310.51 867.939 1310.55 868.062C1310.6 868.186 1310.62 868.319 1310.62 868.452C1310.62 868.586 1310.6 868.719 1310.55 868.843C1310.51 868.966 1310.44 869.079 1310.35 869.173C1310.22 869.285 1310.07 869.358 1309.91 869.385C1309.74 869.412 1309.58 869.391 1309.43 869.326Z" fill="#E0DEDE"/>
</g>
<path opacity="0.5" d="M1321.09 872.243C1319.82 871.385 1318.73 870.23 1317.9 868.858C1317.08 867.487 1316.54 865.933 1316.32 864.307C1316.24 863.456 1316.24 862.598 1316.32 861.747C1316.44 860.89 1316.65 860.052 1316.96 859.254C1317.58 857.801 1318.42 856.467 1319.42 855.304C1321.22 853.208 1322.91 851 1324.47 848.691C1325.92 846.324 1326.84 843.618 1327.15 840.789C1327.16 840.763 1327.16 840.737 1327.17 840.714C1327.19 840.691 1327.2 840.671 1327.22 840.655C1327.24 840.639 1327.26 840.627 1327.28 840.621C1327.31 840.615 1327.33 840.615 1327.36 840.619C1327.4 840.628 1327.44 840.652 1327.47 840.69C1327.5 840.727 1327.51 840.774 1327.51 840.823C1327.34 843.783 1326.61 846.672 1325.37 849.301C1324.18 851.98 1322.4 854.269 1321.15 856.677C1320.56 857.813 1320.17 859.061 1320 860.356C1319.82 861.516 1319.79 862.696 1319.89 863.866C1320.24 866.386 1321.09 868.789 1322.39 870.903C1322.48 871.097 1322.52 871.32 1322.49 871.538C1322.46 871.756 1322.37 871.957 1322.22 872.112C1322.08 872.267 1321.9 872.367 1321.7 872.397C1321.5 872.426 1321.3 872.384 1321.12 872.277L1321.09 872.243Z" fill="#E0DEDE"/>
<path d="M1311.46 848.147C1310.23 849.796 1308.86 851.307 1307.36 852.658C1305.92 854.048 1304.43 855.574 1304.36 857.541C1304.37 859.598 1305.05 861.584 1306.28 863.137C1307.42 864.832 1308.81 866.375 1310.04 868.071C1308.49 866.72 1307.04 865.234 1305.71 863.628C1304.22 861.991 1303.38 859.784 1303.35 857.473C1303.44 856.291 1303.88 855.174 1304.6 854.286C1305.25 853.443 1305.99 852.687 1306.8 852.03C1308.39 850.742 1310 849.538 1311.46 848.147Z" fill="#B3B2B2"/>
<path d="M1320.69 856.082C1320.12 857.277 1319.66 858.532 1319.33 859.829C1318.98 861.085 1318.85 862.404 1318.96 863.712C1319.14 865.018 1319.51 866.284 1320.06 867.46C1320.6 868.664 1321.21 869.834 1321.85 871.004C1321.03 869.992 1320.31 868.89 1319.7 867.714C1319.03 866.517 1318.59 865.185 1318.39 863.797C1318.26 862.389 1318.43 860.969 1318.88 859.643C1319.29 858.35 1319.9 857.146 1320.69 856.082Z" fill="#B3B2B2"/>
<path d="M1316.34 840.62C1317.2 839.689 1317.96 838.654 1318.61 837.534C1319.33 836.496 1319.85 835.308 1320.15 834.041C1320.41 832.754 1320.54 831.441 1320.55 830.124C1320.58 828.798 1320.42 827.476 1320.07 826.207C1320.54 827.45 1320.79 828.779 1320.81 830.124C1320.85 831.467 1320.74 832.811 1320.49 834.126C1320.19 835.447 1319.63 836.68 1318.85 837.737C1318.15 838.829 1317.3 839.801 1316.34 840.62Z" fill="#B3B2B2"/>
</g>
<defs>
<clipPath id="clip0_106_27721">
<rect width="2160" height="1080" fill="white"/>
</clipPath>
</defs>
</svg>
