<svg width="376" height="475" viewBox="0 0 376 475" fill="none" xmlns="http://www.w3.org/2000/svg">
<path d="M33.5 123L28 79L119 81L33.5 123Z" fill="#0D0D0D"/>
<path d="M241 292C247.435 295.651 249.447 298.323 252 303.5L202 310.5L127 315.5L79.5 301C81.378 296.818 83.8251 294.544 88.5 290.5L241 292Z" fill="#3B3B3B"/>
<path d="M117.481 80.5H77.9812C77.9812 80.5 68.9127 182.5 68.4812 191.5C68.0497 200.5 75 242.5 75 242.5C93.462 246.799 104.219 249.279 128 245L117.481 80.5Z" fill="#0D0D0D"/>
<path d="M214.5 80H117.5L128 245C162.108 249.896 178.329 249.942 204 245.5L214.5 80Z" fill="#515151"/>
<path d="M256.5 240.5L278.5 77L214 79.5L204 245.5C231.518 248.301 244.437 247.213 256.5 240.5Z" fill="#D9D9D9"/>
<path d="M27 81.5C7.4 78.3 0.833333 88.8334 0 94.5C13.2 94.5 21.8333 107.167 24.5 113.5L68.5 192L78 80.5C69 81.8333 46.6 84.7 27 81.5Z" fill="#1C1C1C"/>
<path d="M174 9.5L165 0L144.5 9L156.5 10L174 9.5Z" fill="#4D4D4D"/>
<path d="M154 47.5L144.5 9L156.5 10L174 9.5L170.5 47.5H154Z" fill="#181818"/>
<path d="M185.5 8L165 0L174 9.5L185.5 8Z" fill="#D9D9D9"/>
<path d="M170.5 47.5H176.5L185.5 8L174 9.5L170.5 47.5Z" fill="#D9D9D9"/>
<path d="M214 80L278.5 77L176.5 47.5H170.5L214 80Z" fill="#D9D9D9"/>
<path d="M214.5 80.5L117.5 82L157 47H170L214.5 80.5Z" fill="#4D4D4D"/>
<path d="M118 81.5L157 47.5H154L27.5 79L118 81.5Z" fill="#181818"/>
<path d="M282 265.998C279 264.123 275.999 243.5 280.5 242C282.496 242.002 285.004 243.498 285.004 243.498C278.575 250.999 288.5 268.998 288.5 268.998C288.5 269.998 288.399 269.999 282 265.998Z" fill="#090909"/>
<path d="M310.5 234C307.954 187.439 316.67 157.018 335.5 125.5C341.565 104.218 323.96 103.672 318.966 105.502L318 106C318.22 105.825 318.549 105.655 318.966 105.502L334.5 97.5L352 103.5L350 135L319.5 244.5L293.5 253L288.5 246.5C293.833 246.833 309 243.5 310.5 234Z" fill="#090909"/>
<path d="M299.5 65.0001C273.9 67.9963 236 65.0001 236 65.0001L278 77L271.5 135C308.5 132 311.5 112.5 323 104.5C334.5 96.5 359.045 100.463 344 130C322.631 171.952 317.389 203.5 320.5 233C321.238 240 305 250.167 296 250C287 249.833 288.5 243.5 284.5 243.5C280.5 243.5 284 269 288.5 269.5C293 270 325 263 328.5 259.5C332 256 378 114.5 375.5 110C371.5 99.4999 343 63.2106 336 61.0002C325.5 57.6846 311.903 63.5484 299.5 65.0001Z" fill="#2C2C2C"/>
<path d="M295 65.5C287.5 66 238 65.5 238 65.5L278 77C278 77 265.5 72 291 69.5C316.5 67 312.5 62.5 312.5 62.5C312.5 62.5 302.5 65 295 65.5Z" fill="#989898"/>
<path d="M87.5 293.5C89.0334 288.978 88.658 288.944 87.5 284.5L240 282C238.737 292.194 238.172 286.381 240 296C175.158 303.595 142.077 302.516 87.5 293.5Z" fill="#1C1C1C"/>
<path d="M252 303.5C226.465 297.613 206.594 304.803 201.5 307.5L212 469.5C222.154 472.944 276.913 467.29 276 459L252 303.5Z" fill="#D9D9D9"/>
<path d="M92.5 241L79.375 240.086L79.875 282.714C84.5697 285.667 87.9619 286.305 93 287L92.5 241Z" fill="#0D0D0D"/>
<path d="M120.375 242.699L92.375 241.086L93 287C103.426 288.611 109.348 289.406 120.375 289V242.699Z" fill="#1C1C1C"/>
<path d="M211 242.5L120.375 242.086V289C155.494 291.557 175.212 292.142 211 289.5V242.5Z" fill="#515151"/>
<path d="M249 240L211 243V289.5C225.656 287.77 234.823 287.002 249 282.073V240Z" fill="#D9D9D9"/>
<g style="mix-blend-mode:darken" opacity="0.32">
<path fill-rule="evenodd" clip-rule="evenodd" d="M211 243L249 240V282.073C236.002 286.592 227.215 287.613 214.548 289.085C213.399 289.219 212.218 289.356 211 289.5C175.212 292.142 155.494 291.557 120.375 289V242.086L211 242.5V243ZM79.375 240.086L92.5 241L92.501 241.093L120.375 242.699V289C109.348 289.406 103.426 288.611 93 287C87.9619 286.305 84.5697 285.667 79.875 282.714L79.375 240.086Z" fill="#0D0D0D"/>
</g>
<path d="M212 469.5C171.735 476.048 152.772 475.421 119 469.5L128.5 308C157.952 300.851 172.297 300.604 201.5 307.5L212 469.5Z" fill="#515151"/>
<path d="M128.5 308C108.704 300.047 97.495 297.916 79.5 300.999L54.5 460.999C71.7789 468.313 86.4895 469.87 119 469.499L128.5 308Z" fill="#0D0D0D"/>
</svg>
