<svg width="1080" height="1080" viewBox="0 0 1080 1080" fill="none" xmlns="http://www.w3.org/2000/svg">
<g clip-path="url(#clip0_100_22434)">
<rect width="1080" height="1080" fill="white"/>
<mask id="mask0_100_22434" style="mask-type:luminance" maskUnits="userSpaceOnUse" x="0" y="0" width="2160" height="1080">
<path d="M2160 0H0V1080H2160V0Z" fill="white"/>
</mask>
<g mask="url(#mask0_100_22434)">
<path d="M1835.52 -1.37988H327.52V892.62H1835.52V-1.37988Z" fill="#222B10"/>
<path d="M753.97 -2.72998H663.95V892.56H753.97V-2.72998Z" fill="#B0C3A2"/>
<path d="M934 -2.72998H843.98V892.56H934V-2.72998Z" fill="#B0C3A2"/>
<path d="M1114.04 -2.72998H1024.02V892.56H1114.04V-2.72998Z" fill="#B0C3A2"/>
<path d="M393.9 -3.41992H303.88V892.24H393.9V-3.41992Z" fill="#B0C3A2"/>
<path d="M573.93 -3.41992H483.91V892.24H573.93V-3.41992Z" fill="#B0C3A2"/>
<path d="M2158.52 1045.27V1079.24H-1.47998L-0.83998 1078.86L36.33 1056.94L36.41 1056.89L53.41 1046.87L53.5 1046.82L315.54 892.26L315.57 892.24H1835.34L1835.38 892.26L2158.37 1045.2H2158.38L2158.52 1045.27Z" fill="#222B10"/>
<path d="M754.64 892.26L652.25 1079.24H521.96L664.68 892.26H754.64Z" fill="#B0C3A2"/>
<path d="M934.57 892.26L912.85 1079.24H782.54L844.6 892.26H934.57Z" fill="#B0C3A2"/>
<path d="M1173.44 1079.24H1043.14L1024.53 892.26H1114.49L1173.44 1079.24Z" fill="#B0C3A2"/>
<path d="M394.79 892.26L131.06 1079.24H0.77002L1.38002 1078.86L48.59 1049.83L53.41 1046.87L53.5 1046.82L304.83 892.26H394.79Z" fill="#B0C3A2"/>
<path d="M574.72 892.26L391.65 1079.24H261.36L484.75 892.26H574.72Z" fill="#B0C3A2"/>
<g style="mix-blend-mode:darken" opacity="0.08">
<path d="M2160.94 1045.32V1079.29H0.939941L1.57994 1078.91L38.7499 1056.99L38.8299 1056.94L55.8299 1046.92L55.9099 1046.87L317.96 892.31L317.99 892.29H1837.76L1837.8 892.31L2160.79 1045.25H2160.8L2160.94 1045.32Z" fill="black"/>
</g>
<path d="M-2.41992 1079.62V1080L-1.75992 1079.62L314.11 896.22L320.58 892.46L320.79 557.5L321.13 -0.379815L320.88 -0.489815L318.92 -1.30981L-2.15992 -0.309815L-2.40992 1045.55V1051.45L-2.41992 1079.62Z" fill="#222B10"/>
<mask id="mask1_100_22434" style="mask-type:luminance" maskUnits="userSpaceOnUse" x="-3" y="-11" width="324" height="1091">
<path d="M-2.41992 -9.62989V1080L-1.75992 1079.62L320.73 892.06V890.95L320.79 553.34L320.88 -9.08989V-9.69989L320.14 -10.0099L318.67 -10.6399L119.59 -10.0099L-2.41992 -9.62989Z" fill="white"/>
</mask>
<g mask="url(#mask1_100_22434)">
<path d="M145.31 1087.32H235.08L235.08 -1.0498H145.31L145.31 1087.32Z" fill="#B0C3A2"/>
<path d="M-34.22 1087.32H55.55L55.55 -1.0498H-34.22L-34.22 1087.32Z" fill="#B0C3A2"/>
</g>
<g style="mix-blend-mode:darken" opacity="0.06">
<path d="M-2.41992 1079.62V1080L-1.75992 1079.62L314.11 896.22L320.58 892.46L320.79 557.5L321.13 -0.379815L320.88 -0.489815L318.92 -1.30981L-2.15992 -0.309815L-2.40992 1045.55V1051.45L-2.41992 1079.62Z" fill="black"/>
</g>
</g>
</g>
<defs>
<clipPath id="clip0_100_22434">
<rect width="1080" height="1080" fill="white"/>
</clipPath>
</defs>
</svg>
