<svg width="2160" height="1080" viewBox="0 0 2160 1080" fill="none" xmlns="http://www.w3.org/2000/svg">
<g clip-path="url(#clip0_106_26455)">
<mask id="mask0_106_26455" style="mask-type:luminance" maskUnits="userSpaceOnUse" x="0" y="0" width="2160" height="1080">
<path d="M2160 0H0V1080H2160V0Z" fill="white"/>
</mask>
<g mask="url(#mask0_106_26455)">
<path d="M1835.52 -1.37988H327.52V892.62H1835.52V-1.37988Z" fill="#212121"/>
<path d="M753.97 -2.72998H663.95V892.56H753.97V-2.72998Z" fill="#212121"/>
<path d="M934 -2.72998H843.98V892.56H934V-2.72998Z" fill="#212121"/>
<path d="M1114.04 -2.72998H1024.02V892.56H1114.04V-2.72998Z" fill="#212121"/>
<path d="M1294.07 -2.72998H1204.05V892.56H1294.07V-2.72998Z" fill="#212121"/>
<path d="M1474.11 -2.72998H1384.09V892.56H1474.11V-2.72998Z" fill="#212121"/>
<path d="M1654.14 -2.72998H1564.12V892.56H1654.14V-2.72998Z" fill="#212121"/>
<path d="M1838 -3H1744V893H1838V-3Z" fill="#212121"/>
<path d="M393.9 -3.41992H303.88V892.24H393.9V-3.41992Z" fill="#212121"/>
<path d="M573.93 -3.41992H483.91V892.24H573.93V-3.41992Z" fill="#212121"/>
<path d="M2158.52 1045.27V1079.24H-1.47998L-0.83998 1078.86L36.33 1056.94L36.41 1056.89L53.41 1046.87L53.5 1046.82L315.54 892.26L315.57 892.24H1835.34L1835.38 892.26L2158.37 1045.2H2158.38L2158.52 1045.27Z" fill="#1D1D1D"/>
<path d="M754.64 892.26L652.25 1079.24H521.96L664.68 892.26H754.64Z" fill="#1D1D1D"/>
<path d="M934.57 892.26L912.85 1079.24H782.54L844.6 892.26H934.57Z" fill="#1D1D1D"/>
<path d="M1173.44 1079.24H1043.14L1024.53 892.26H1114.49L1173.44 1079.24Z" fill="#1D1D1D"/>
<path d="M1434.03 1079.24H1303.73L1204.45 892.26H1294.42L1434.03 1079.24Z" fill="#1D1D1D"/>
<path d="M1694.62 1079.24H1564.33L1384.38 892.26H1474.34L1694.62 1079.24Z" fill="#1D1D1D"/>
<path d="M1955.22 1079.24H1824.93L1564.3 892.26H1654.27L1955.22 1079.24Z" fill="#1D1D1D"/>
<path d="M2158.52 1051.17V1079.24H2158.38V1079.62L2157.72 1079.24H2085.51L1744.23 892.26H1834.19L1835.23 892.77L1841.85 896.01L2158.37 1051.1H2158.38L2158.52 1051.17Z" fill="#1D1D1D"/>
<path d="M394.79 892.26L131.06 1079.24H0.77002L1.38002 1078.86L48.59 1049.83L53.41 1046.87L53.5 1046.82L304.83 892.26H394.79Z" fill="#1D1D1D"/>
<path d="M574.72 892.26L391.65 1079.24H261.36L484.75 892.26H574.72Z" fill="#1D1D1D"/>
<g style="mix-blend-mode:lighten" opacity="0.06">
<path d="M2160.94 1045.32V1079.29H0.939941L1.57994 1078.91L38.7499 1056.99L38.8299 1056.94L55.8299 1046.92L55.9099 1046.87L317.96 892.31L317.99 892.29H1837.76L1837.8 892.31L2160.79 1045.25H2160.8L2160.94 1045.32Z" fill="white"/>
</g>
<path d="M2158.38 1079.62V1080L2157.72 1079.62L1841.85 896.22L1835.38 892.46L1835.17 557.5L1834.83 -0.379815L1835.08 -0.489815L1837.04 -1.30981L2158.12 -0.309815L2158.37 1045.55V1051.45L2158.38 1079.62Z" fill="#1D1D1D"/>
<mask id="mask1_106_26455" style="mask-type:luminance" maskUnits="userSpaceOnUse" x="1835" y="-11" width="324" height="1091">
<path d="M2158.38 -9.62989V1080L2157.72 1079.62L1835.23 892.06V890.95L1835.17 553.34L1835.08 -9.08989V-9.69989L1835.82 -10.0099L1837.29 -10.6399L2036.37 -10.0099L2158.38 -9.62989Z" fill="white"/>
</mask>
<g mask="url(#mask1_106_26455)">
<path d="M2010.66 -1.05981H1920.89V1087.31H2010.66V-1.05981Z" fill="#1D1D1D"/>
<path d="M2190.2 -1.05981H2100.43V1087.31H2190.2V-1.05981Z" fill="#1D1D1D"/>
</g>
<g style="mix-blend-mode:darken" opacity="0.04">
<path d="M2158.38 1079.62V1080L2157.72 1079.62L1841.85 896.22L1835.38 892.46L1835.17 557.5L1834.83 -0.379815L1835.08 -0.489815L1837.04 -1.30981L2158.12 -0.309815L2158.37 1045.55V1051.45L2158.38 1079.62Z" fill="white"/>
</g>
<path d="M-2.41992 1079.62V1080L-1.75992 1079.62L314.11 896.22L320.58 892.46L320.79 557.5L321.13 -0.379815L320.88 -0.489815L318.92 -1.30981L-2.15992 -0.309815L-2.40992 1045.55V1051.45L-2.41992 1079.62Z" fill="#1D1D1D"/>
<mask id="mask2_106_26455" style="mask-type:luminance" maskUnits="userSpaceOnUse" x="-3" y="-11" width="324" height="1091">
<path d="M-2.41992 -9.62989V1080L-1.75992 1079.62L320.73 892.06V890.95L320.79 553.34L320.88 -9.08989V-9.69989L320.14 -10.0099L318.67 -10.6399L119.59 -10.0099L-2.41992 -9.62989Z" fill="white"/>
</mask>
<g mask="url(#mask2_106_26455)">
<path d="M145.31 1087.32H235.08L235.08 -1.0498H145.31L145.31 1087.32Z" fill="#1D1D1D"/>
<path d="M-34.22 1087.32H55.55L55.55 -1.0498H-34.22L-34.22 1087.32Z" fill="#1D1D1D"/>
</g>
<g style="mix-blend-mode:darken" opacity="0.04">
<path d="M-2.41992 1079.62V1080L-1.75992 1079.62L314.11 896.22L320.58 892.46L320.79 557.5L321.13 -0.379815L320.88 -0.489815L318.92 -1.30981L-2.15992 -0.309815L-2.40992 1045.55V1051.45L-2.41992 1079.62Z" fill="white"/>
</g>
</g>
<path d="M1777.27 596.147V652.296H1687.84L1679.92 769.434C1678.31 789.958 1677.58 807.698 1677.58 822.505C1677.58 858.423 1681.83 880.267 1690.18 888.184C1698.69 896.1 1708.66 900.059 1720.24 900.059C1745.01 900.059 1759.82 884.519 1764.51 853.292H1778C1769.06 924.542 1740.47 960.167 1692.53 960.167C1669.81 960.167 1651.63 953.276 1637.85 939.642C1624.06 926.008 1617.32 905.336 1617.32 877.921C1617.32 868.978 1617.91 854.904 1619.23 835.992C1620.55 817.08 1622.45 793.037 1625.24 764.009L1635.5 652.443H1553.99C1551.35 699.943 1548.27 740.552 1544.9 774.418C1541.53 808.137 1537.86 836.139 1534.2 858.276C1527.31 901.085 1518.95 928.94 1508.83 942.134C1499.89 954.302 1487.43 960.313 1471.6 960.313C1460.01 960.313 1450.04 956.941 1441.98 950.051C1433.77 943.16 1429.67 934.218 1429.67 923.076C1429.67 911.934 1436.56 897.273 1450.19 878.801C1470.28 851.826 1485.52 823.384 1496.08 793.33C1501.36 778.523 1505.9 759.464 1509.57 735.861C1513.23 712.404 1516.46 684.549 1519.1 652.296H1492.12C1471.01 652.296 1454.88 656.988 1443.89 666.517C1432.89 676.046 1422.19 689.534 1412.22 706.833H1398C1405.92 679.418 1415.74 656.694 1427.32 638.809C1438.9 621.363 1451.07 609.781 1463.68 603.917C1475.85 598.639 1497.98 596 1530.24 596H1777.27V596.147Z" fill="#FFFDF9"/>
<path d="M619.466 1009.68C735.377 1014.03 830.452 987.633 831.82 950.751C833.188 913.869 740.335 880.443 624.344 876.099C598.024 875.044 571.663 875.666 545.421 877.963C494.94 882.57 453.932 893.537 431.273 908.422C419.279 916.298 412.441 925.271 412.084 934.981C410.686 971.911 503.539 1005.34 619.466 1009.68Z" fill="#FAF8F9"/>
<path d="M476.572 931.75C465.979 958.545 529.898 985.802 620.022 989.502C709.479 993.119 775.031 971.447 767.91 944.253C761.559 920.034 698.338 899.572 625.707 896.339C552.616 893.083 486.064 907.95 476.572 931.75Z" fill="#EDEDED"/>
<g style="mix-blend-mode:multiply">
<path d="M545.421 877.964L550.866 880.884L567.087 889.566L570.465 891.38L570.576 891.378L580.185 896.542L582.698 897.879L586.061 899.677L593.843 903.842L597.222 905.655L629.634 923.117L631.444 924.085L633.502 925.621L694.033 968.292L696.892 970.322C702.081 973.978 703.354 976.77 699.553 976.094L485.684 937.496C483.03 936.864 480.484 935.839 478.129 934.457L476.063 933.318L462.111 925.627L431.244 908.55C453.901 893.585 494.91 882.619 545.421 877.964Z" fill="#EDEDED"/>
<path d="M484.801 922.545L484.768 922.513L484.8 922.512L484.801 922.545Z" fill="#BF9D72"/>
<path d="M462.031 927.235L462.121 925.309L462.047 927.235L462.031 927.235Z" fill="#BF9D72"/>
</g>
<path d="M504.634 870.363L504.933 886.264C504.951 886.859 505.088 887.445 505.335 887.987C505.582 888.528 505.934 889.015 506.371 889.418L516.502 898.772C516.904 899.124 517.235 899.55 517.476 900.026L540.864 945.908C541.186 946.52 541.643 947.05 542.2 947.459C542.757 947.867 543.4 948.143 544.078 948.266L699.738 977.522C700.39 977.644 701.061 977.619 701.703 977.449C702.344 977.279 702.939 976.968 703.446 976.538C703.952 976.108 704.357 975.57 704.63 974.964C704.904 974.358 705.04 973.698 705.028 973.032L704.998 971.442L670.619 960.683C668.462 960.013 666.177 959.87 663.954 960.267L658.946 961.188L652.532 962.343C651.26 962.569 649.949 962.394 648.781 961.84L633.088 953.418L628.605 954.409L619.779 954.575C615.078 954.658 610.507 953.025 606.916 949.981L606.352 949.498L604.37 947.786C603.22 946.795 601.751 946.257 600.236 946.272L585.388 946.551C584.207 946.573 583.03 946.424 581.892 946.108L570.212 942.876C569.332 942.633 568.423 942.517 567.511 942.529L564.341 942.588C561.576 942.641 558.832 942.101 556.291 941.005L543.327 935.268L530.67 896.884L526.81 888.064L526.807 887.905L518.432 857.219C517.965 857.216 517.503 857.133 517.064 856.974L513.698 855.812C513.128 855.614 512.525 855.533 511.924 855.574C511.323 855.615 510.736 855.778 510.2 856.053C509.663 856.327 509.187 856.708 508.801 857.172C508.414 857.635 508.125 858.173 507.951 858.752L504.972 868.925C504.78 869.382 504.666 869.868 504.634 870.363Z" fill="#B2926B"/>
<path d="M526.714 887.971L524.876 881.26L655.961 855.447L652.768 849.144C648.88 843.029 650.357 835.573 650.45 834.633L650.774 827.405C650.908 826.314 650.642 825.211 650.023 824.303C649.405 823.395 648.478 822.744 647.416 822.473L643.739 821.636C642.971 821.451 642.169 821.466 641.409 821.679L638.635 822.543L623.065 827.385C622.41 827.593 621.716 827.644 621.038 827.534L608.986 825.597C608.319 825.494 607.636 825.543 606.99 825.739C606.343 825.936 605.749 826.275 605.251 826.733L593.954 837.157C593.483 837.592 592.923 837.92 592.314 838.118C591.705 838.316 591.061 838.38 590.425 838.305L573.506 836.38C572.748 836.297 571.98 836.41 571.277 836.708L553.884 844.066C553.639 844.167 553.386 844.246 553.127 844.303L528.82 849.866C528.023 850.053 527.292 850.451 526.701 851.019L521.58 855.998C521.196 856.448 520.709 856.797 520.161 857.015C519.612 857.233 519.019 857.314 518.433 857.251C507.731 854.636 517.939 860.521 512.658 871.325C524.876 881.26 524.989 887.271 526.714 887.971Z" fill="#CEA97B"/>
<path d="M524.09 878.237C522.558 881.081 526.157 882.795 526.748 888.129L572.48 900.759L572.783 900.849L597.45 907.671L598.82 908.043L642.337 920.063L646.687 921.253L655.898 923.816L656.056 923.813L656.215 923.81L656.613 923.914L656.74 923.912L704.209 937.018C704.311 937.402 704.366 937.796 704.373 938.192L704.352 937.063L703.926 936.308L696.033 922.888L695.214 921.487L693.316 918.341L692.498 916.941L689.518 911.907L688.699 910.507L684.737 903.789L679.398 894.711L676.893 890.447L673.291 884.343L667.101 873.817L666.545 872.873L663.45 867.618L658.996 860.067L654.788 852.908L640.415 855.691L620.577 859.532L615.097 860.605L599.792 863.565L581.264 867.094L576.194 868.08L561.253 870.969L543.77 874.432L537.941 875.559C536.694 875.837 524.488 877.498 524.09 878.237Z" fill="#5A1C27"/>
<path d="M526.748 888.129L543.327 935.268L556.415 940.892C558.957 941.987 561.701 942.527 564.466 942.475L567.635 942.415C568.548 942.403 569.457 942.52 570.337 942.762L582.017 945.994C583.155 946.31 584.332 946.459 585.513 946.438L600.361 946.159C601.876 946.143 603.345 946.681 604.495 947.672L606.477 949.384L607.04 949.867C610.592 952.901 615.114 954.55 619.777 954.511L631.662 954.288C632.554 954.263 633.438 954.454 634.241 954.844L637.248 956.283L648.815 961.919C649.983 962.473 651.293 962.648 652.565 962.422L658.979 961.267L663.987 960.346C666.21 959.949 668.495 960.092 670.652 960.762L704.998 971.458L704.376 938.336C704.369 937.939 704.314 937.545 704.211 937.162L526.748 888.129Z" fill="#6E141E"/>
<path d="M591.659 936.937C596.434 937.961 581.323 937.736 581.022 920.053C580.966 917.063 576.625 921.392 574.714 921.762C572.042 927.237 580.483 934.379 577.019 938.182C575.841 939.573 580.502 934.57 591.659 936.937Z" fill="#5A1C27"/>
<path d="M611.402 941.577C612.711 940.375 608.001 936.869 608.484 932.215C608.753 929.617 613.465 929.02 614.144 927.209C615.125 924.55 611.91 927.251 604.772 918.573C601.528 914.609 604.535 923.683 597.619 930.144C595.889 931.768 604.838 933.047 602.7 936.523C596.501 946.581 610.311 942.568 611.402 941.577Z" fill="#5A1C27"/>
<path d="M638.495 948.433C633.708 946.774 634.554 947.044 630.919 944.265C629.23 942.976 631.543 947.116 629.916 948.276C622.094 953.768 636.269 948.905 639.072 952.145C642.265 955.887 640.713 949.203 638.495 948.433Z" fill="#5A1C27"/>
<path d="M570.709 907.712C567.228 911.42 567.833 910.741 563.816 912.948C561.965 913.969 566.681 913.53 567.035 915.496C568.797 924.912 570.227 909.916 574.294 908.694C579.024 907.317 572.311 906.091 570.709 907.712Z" fill="#5A1C27"/>
<path d="M636.898 926.686C633.109 930.05 633.78 929.449 629.565 931.262C627.616 932.11 632.355 932.116 632.552 934.117C633.491 943.644 636.241 928.83 640.363 928.005C645.21 926.992 638.66 925.126 636.898 926.686Z" fill="#5A1C27"/>
<path d="M661.677 937.817C660.877 936.592 663.039 938.571 665.008 935.4C668.578 929.639 663.312 943.831 666.93 948.249C669.493 951.382 675.56 951.984 673.964 952.237C667.452 953.234 669.094 957.1 665.393 955.865C660.047 954.009 666.131 944.558 661.677 937.817Z" fill="#5A1C27"/>
<path d="M538.72 909.426C537.351 909.977 539.728 908.23 537.064 905.671C532.142 900.992 544.973 908.991 549.996 906.303C553.558 904.391 555.351 898.552 555.27 900.16C554.982 906.766 559.087 905.91 557.138 909.319C554.282 914.224 546.224 906.374 538.72 909.426Z" fill="#5A1C27"/>
<path d="M553.933 916.744C553.308 915.547 550.052 915.226 548.066 916.663C542.808 920.309 549.11 932.551 549.949 932.535C550.472 932.525 548.265 927.254 551.323 921.279C553.314 917.583 554.591 918.004 553.933 916.744Z" fill="#5A1C27"/>
<path d="M688.587 955.175C689.509 956.16 692.714 955.479 694.233 953.622C698.293 948.662 688.846 938.595 688.027 938.881C687.523 939.065 691.125 943.484 689.823 950.093C688.966 954.261 687.6 954.144 688.587 955.175Z" fill="#5A1C27"/>
<path d="M636.581 944.428C636.264 944.434 636.853 946.221 636.041 946.029C635.229 945.838 637.533 947.003 638.762 946.614C638.292 946.394 637.846 946.125 637.431 945.812C636.676 945.254 636.835 944.455 636.581 944.428Z" fill="#C98790"/>
<path d="M615.028 932.076C615.278 931.88 613.597 930.974 614.285 930.499C614.974 930.025 612.532 930.85 611.935 931.975C612.449 931.81 612.978 931.693 613.514 931.627C614.384 931.547 614.825 932.239 615.028 932.076Z" fill="#C98790"/>
<path d="M671.811 939.758C672.061 939.563 670.38 938.672 671.068 938.182C671.757 937.692 669.331 938.533 668.718 939.658C669.235 939.5 669.763 939.384 670.297 939.31C671.262 939.228 671.688 939.92 671.811 939.758Z" fill="#C98790"/>
<path d="M585.511 924.439C585.332 924.171 584.333 925.829 583.939 925.104C583.545 924.38 584.194 926.865 585.284 927.545C585.148 927.025 585.059 926.495 585.017 925.959C584.952 925.053 585.658 924.658 585.511 924.439Z" fill="#C98790"/>
<path d="M556.281 921.933C556.531 921.738 554.834 920.847 555.522 920.357C556.211 919.867 553.785 920.707 553.173 921.848C553.688 921.686 554.216 921.564 554.751 921.485C555.637 921.404 556.062 922.096 556.281 921.933Z" fill="#C98790"/>
<path d="M546.706 902.5C546.472 902.711 548.184 903.538 547.497 904.076C546.809 904.614 549.233 903.661 549.814 902.521C549.297 902.689 548.77 902.821 548.236 902.917C547.365 902.997 546.909 902.321 546.706 902.5Z" fill="#C98790"/>
<path d="M615.006 855.739L620.562 859.564L629.058 865.433L638.613 872.014L645.294 876.629L645.31 876.628L659.668 886.539L667.506 891.959L673.014 895.753L684.722 903.821L679.383 894.743L676.878 890.479L673.276 884.375L667.086 873.849L665.866 873.013L665.85 873.013L659.09 868.416L649.36 861.822L640.4 855.723L637.285 853.619L615.006 855.739Z" fill="#BF9D72"/>
<path d="M724.376 912.763L724.409 912.795L724.408 912.763L724.376 912.763Z" fill="#CEA97B"/>
<path d="M614.841 860.466L615.082 860.637L623.481 866.428L633.004 872.994L639.701 877.608L653.963 887.457L661.8 892.846L667.292 896.64L689.471 911.955L689.519 911.986L689.503 911.939L684.721 903.821L673.014 895.753L667.505 891.959L659.668 886.539L645.31 876.628L645.294 876.628L638.613 872.014L629.058 865.433L620.562 859.563L615.005 855.739L614.841 860.466Z" fill="#B2926B"/>
<path d="M575.74 863.317L656.262 919.546L677.459 917.176L594.381 859.88L575.74 863.317Z" fill="#BF9D72"/>
<path d="M656.058 923.925L677.271 921.554L677.458 917.176L656.262 919.546L656.058 923.925Z" fill="#CEA97B"/>
<path d="M575.537 867.695L575.74 863.316L656.262 919.546L656.059 923.925L575.537 867.695Z" fill="#B2926B"/>
<path d="M597.544 907.606L608.086 905.944L608.434 905.89L612.59 905.239L626.23 903.09L631.525 902.275L651.329 899.151L667.292 896.64L673.014 895.753L679.383 894.743L676.878 890.479L667.505 891.959L661.8 892.846L645.836 895.357L626.08 898.464L626.064 898.464L620.785 899.295L606.924 901.48L597.709 902.91L597.711 902.989L597.697 903.085L597.544 907.606Z" fill="#CEA97B"/>
<path d="M581.546 903.229L597.544 907.605L597.709 902.91L582.004 898.926L581.546 903.229Z" fill="#B2926B"/>
<path d="M582.005 898.926L589.443 900.822L589.475 900.822L593.536 901.859L593.648 901.889L597.709 902.91L606.924 901.48L620.785 899.295L626.064 898.464L626.08 898.464L645.836 895.357L661.8 892.846L667.506 891.959L676.878 890.479L673.276 884.375L659.668 886.539L653.963 887.458L638.047 889.984L618.418 893.12L613.14 893.967L599.026 896.204L582.463 898.854L582.368 898.871L582.005 898.926Z" fill="#BF9D72"/>
<path d="M537.852 869.977L572.871 896.25L617.583 908.565L556.39 867.832L537.852 869.977Z" fill="#BF9D72"/>
<path d="M572.77 900.976L617.414 913.086L617.516 908.36L572.871 896.25L572.77 900.976Z" fill="#B2926B"/>
<path d="M537.957 875.558L537.852 869.977L572.871 896.25L572.77 900.976L537.957 875.558Z" fill="#B2926B"/>
<path d="M548.553 893.637L559.976 891.625L565.443 890.663L585.429 887.154L599.791 884.641L604.958 883.733L624.091 880.367L639.701 877.608L645.294 876.628L645.31 876.628L665.85 873.013L665.865 873.013L666.529 872.905L663.435 867.65L659.09 868.416L638.613 872.014L633.004 872.994L617.394 875.753L598.324 879.101L593.158 880.01L578.543 882.575L559.172 885.977L553.563 886.957L548.65 887.829L548.553 893.637Z" fill="#CEA97B"/>
<path d="M529.038 888.499L548.553 893.637L548.65 887.829L529.508 883.162L529.038 888.499Z" fill="#B2926B"/>
<path d="M529.508 883.162L548.65 887.829L553.563 886.957L559.172 885.977L578.527 882.575L578.543 882.575L593.158 880.01L598.324 879.101L617.394 875.753L633.004 872.994L638.613 872.014L659.09 868.416L663.435 867.65L658.997 860.098L649.36 861.822L629.058 865.433L623.481 866.428L607.903 869.202L588.992 872.58L583.825 873.488L568.895 876.155L550.458 879.428L544.675 880.459L529.508 883.162Z" fill="#BF9D72"/>
<path d="M661.76 925.361L695.201 921.631L693.317 918.405L692.499 917.021L662.064 920.408L661.76 925.361Z" fill="#CEA97B"/>
<path d="M642.309 920.254L661.76 925.36L662.064 920.408L642.985 915.724L642.309 920.254Z" fill="#B2926B"/>
<path d="M642.985 915.723L662.064 920.408L692.499 917.02L689.519 911.986L689.503 911.939L688.684 910.538L642.985 915.723Z" fill="#BF9D72"/>
</g>
<defs>
<clipPath id="clip0_106_26455">
<rect width="2160" height="1080" fill="white"/>
</clipPath>
</defs>
</svg>
