<svg width="424" height="198" viewBox="0 0 424 198" fill="none" xmlns="http://www.w3.org/2000/svg">
<path d="M209.784 192.513C325.695 196.858 420.77 170.464 422.138 133.582C423.506 96.6994 330.652 63.2731 214.662 58.9298C188.341 57.8744 161.98 58.497 135.739 60.794C85.2577 65.4007 44.2489 76.3673 21.5908 91.2523C9.59627 99.1289 2.75829 108.102 2.40171 117.812C1.0029 154.742 93.8568 188.168 209.784 192.513Z" fill="#FAF8F9"/>
<path d="M66.8898 114.58C56.2967 141.375 120.216 168.632 210.34 172.332C299.796 175.949 365.349 154.277 358.228 127.083C351.876 102.864 288.655 82.4025 216.025 79.1696C142.934 75.9135 76.3818 90.7798 66.8898 114.58Z" fill="#EDEDED"/>
<g style="mix-blend-mode:multiply">
<path d="M135.739 60.794L141.183 63.714L157.404 72.3968L160.783 74.2104L160.894 74.2083L170.502 79.3726L173.016 80.7092L176.379 82.5072L184.161 86.6718L187.54 88.4854L219.952 105.947L221.761 106.915L223.819 108.451L284.35 151.122L287.21 153.152C292.399 156.809 293.672 159.6 289.871 158.924L76.0017 120.326C73.3474 119.694 70.8013 118.67 68.4467 117.287L66.3805 116.149L52.429 108.457L21.5618 91.3802C44.2183 76.4156 85.2272 65.449 135.739 60.794Z" fill="#EDEDED"/>
<path d="M75.1185 105.375L75.0858 105.343L75.1179 105.343L75.1185 105.375Z" fill="#BF9D72"/>
<path d="M52.3483 110.066L52.439 108.139L52.3642 110.065L52.3483 110.066Z" fill="#BF9D72"/>
</g>
<path d="M94.9518 53.1933L95.2504 69.0947C95.2686 69.6901 95.4052 70.2759 95.6522 70.8176C95.8992 71.3593 96.2516 71.846 96.6888 72.2491L106.819 81.603C107.221 81.9547 107.552 82.3805 107.794 82.8572L131.181 128.739C131.504 129.351 131.961 129.881 132.518 130.289C133.075 130.698 133.717 130.974 134.396 131.097L290.056 160.353C290.708 160.475 291.379 160.45 292.02 160.28C292.661 160.11 293.257 159.798 293.763 159.369C294.27 158.939 294.674 158.401 294.948 157.795C295.222 157.188 295.357 156.529 295.345 155.863L295.315 154.273L260.937 143.513C258.78 142.844 256.494 142.701 254.271 143.098L249.263 144.019L242.849 145.173C241.578 145.4 240.267 145.225 239.099 144.671L223.406 136.249L218.923 137.24L210.096 137.406C205.396 137.489 200.825 135.856 197.233 132.811L196.669 132.329L194.687 130.616C193.538 129.625 192.069 129.088 190.553 129.103L175.705 129.382C174.525 129.404 173.348 129.254 172.21 128.939L160.53 125.706C159.65 125.464 158.74 125.347 157.828 125.359L154.659 125.419C151.894 125.471 149.149 124.932 146.608 123.836L133.645 118.099L120.987 79.7144L117.128 70.8949L117.125 70.7358L108.75 40.0495C108.283 40.0468 107.82 39.9641 107.382 39.8048L104.015 38.6432C103.446 38.4446 102.843 38.3634 102.242 38.4047C101.641 38.446 101.054 38.6088 100.517 38.8833C99.9805 39.1579 99.5046 39.5386 99.1182 40.0024C98.7317 40.4663 98.4428 41.0038 98.2686 41.5826L95.2893 51.7554C95.0978 52.2125 94.9837 52.6985 94.9518 53.1933Z" fill="#B2926B"/>
<path d="M117.031 70.8011L115.193 64.0911L246.279 38.2775L243.085 31.9747C239.198 25.8599 240.675 18.4036 240.768 17.4633L241.092 10.2355C241.226 9.14423 240.959 8.04121 240.341 7.13328C239.723 6.22534 238.796 5.57485 237.734 5.30378L234.056 4.46615C233.289 4.28187 232.487 4.29692 231.727 4.5099L228.953 5.37326L213.382 10.2151C212.728 10.4232 212.034 10.4744 211.356 10.3645L199.304 8.42753C198.636 8.3245 197.954 8.37307 197.308 8.56966C196.661 8.76624 196.067 9.10585 195.568 9.56346L184.272 19.9879C183.8 20.4226 183.241 20.7502 182.632 20.9483C182.023 21.1464 181.378 21.2104 180.742 21.1359L163.824 19.2108C163.065 19.1274 162.298 19.2404 161.595 19.539L144.201 26.8965C143.956 26.9972 143.703 27.0765 143.445 27.1334L119.137 32.6961C118.341 32.8832 117.609 33.2815 117.019 33.8494L111.897 38.8291C111.514 39.2787 111.027 39.6277 110.478 39.8459C109.93 40.064 109.337 40.1448 108.75 40.0812C98.0489 37.4666 108.257 43.3514 102.975 54.156C115.193 64.0911 115.306 70.1018 117.031 70.8011Z" fill="#CEA97B"/>
<path d="M114.407 61.0679C112.876 63.9122 116.474 65.6262 117.066 70.9598L162.798 83.59L163.101 83.6797L187.768 90.5018L189.138 90.8738L232.655 102.893L237.005 104.084L246.216 106.647L246.374 106.644L246.532 106.641L246.931 106.745L247.057 106.743L294.526 119.849C294.629 120.232 294.684 120.627 294.691 121.023L294.67 119.894L294.243 119.139L286.351 105.718L285.532 104.318L283.634 101.172L282.815 99.7719L279.836 94.7377L279.017 93.3373L275.054 86.6195L269.716 77.5414L267.211 73.2777L263.609 67.1734L257.419 56.6479L256.862 55.704L253.768 50.4491L249.314 42.8974L245.106 35.7388L230.733 38.5221L210.895 42.3624L205.414 43.4357L190.11 46.3955L171.582 49.9249L166.512 50.9109L151.57 53.8003L134.087 57.2623L128.259 58.3898C127.012 58.6678 114.806 60.3287 114.407 61.0679Z" fill="#5A1C27"/>
<path d="M117.066 70.9595L133.645 118.099L146.733 123.722C149.274 124.818 152.019 125.358 154.784 125.305L157.953 125.246C158.865 125.234 159.775 125.35 160.654 125.593L172.335 128.825C173.473 129.141 174.65 129.29 175.83 129.268L190.678 128.989C192.193 128.974 193.663 129.512 194.812 130.502L196.794 132.215L197.358 132.698C200.91 135.732 205.431 137.38 210.095 137.342L221.98 137.119C222.871 137.094 223.756 137.285 224.558 137.675L227.565 139.113L239.132 144.75C240.3 145.303 241.611 145.479 242.883 145.252L249.297 144.098L254.305 143.176C256.528 142.78 258.813 142.923 260.97 143.592L295.316 154.289L294.694 121.166C294.687 120.769 294.631 120.375 294.529 119.992L117.066 70.9595Z" fill="#6E141E"/>
<path d="M181.977 119.768C186.751 120.792 171.64 120.566 171.34 102.883C171.284 99.894 166.942 104.223 165.031 104.593C162.36 110.067 170.801 117.21 167.337 121.013C166.158 122.403 170.82 117.4 181.977 119.768Z" fill="#5A1C27"/>
<path d="M201.72 124.408C203.029 123.206 198.319 119.7 198.802 115.046C199.07 112.448 203.783 111.85 204.462 110.04C205.443 107.381 202.228 110.082 195.09 101.404C191.845 97.4402 194.853 106.514 187.936 112.975C186.207 114.598 195.156 115.878 193.018 119.354C186.818 129.412 200.629 125.399 201.72 124.408Z" fill="#5A1C27"/>
<path d="M228.813 131.264C224.026 129.604 224.871 129.874 221.237 127.095C219.548 125.807 221.861 129.947 220.234 131.107C212.411 136.598 226.587 131.735 229.39 134.975C232.583 138.717 231.031 132.033 228.813 131.264Z" fill="#5A1C27"/>
<path d="M161.026 90.5425C157.545 94.2506 158.151 93.5712 154.134 95.7781C152.283 96.7991 156.998 96.3606 157.352 98.3264C159.114 107.742 160.545 92.7467 164.611 91.5251C169.341 90.1478 162.629 88.9217 161.026 90.5425Z" fill="#5A1C27"/>
<path d="M227.216 109.517C223.427 112.881 224.097 112.28 219.883 114.093C217.933 114.941 222.673 114.947 222.869 116.948C223.809 126.474 226.558 111.661 230.68 110.836C235.528 109.822 228.978 107.957 227.216 109.517Z" fill="#5A1C27"/>
<path d="M251.995 120.648C251.195 119.422 253.356 121.402 255.326 118.231C258.895 112.469 253.63 126.662 257.248 131.08C259.811 134.213 265.878 134.815 264.281 135.067C257.769 136.065 259.411 139.931 255.71 138.696C250.365 136.84 256.449 127.388 251.995 120.648Z" fill="#5A1C27"/>
<path d="M129.038 92.2569C127.669 92.8075 130.046 91.0609 127.382 88.5021C122.459 83.8225 135.291 91.8213 140.313 89.1341C143.876 87.222 145.668 81.3823 145.587 82.9904C145.299 89.5972 149.405 88.7407 147.456 92.1496C144.599 97.0549 136.542 89.205 129.038 92.2569Z" fill="#5A1C27"/>
<path d="M144.25 99.5749C143.626 98.3777 140.37 98.0571 138.384 99.4942C133.126 103.14 139.427 115.382 140.267 115.366C140.79 115.356 138.583 110.084 141.641 104.11C143.632 100.414 144.908 100.835 144.25 99.5749Z" fill="#5A1C27"/>
<path d="M278.904 138.005C279.826 138.99 283.032 138.31 284.55 136.452C288.61 131.492 279.164 121.425 278.345 121.711C277.841 121.896 281.443 126.314 280.14 132.924C279.283 137.092 277.918 136.974 278.904 138.005Z" fill="#5A1C27"/>
<path d="M226.899 127.259C226.582 127.265 227.17 129.051 226.358 128.86C225.546 128.668 227.851 129.834 229.08 129.445C228.61 129.225 228.164 128.956 227.749 128.643C226.994 128.084 227.153 127.286 226.899 127.259Z" fill="#C98790"/>
<path d="M205.346 114.906C205.596 114.711 203.914 113.804 204.603 113.33C205.292 112.855 202.85 113.681 202.253 114.805C202.767 114.64 203.296 114.524 203.832 114.458C204.702 114.378 205.143 115.069 205.346 114.906Z" fill="#C98790"/>
<path d="M262.129 122.589C262.379 122.394 260.698 121.503 261.386 121.013C262.074 120.522 259.649 121.363 259.036 122.488C259.552 122.331 260.08 122.215 260.615 122.141C261.58 122.059 262.005 122.751 262.129 122.589Z" fill="#C98790"/>
<path d="M175.829 107.269C175.65 107.002 174.65 108.659 174.256 107.935C173.862 107.211 174.511 109.696 175.602 110.375C175.466 109.856 175.376 109.325 175.335 108.79C175.27 107.884 175.976 107.489 175.829 107.269Z" fill="#C98790"/>
<path d="M146.599 104.764C146.849 104.568 145.152 103.678 145.84 103.188C146.528 102.697 144.103 103.538 143.49 104.679C144.006 104.516 144.534 104.395 145.069 104.315C145.955 104.235 146.38 104.927 146.599 104.764Z" fill="#C98790"/>
<path d="M137.024 85.3302C136.79 85.5414 138.502 86.3682 137.814 86.9061C137.127 87.4439 139.55 86.4917 140.131 85.3514C139.615 85.5191 139.088 85.6513 138.553 85.7469C137.683 85.8269 137.227 85.1514 137.024 85.3302Z" fill="#C98790"/>
<path d="M205.323 38.5696L210.88 42.3943L219.376 48.2635L228.931 54.8445L235.612 59.4592L235.628 59.4589L249.986 69.3697L257.823 74.79L263.332 78.5837L275.039 86.6514L269.701 77.5733L267.196 73.3096L263.593 67.2053L257.404 56.6798L256.183 55.8438L256.167 55.8441L249.407 51.2466L239.677 44.653L230.718 38.554L227.603 36.4491L205.323 38.5696Z" fill="#BF9D72"/>
<path d="M314.693 95.5939L314.726 95.6254L314.726 95.5933L314.693 95.5939Z" fill="#CEA97B"/>
<path d="M205.158 43.2966L205.399 43.4671L213.799 49.2585L223.322 55.8242L230.019 60.4387L244.28 70.2877L252.117 75.6761L257.61 79.4702L279.789 94.7856L279.837 94.8165L279.82 94.7691L275.039 86.6509L263.332 78.5833L257.823 74.7895L249.986 69.3693L235.628 59.4585L235.612 59.4588L228.931 54.844L219.376 48.263L210.88 42.3938L205.323 38.5692L205.158 43.2966Z" fill="#B2926B"/>
<path d="M166.058 46.1471L246.579 102.377L267.776 100.006L184.698 42.711L166.058 46.1471Z" fill="#BF9D72"/>
<path d="M246.376 106.755L267.589 104.384L267.776 100.006L246.579 102.377L246.376 106.755Z" fill="#CEA97B"/>
<path d="M165.855 50.525L166.058 46.1468L246.579 102.377L246.376 106.755L165.855 50.525Z" fill="#B2926B"/>
<path d="M187.862 90.4359L198.403 88.7744L198.751 88.7202L202.908 88.0694L216.548 85.9203L221.843 85.105L241.647 81.9812L257.61 79.4703L263.331 78.5834L269.701 77.5729L267.195 73.3092L257.823 74.7896L252.117 75.6762L236.154 78.1871L216.398 81.2942L216.382 81.2945L211.103 82.1254L197.242 84.3105L188.027 85.7402L188.028 85.8197L188.014 85.9154L187.862 90.4359Z" fill="#CEA97B"/>
<path d="M171.864 86.0598L187.861 90.436L188.027 85.7404L172.322 81.7564L171.864 86.0598Z" fill="#B2926B"/>
<path d="M172.322 81.7568L179.761 83.6532L179.792 83.6526L183.854 84.6898L183.966 84.7195L188.027 85.7408L197.242 84.3111L211.103 82.126L216.382 81.2952L216.398 81.2949L236.154 78.1878L252.117 75.6769L257.823 74.7903L267.195 73.3099L263.593 67.2056L249.986 69.37L244.28 70.2885L228.365 72.8144L208.736 75.9509L203.457 76.7976L189.344 79.0352L172.781 81.6846L172.686 81.7023L172.322 81.7568Z" fill="#BF9D72"/>
<path d="M128.17 52.8076L163.189 79.0804L207.9 91.3956L146.708 50.6619L128.17 52.8076Z" fill="#BF9D72"/>
<path d="M163.087 83.8068L207.732 95.9166L207.833 91.1903L163.189 79.0805L163.087 83.8068Z" fill="#B2926B"/>
<path d="M128.275 58.3893L128.17 52.8079L163.189 79.0807L163.087 83.807L128.275 58.3893Z" fill="#B2926B"/>
<path d="M138.87 76.4675L150.294 74.4554L155.76 73.4938L175.747 69.9847L190.109 67.4721L195.276 66.5638L214.409 63.198L230.019 60.4392L235.612 59.4593L235.628 59.459L256.167 55.8441L256.183 55.8438L256.847 55.7359L253.752 50.4811L249.407 51.2467L228.931 54.8445L223.322 55.8247L207.712 58.5835L188.642 61.9322L183.475 62.8405L168.86 65.4056L149.49 68.8076L143.881 69.7879L138.967 70.6596L138.87 76.4675Z" fill="#CEA97B"/>
<path d="M119.356 71.3297L138.871 76.467L138.968 70.6591L119.826 65.992L119.356 71.3297Z" fill="#B2926B"/>
<path d="M119.826 65.9923L138.968 70.6593L143.881 69.7876L149.49 68.8074L168.845 65.4056L168.861 65.4053L183.475 62.8402L188.642 61.9319L207.712 58.5832L223.322 55.8244L228.931 54.8442L249.407 51.2464L253.752 50.4808L249.315 42.9288L239.677 44.6528L219.375 48.2632L213.798 49.2588L198.221 52.0328L179.309 55.4104L174.143 56.3187L159.213 58.9851L140.775 62.2583L134.993 63.2895L119.826 65.9923Z" fill="#BF9D72"/>
<path d="M252.078 108.191L285.519 104.461L283.635 101.236L282.817 99.8514L252.381 103.239L252.078 108.191Z" fill="#CEA97B"/>
<path d="M232.627 103.084L252.078 108.191L252.381 103.238L233.303 98.5538L232.627 103.084Z" fill="#B2926B"/>
<path d="M233.303 98.5542L252.381 103.238L282.817 99.8512L279.837 94.8169L279.82 94.7695L279.001 93.3692L233.303 98.5542Z" fill="#BF9D72"/>
</svg>
