<svg width="380" height="365" viewBox="0 0 380 365" fill="none" xmlns="http://www.w3.org/2000/svg">
<path d="M379.267 0.146605V56.2963H289.838L281.921 173.434C280.309 193.958 279.576 211.698 279.576 226.505C279.576 262.423 283.827 284.267 292.184 292.184C300.687 300.1 310.656 304.059 322.238 304.059C347.014 304.059 361.821 288.519 366.512 257.292H380C371.057 328.542 342.469 364.167 294.529 364.167C271.806 364.167 253.627 357.276 239.846 343.642C226.065 330.008 219.321 309.336 219.321 281.921C219.321 272.978 219.907 258.904 221.227 239.992C222.546 221.08 224.452 197.037 227.238 168.009L237.5 56.4429H155.988C153.349 103.943 150.27 144.552 146.898 178.418C143.526 212.137 139.861 240.139 136.196 262.276C129.306 305.085 120.949 332.94 110.833 346.134C101.89 358.302 89.429 364.313 73.5957 364.313C62.0139 364.313 52.0448 360.941 43.9815 354.051C35.7716 347.16 31.6667 338.218 31.6667 327.076C31.6667 315.934 38.5571 301.273 52.1914 282.801C72.2762 255.826 87.5231 227.384 98.0787 197.33C103.356 182.523 107.901 163.464 111.566 139.861C115.231 116.404 118.457 88.5494 121.096 56.2963H94.1204C73.0093 56.2963 56.8827 60.9877 45.8873 70.517C34.892 80.0463 24.1898 93.534 14.2207 110.833H0C7.91667 83.4182 17.7392 60.6944 29.321 42.8086C40.9028 25.3627 53.071 13.7809 65.679 7.91667C77.8472 2.63889 99.9846 0 132.238 0H379.267V0.146605Z" fill="#FFFDF9"/>
</svg>
