<svg width="1080" height="1080" viewBox="0 0 1080 1080" fill="none" xmlns="http://www.w3.org/2000/svg">
<g clip-path="url(#clip0_106_26505)">
<rect width="1080" height="1080" fill="white"/>
<mask id="mask0_106_26505" style="mask-type:luminance" maskUnits="userSpaceOnUse" x="-1080" y="0" width="2160" height="1080">
<path d="M1080 0H-1080V1080H1080V0Z" fill="white"/>
</mask>
<g mask="url(#mask0_106_26505)">
<path d="M755.52 -1.38037H-752.48V892.62H755.52V-1.38037Z" fill="#212121"/>
<path d="M34.04 -2.72998H-55.98V892.56H34.04V-2.72998Z" fill="#212121"/>
<path d="M214.07 -2.72998H124.05V892.56H214.07V-2.72998Z" fill="#212121"/>
<path d="M394.11 -2.72998H304.09V892.56H394.11V-2.72998Z" fill="#212121"/>
<path d="M574.14 -2.72998H484.12V892.56H574.14V-2.72998Z" fill="#212121"/>
<path d="M758 -3H664V893H758V-3Z" fill="#212121"/>
<path d="M1078.52 1045.27V1079.24H-1081.48L-1080.84 1078.86L-1043.67 1056.94L-1043.59 1056.89L-1026.59 1046.87L-1026.5 1046.82L-764.46 892.26L-764.43 892.24H755.34L755.38 892.26L1078.37 1045.2H1078.38L1078.52 1045.27Z" fill="#1D1D1D"/>
<path d="M93.4402 1079.24H-36.8597L-55.4697 892.26H34.4902L93.4402 1079.24Z" fill="#1D1D1D"/>
<path d="M354.03 1079.24H223.73L124.45 892.26H214.42L354.03 1079.24Z" fill="#1D1D1D"/>
<path d="M614.62 1079.24H484.33L304.38 892.26H394.34L614.62 1079.24Z" fill="#1D1D1D"/>
<path d="M875.22 1079.24H744.93L484.3 892.26H574.27L875.22 1079.24Z" fill="#1D1D1D"/>
<path d="M1078.52 1051.17V1079.24H1078.38V1079.62L1077.72 1079.24H1005.51L664.23 892.26H754.19L755.23 892.77L761.85 896.01L1078.37 1051.1H1078.38L1078.52 1051.17Z" fill="#1D1D1D"/>
<g style="mix-blend-mode:lighten" opacity="0.06">
<path d="M1080.94 1045.32V1079.29H-1079.06L-1078.42 1078.91L-1041.25 1056.99L-1041.17 1056.94L-1024.17 1046.92L-1024.09 1046.87L-762.04 892.31L-762.01 892.29H757.76L757.8 892.31L1080.79 1045.25H1080.8L1080.94 1045.32Z" fill="white"/>
</g>
<path d="M1078.38 1079.62V1080L1077.72 1079.62L761.85 896.22L755.38 892.46L755.17 557.5L754.83 -0.380059L755.08 -0.490059L757.04 -1.31006L1078.12 -0.310059L1078.37 1045.55V1051.45L1078.38 1079.62Z" fill="#1D1D1D"/>
<mask id="mask1_106_26505" style="mask-type:luminance" maskUnits="userSpaceOnUse" x="755" y="-11" width="324" height="1091">
<path d="M1078.38 -9.63014V1080L1077.72 1079.62L755.23 892.06V890.95L755.17 553.34L755.08 -9.09014V-9.70014L755.82 -10.0101L757.29 -10.6401L956.37 -10.0101L1078.38 -9.63014Z" fill="white"/>
</mask>
<g mask="url(#mask1_106_26505)">
<path d="M930.66 -1.06006H840.89V1087.31H930.66V-1.06006Z" fill="#1D1D1D"/>
<path d="M1110.2 -1.06006H1020.43V1087.31H1110.2V-1.06006Z" fill="#1D1D1D"/>
</g>
<g style="mix-blend-mode:darken" opacity="0.04">
<path d="M1078.38 1079.62V1080L1077.72 1079.62L761.85 896.22L755.38 892.46L755.17 557.5L754.83 -0.380059L755.08 -0.490059L757.04 -1.31006L1078.12 -0.310059L1078.37 1045.55V1051.45L1078.38 1079.62Z" fill="white"/>
</g>
</g>
<path d="M634.267 587.147V643.296H544.838L536.921 760.434C535.309 780.958 534.576 798.698 534.576 813.505C534.576 849.423 538.827 871.267 547.184 879.184C555.687 887.1 565.656 891.059 577.238 891.059C602.014 891.059 616.821 875.519 621.512 844.292H635C626.057 915.542 597.469 951.167 549.529 951.167C526.806 951.167 508.627 944.276 494.846 930.642C481.065 917.008 474.321 896.336 474.321 868.921C474.321 859.978 474.907 845.904 476.227 826.992C477.546 808.08 479.452 784.037 482.238 755.009L492.5 643.443H410.988C408.349 690.943 405.27 731.552 401.898 765.418C398.526 799.137 394.861 827.139 391.196 849.276C384.306 892.085 375.949 919.94 365.833 933.134C356.89 945.302 344.429 951.313 328.596 951.313C317.014 951.313 307.045 947.941 298.981 941.051C290.772 934.16 286.667 925.218 286.667 914.076C286.667 902.934 293.557 888.273 307.191 869.801C327.276 842.826 342.523 814.384 353.079 784.33C358.356 769.523 362.901 750.464 366.566 726.861C370.231 703.404 373.457 675.549 376.096 643.296H349.12C328.009 643.296 311.883 647.988 300.887 657.517C289.892 667.046 279.19 680.534 269.221 697.833H255C262.917 670.418 272.739 647.694 284.321 629.809C295.903 612.363 308.071 600.781 320.679 594.917C332.847 589.639 354.985 587 387.238 587H634.267V587.147Z" fill="#FFFDF9"/>
</g>
<defs>
<clipPath id="clip0_106_26505">
<rect width="1080" height="1080" fill="white"/>
</clipPath>
</defs>
</svg>
