<svg width="1080" height="1080" viewBox="0 0 1080 1080" fill="none" xmlns="http://www.w3.org/2000/svg">
<g clip-path="url(#clip0_100_23665)">
<rect width="1080" height="1080" fill="white"/>
<g clip-path="url(#clip1_100_23665)">
<mask id="mask0_100_23665" style="mask-type:luminance" maskUnits="userSpaceOnUse" x="0" y="0" width="2160" height="1080">
<path d="M2160 0H0V1080H2160V0Z" fill="white"/>
</mask>
<g mask="url(#mask0_100_23665)">
<path d="M1835.94 -1.74023H327.94V892.26H1835.94V-1.74023Z" fill="#FFFDF9"/>
<path d="M754.39 -3.08984H664.37V892.2H754.39V-3.08984Z" fill="#FFFDF9"/>
<path d="M934.42 -3.08984H844.4V892.2H934.42V-3.08984Z" fill="#FFFDF9"/>
<path d="M1114.46 -3.08984H1024.44V892.2H1114.46V-3.08984Z" fill="#FFFDF9"/>
<path d="M394.32 -3.77979H304.3V891.88H394.32V-3.77979Z" fill="#FFFDF9"/>
<path d="M574.35 -3.77979H484.33V891.88H574.35V-3.77979Z" fill="#FFFDF9"/>
<path d="M2158.94 1044.91V1078.88H-1.06006L-0.420059 1078.5L36.7499 1056.58L36.8299 1056.53L53.8299 1046.51L53.9199 1046.46L315.96 891.9L315.99 891.88H1835.76L1835.8 891.9L2158.79 1044.84H2158.8L2158.94 1044.91Z" fill="#FFFDF9"/>
<path d="M755.06 891.9L652.67 1078.88H522.38L665.1 891.9H755.06Z" fill="#FFFDF9"/>
<path d="M934.99 891.9L913.27 1078.88H782.96L845.02 891.9H934.99Z" fill="#FFFDF9"/>
<path d="M1173.86 1078.88H1043.56L1024.95 891.9H1114.91L1173.86 1078.88Z" fill="#FFFDF9"/>
<path d="M395.21 891.9L131.48 1078.88H1.18994L1.79994 1078.5L49.0099 1049.47L53.8299 1046.51L53.9199 1046.46L305.25 891.9H395.21Z" fill="#FFFDF9"/>
<path d="M575.14 891.9L392.07 1078.88H261.78L485.17 891.9H575.14Z" fill="#FFFDF9"/>
<g style="mix-blend-mode:darken" opacity="0.06">
<path d="M2161.36 1044.96V1078.93H1.35986L1.99986 1078.55L39.1699 1056.63L39.2499 1056.58L56.2499 1046.56L56.3299 1046.51L318.38 891.95L318.41 891.93H1838.18L1838.22 891.95L2161.21 1044.89H2161.22L2161.36 1044.96Z" fill="black"/>
</g>
<path d="M0 1079.26V1079.64L0.66 1079.26L316.53 895.86L323 892.1L323.21 557.14L323.55 -0.739922L323.3 -0.849922L321.34 -1.66992L0.26 -0.669922L0.00999999 1045.19V1051.09L0 1079.26Z" fill="#FFFDF9"/>
<mask id="mask1_100_23665" style="mask-type:luminance" maskUnits="userSpaceOnUse" x="0" y="-11" width="324" height="1091">
<path d="M0 -9.99V1079.64L0.66 1079.26L323.15 891.7V890.59L323.21 552.98L323.3 -9.45V-10.06L322.56 -10.37L321.09 -11L122.01 -10.37L0 -9.99Z" fill="white"/>
</mask>
<g mask="url(#mask1_100_23665)">
<path d="M147.73 1086.96H237.5L237.5 -1.41016H147.73L147.73 1086.96Z" fill="#FFFDF9"/>
<path d="M-31.8 1086.96H57.97L57.97 -1.41016H-31.8L-31.8 1086.96Z" fill="#FFFDF9"/>
</g>
<g style="mix-blend-mode:darken" opacity="0.04">
<path d="M0 1079.26V1079.64L0.66 1079.26L316.53 895.86L323 892.1L323.21 557.14L323.55 -0.739922L323.3 -0.849922L321.34 -1.66992L0.26 -0.669922L0.00999999 1045.19V1051.09L0 1079.26Z" fill="black"/>
</g>
</g>
<path d="M780.084 1006.74C666.105 1013.16 572.061 988.943 570.033 952.675C568.006 916.408 658.758 881.799 772.815 875.382C798.696 873.857 824.647 873.982 850.512 875.757C900.271 879.357 940.828 889.391 963.399 903.619C975.347 911.148 982.242 919.851 982.772 929.4C984.831 965.714 894.079 1000.32 780.084 1006.74Z" fill="#FAF8F9"/>
<path d="M919.255 927.412C930.174 953.583 867.779 981.586 779.164 986.893C691.203 992.105 626.297 971.991 632.802 945.1C638.605 921.151 700.438 899.847 771.848 895.323C843.711 890.768 909.474 904.167 919.255 927.412Z" fill="#EDEDED"/>
<g style="mix-blend-mode:multiply">
<path d="M850.512 875.758L845.208 878.732L829.407 887.576L826.115 889.423H826.006L816.647 894.682L814.198 896.044L810.922 897.875L803.341 902.117L800.05 903.964L768.479 921.746L766.716 922.732L764.719 924.282L705.944 967.39L703.167 969.44C698.129 973.134 696.928 975.905 700.656 975.169L910.395 933.235C912.995 932.564 915.481 931.509 917.773 930.104L919.785 928.946L933.371 921.12L963.43 903.745C940.859 889.438 900.302 879.405 850.512 875.758Z" fill="#EDEDED"/>
<path d="M910.987 918.506L911.019 918.474H910.987V918.506Z" fill="#BF9D72"/>
<path d="M933.48 922.701L933.355 920.807L933.465 922.701H933.48Z" fill="#BF9D72"/>
</g>
<path d="M890.506 867.525V883.177C890.499 883.764 890.376 884.343 890.143 884.88C889.91 885.418 889.572 885.903 889.149 886.308L879.353 895.7C878.964 896.053 878.647 896.478 878.417 896.952L856.252 942.533C855.946 943.141 855.506 943.671 854.965 944.083C854.425 944.496 853.798 944.779 853.132 944.912L700.5 976.578C699.86 976.71 699.2 976.698 698.566 976.543C697.931 976.387 697.34 976.092 696.833 975.678C696.327 975.264 695.919 974.743 695.639 974.151C695.358 973.56 695.212 972.913 695.212 972.258V970.692L728.842 959.469C730.953 958.771 733.199 958.588 735.394 958.937L740.339 959.751L746.672 960.769C747.927 960.968 749.214 960.771 750.353 960.205L765.64 951.627L770.07 952.52H778.758C783.385 952.515 787.853 950.824 791.33 947.761L791.876 947.276L793.795 945.554C794.908 944.558 796.344 944.001 797.835 943.989H812.451C813.613 943.988 814.769 943.819 815.883 943.488L827.316 940.091C828.178 939.837 829.07 939.705 829.968 939.7H833.088C835.81 939.7 838.501 939.119 840.981 937.994L853.631 932.108L865.377 894.103L869.011 885.353V885.197L876.686 854.846C877.145 854.835 877.599 854.745 878.027 854.58L881.319 853.374C881.875 853.168 882.467 853.077 883.06 853.107C883.652 853.136 884.232 853.286 884.765 853.546C885.299 853.806 885.774 854.172 886.163 854.621C886.552 855.071 886.846 855.594 887.028 856.161L890.148 866.116C890.345 866.562 890.466 867.038 890.506 867.525Z" fill="#B2926B"/>
<path d="M869.105 885.259L870.79 878.622L741.321 855.644L744.347 849.383C748.06 843.294 746.469 835.984 746.36 835.06L745.907 827.954C745.755 826.883 745.997 825.792 746.589 824.887C747.18 823.982 748.081 823.325 749.121 823.039L752.724 822.147C753.476 821.951 754.265 821.951 755.017 822.147L757.762 822.945L773.174 827.422C773.821 827.614 774.505 827.652 775.17 827.531L786.994 825.402C787.649 825.289 788.321 825.324 788.961 825.505C789.601 825.687 790.192 826.01 790.691 826.451L802 836.5C802.472 836.919 803.028 837.231 803.631 837.415C804.234 837.599 804.869 837.65 805.494 837.565L822.106 835.358C822.851 835.262 823.609 835.359 824.306 835.639L841.558 842.558C841.801 842.652 842.051 842.726 842.307 842.777L866.328 847.802C867.116 847.971 867.843 848.349 868.434 848.897L873.566 853.703C873.952 854.138 874.438 854.473 874.981 854.677C875.525 854.882 876.11 854.95 876.686 854.877C887.168 852.106 877.232 858.086 882.629 868.62C870.79 878.622 870.79 884.539 869.105 885.259Z" fill="#CEA97B"/>
<path d="M871.507 875.633C873.067 878.403 869.557 880.156 869.074 885.416L824.306 898.689L824.01 898.783L799.863 905.952L798.521 906.344L755.922 918.976L751.663 920.228L742.647 922.92H742.491H742.335L741.945 923.03H741.821L695.352 936.804C695.259 937.183 695.211 937.572 695.212 937.962V936.851L695.617 936.1L703.136 922.748L703.916 921.355L705.725 918.224L706.505 916.831L709.344 911.822L710.124 910.429L713.899 903.745L718.984 894.714L721.371 890.472L724.802 884.398L730.699 873.927L731.229 872.987L734.177 867.759L738.42 860.246L742.429 853.124L756.624 855.597L776.215 859.009L781.628 859.964L796.743 862.594L815.04 865.725L820.047 866.601L834.804 869.168L852.071 872.252L857.827 873.254C859.06 873.504 871.102 874.913 871.507 875.633Z" fill="#5A1C27"/>
<path d="M869.074 885.416L853.631 932.108L840.856 937.884C838.376 939.009 835.685 939.59 832.963 939.59H829.843C828.946 939.595 828.053 939.727 827.192 939.981L815.758 943.378C814.644 943.71 813.488 943.878 812.326 943.879H797.71C796.219 943.891 794.783 944.448 793.67 945.444L791.752 947.166L791.206 947.651C787.767 950.702 783.348 952.408 778.758 952.457H767.059C766.181 952.449 765.315 952.653 764.532 953.051L761.6 954.523L750.322 960.283C749.183 960.849 747.896 961.046 746.64 960.847L740.307 959.829L735.363 959.015C733.168 958.666 730.922 958.849 728.811 959.547L695.212 970.708V938.103C695.211 937.713 695.259 937.324 695.352 936.945L869.074 885.416Z" fill="#6E141E"/>
<path d="M806.102 934.644C801.423 935.739 816.288 935.238 816.257 917.832C816.257 914.89 820.609 919.069 822.496 919.398C825.226 924.735 817.053 931.92 820.531 935.598C821.717 936.945 817.037 932.108 806.102 934.644Z" fill="#5A1C27"/>
<path d="M786.76 939.575C785.45 938.416 790.021 934.879 789.459 930.308C789.147 927.757 784.499 927.256 783.797 925.487C782.783 922.889 785.996 925.487 792.859 916.815C795.979 912.855 793.187 921.84 800.113 928.07C801.844 929.635 793.062 931.059 795.23 934.44C801.517 944.223 787.852 940.529 786.76 939.575Z" fill="#5A1C27"/>
<path d="M760.227 946.822C764.907 945.1 764.08 945.382 767.605 942.58C769.243 941.281 767.044 945.397 768.666 946.509C776.465 951.768 762.426 947.244 759.728 950.485C756.655 954.226 758.059 947.62 760.227 946.822Z" fill="#5A1C27"/>
<path d="M826.178 905.498C829.672 909.083 829.064 908.425 833.057 910.523C834.898 911.493 830.249 911.149 829.937 913.09C828.377 922.388 826.693 907.658 822.668 906.531C817.989 905.263 824.571 903.933 826.178 905.498Z" fill="#5A1C27"/>
<path d="M761.397 925.393C765.188 928.633 764.517 928.054 768.697 929.76C770.631 930.558 765.967 930.652 765.811 932.624C765.063 942.016 762.083 927.49 758.012 926.754C753.223 925.847 759.634 923.89 761.397 925.393Z" fill="#5A1C27"/>
<path d="M737.219 936.804C737.983 935.583 735.893 937.571 733.896 934.487C730.278 928.884 735.721 942.752 732.243 947.166C729.778 950.297 723.82 951.001 725.395 951.22C731.822 952.081 730.278 955.916 733.896 954.632C739.122 952.707 732.961 943.519 737.219 936.804Z" fill="#5A1C27"/>
<path d="M857.687 906.594C859.044 907.11 856.673 905.435 859.247 902.868C864.004 898.173 851.526 906.281 846.534 903.729C842.993 901.914 841.121 896.2 841.23 897.781C841.636 904.277 837.58 903.51 839.561 906.829C842.463 911.603 850.246 903.729 857.687 906.594Z" fill="#5A1C27"/>
<path d="M842.853 914.076C843.446 912.886 846.643 912.511 848.624 913.888C853.865 917.379 847.891 929.541 847.064 929.541C846.55 929.541 848.624 924.313 845.505 918.49C843.477 914.89 842.229 915.328 842.853 914.076Z" fill="#5A1C27"/>
<path d="M711.06 954.381C710.171 955.367 707.005 954.757 705.476 952.957C701.389 948.152 710.499 938.071 711.31 938.337C711.809 938.509 708.346 942.923 709.75 949.404C710.67 953.489 712.012 953.348 711.06 954.381Z" fill="#5A1C27"/>
<path d="M762.036 942.846C762.348 942.846 761.802 944.614 762.598 944.411C763.394 944.208 761.147 945.397 759.931 945.037C760.389 944.812 760.823 944.539 761.225 944.223C761.958 943.66 761.787 942.877 762.036 942.846Z" fill="#C98790"/>
<path d="M783.016 930.292C782.767 930.104 784.405 929.181 783.718 928.727C783.032 928.273 785.45 929.04 786.058 930.135C785.549 929.982 785.027 929.877 784.498 929.822C783.64 929.76 783.219 930.449 783.016 930.292Z" fill="#C98790"/>
<path d="M727.283 938.901C727.033 938.713 728.671 937.805 727.985 937.336C727.299 936.866 729.701 937.649 730.325 938.745C729.814 938.599 729.292 938.495 728.765 938.432C727.813 938.369 727.408 939.058 727.283 938.901Z" fill="#C98790"/>
<path d="M811.921 922.231C812.093 921.965 813.106 923.577 813.481 922.857C813.855 922.137 813.262 924.595 812.202 925.283C812.326 924.77 812.405 924.246 812.436 923.718C812.482 922.826 811.781 922.45 811.921 922.231Z" fill="#C98790"/>
<path d="M840.638 919.226C840.388 919.038 842.042 918.13 841.355 917.66C840.669 917.191 843.071 917.973 843.695 919.085C843.185 918.934 842.663 918.824 842.135 918.756C841.262 918.693 840.856 919.382 840.638 919.226Z" fill="#C98790"/>
<path d="M849.7 899.926C849.934 900.129 848.265 900.974 848.952 901.491C849.638 902.008 847.236 901.115 846.643 900.004C847.154 900.16 847.675 900.28 848.203 900.364C849.061 900.427 849.498 899.754 849.7 899.926Z" fill="#C98790"/>
<path d="M781.628 855.174L776.231 859.041L767.979 864.973L758.698 871.626L752.209 876.29H752.194L738.248 886.308L730.636 891.786L725.286 895.621L713.915 903.776L719 894.745L721.386 890.503L724.818 884.43L730.714 873.958L731.9 873.113H731.915L738.482 868.464L747.935 861.796L756.639 855.628L759.665 853.5L781.628 855.174Z" fill="#BF9D72"/>
<path d="M675.059 913.309L675.027 913.34V913.309H675.059Z" fill="#CEA97B"/>
<path d="M781.878 859.823L781.644 859.995L773.486 865.849L764.236 872.486L757.731 877.15L743.88 887.106L736.267 892.553L730.933 896.388L709.391 911.868L709.344 911.9L709.36 911.853L713.915 903.776L725.286 895.621L730.636 891.786L738.248 886.307L752.194 876.29H752.209L758.698 871.625L767.979 864.973L776.231 859.04L781.628 855.174L781.878 859.823Z" fill="#B2926B"/>
<path d="M820.406 861.905L742.211 918.725L721.309 916.784L802 858.868L820.406 861.905Z" fill="#BF9D72"/>
<path d="M742.491 923.03L721.574 921.089L721.309 916.784L742.211 918.725L742.491 923.03Z" fill="#CEA97B"/>
<path d="M820.687 866.209L820.406 861.905L742.21 918.725L742.491 923.029L820.687 866.209Z" fill="#B2926B"/>
<path d="M799.77 905.89L789.365 904.45L789.022 904.403L784.92 903.839L771.458 901.976L766.233 901.272L746.688 898.564L730.933 896.388L725.286 895.621L719 894.745L721.387 890.503L730.637 891.786L736.268 892.553L752.022 894.729L771.52 897.421H771.536L776.746 898.142L790.426 900.036L799.52 901.272V901.35L799.536 901.444L799.77 905.89Z" fill="#CEA97B"/>
<path d="M815.431 901.287L799.77 905.889L799.52 901.272L814.9 897.061L815.431 901.287Z" fill="#B2926B"/>
<path d="M814.9 897.062L807.616 899.065H807.585L803.607 900.161L803.498 900.192L799.52 901.272L790.426 900.036L776.746 898.142L771.536 897.422H771.521L752.022 894.729L736.268 892.554L730.637 891.787L721.387 890.503L724.818 884.43L738.249 886.308L743.88 887.106L759.588 889.298L778.961 892.021L784.171 892.757L798.101 894.698L814.448 896.999L814.542 897.015L814.9 897.062Z" fill="#BF9D72"/>
<path d="M857.812 867.759L823.838 894.259L780.068 907.204L839.53 865.99L857.812 867.759Z" fill="#BF9D72"/>
<path d="M824.025 898.908L780.318 911.649L780.131 907L823.838 894.259L824.025 898.908Z" fill="#B2926B"/>
<path d="M857.812 873.253V867.759L823.838 894.26L824.025 898.908L857.812 873.253Z" fill="#B2926B"/>
<path d="M847.72 891.238L836.442 889.469L831.045 888.624L811.313 885.54L797.134 883.333L792.033 882.535L773.143 879.577L757.732 877.15L752.21 876.29H752.194L731.916 873.112H731.9L731.245 873.018L734.193 867.79L738.483 868.463L758.699 871.625L764.236 872.486L779.648 874.912L798.475 877.855L803.576 878.653L818.005 880.907L837.128 883.897L842.666 884.758L847.517 885.525L847.72 891.238Z" fill="#CEA97B"/>
<path d="M866.828 885.822L847.719 891.238L847.517 885.525L866.266 880.579L866.828 885.822Z" fill="#B2926B"/>
<path d="M866.266 880.579L847.517 885.525L842.665 884.758L837.128 883.897L818.02 880.907H818.004L803.575 878.653L798.475 877.855L779.647 874.912L764.236 872.486L758.698 871.625L738.482 868.463L734.193 867.79L738.42 860.277L747.935 861.795L767.979 864.973L773.486 865.849L788.866 868.291L807.537 871.265L812.638 872.063L827.379 874.411L845.582 877.291L851.292 878.199L866.266 880.579Z" fill="#BF9D72"/>
<path d="M736.907 924.548L703.932 921.495L705.725 918.287L706.505 916.909L736.517 919.68L736.907 924.548Z" fill="#CEA97B"/>
<path d="M755.953 919.163L736.907 924.548L736.517 919.68L755.204 914.718L755.953 919.163Z" fill="#B2926B"/>
<path d="M755.204 914.718L736.517 919.679L706.505 916.909L709.344 911.9L709.36 911.853L710.14 910.46L755.204 914.718Z" fill="#BF9D72"/>
</g>
</g>
<defs>
<clipPath id="clip0_100_23665">
<rect width="1080" height="1080" fill="white"/>
</clipPath>
<clipPath id="clip1_100_23665">
<rect width="2160" height="1080" fill="white"/>
</clipPath>
</defs>
</svg>
