<svg width="2160" height="1080" viewBox="0 0 2160 1080" fill="none" xmlns="http://www.w3.org/2000/svg">
<g clip-path="url(#clip0_59_570)">
<rect width="2160" height="1080" fill="white"/>
<mask id="mask0_59_570" style="mask-type:luminance" maskUnits="userSpaceOnUse" x="2" y="635" width="2156" height="445">
<path d="M2157.19 1079.97H2.24707L493.053 635.331H1666.39L2157.19 1079.97Z" fill="white"/>
</mask>
<g mask="url(#mask0_59_570)">
<path d="M23.6055 1100.17L-15.606 1026.77L155.857 967.673L115.949 915.788L260.492 869.701L219.247 828.635L343.802 791.682L302.524 758.381L411.72 728.101L371.093 700.541L468.133 675.272L428.517 652.094L522.355 629.061L527.13 632.32L447.224 652.094L487.626 675.261L391.452 700.53L433.011 728.09L324.859 758.369L367.273 791.671L243.987 828.624L286.626 869.689L143.655 915.777L185.339 967.662L15.8868 1026.75L51.0872 1088.68L23.6055 1100.17Z" fill="black"/>
<path d="M98.1298 1099.36L53.458 1026.07L220.382 967.055L176.62 915.249L317.635 869.217L273.357 828.208L395.081 791.3L351.353 758.032L458.223 727.775L415.563 700.249L510.681 675.003L469.358 651.847L561.432 628.837L566.454 632.084L488.053 651.847L530.163 674.992L435.91 700.238L479.514 727.764L373.666 758.021L418.54 791.289L298.074 828.197L343.746 869.206L204.304 915.238L249.841 967.044L84.9283 1026.05L124.724 1087.88L98.1298 1099.36Z" fill="black"/>
<path d="M171.036 1100.17L120.96 1026.77L283.682 967.673L236.089 915.788L373.823 869.701L326.5 828.635L445.595 791.682L399.384 758.381L504.086 728.101L459.381 700.541L552.691 675.272L509.637 652.094L600.07 629.061L605.328 632.32L528.344 652.094L572.184 675.261L479.739 700.53L525.389 728.09L421.72 758.369L469.054 791.671L351.229 828.624L399.957 869.689L263.795 915.777L313.164 967.662L152.453 1026.75L196.81 1088.68L171.036 1100.17Z" fill="black"/>
<path d="M245.437 1099.36L189.923 1026.07L348.117 967.055L296.693 915.249L430.888 869.217L380.542 828.208L496.817 791.3L448.157 758.032L550.545 727.775L503.817 700.249L595.194 675.003L550.443 651.847L639.124 628.837L644.618 632.084L569.139 651.847L614.676 674.992L524.164 700.238L571.836 727.764L470.47 758.021L520.265 791.289L405.26 828.197L457.01 869.206L324.377 915.238L377.576 967.044L221.393 1026.05L270.334 1087.88L245.437 1099.36Z" fill="black"/>
<path d="M318.467 1100.17L257.537 1026.77L411.507 967.673L356.24 915.788L487.143 869.701L433.753 828.635L547.376 791.682L496.244 758.381L596.463 728.101L547.679 700.541L637.248 675.272L590.767 652.094L677.785 629.061L683.526 632.32L609.474 652.094L656.741 675.261L568.038 700.53L617.766 728.09L518.568 758.369L570.835 791.671L458.482 828.624L513.277 869.689L383.946 915.777L440.988 967.662L289.019 1026.75L342.544 1088.68L318.467 1100.17Z" fill="black"/>
<path d="M392.744 1099.36L326.387 1026.07L475.852 967.055L416.754 915.249L544.151 869.217L487.727 828.208L598.542 791.3L544.96 758.032L642.877 727.775L592.07 700.249L679.706 675.003L631.529 651.847L716.805 628.837L722.783 632.084L650.224 651.847L699.199 674.992L612.418 700.238L664.156 727.764L567.274 758.021L621.99 791.289L512.445 828.197L570.262 869.206L444.437 915.238L505.299 967.044L357.858 1026.05L415.945 1087.88L392.744 1099.36Z" fill="black"/>
<path d="M465.403 1100.99L393.586 1027.48L538.949 968.291L475.986 916.327L600.171 870.184L540.68 829.074L648.91 792.076L592.834 758.74L688.638 728.416L635.765 700.833L721.637 675.542L671.707 652.341L755.365 629.297L761.589 632.545L690.425 652.341L741.13 675.531L656.123 700.833L709.941 728.405L615.17 758.729L672.392 792.064L565.42 829.062L626.316 870.173L503.704 916.316L568.442 968.269L425.09 1027.46L487.795 1089.48L465.403 1100.99Z" fill="black"/>
<path d="M539.613 1100.17L462.392 1026.77L603.25 967.673L536.467 915.788L657.135 869.701L594.632 828.635L700.054 791.682L641.517 758.381L735.029 728.101L680.122 700.541L764.084 675.272L712.458 652.094L794.363 629.061L800.824 632.32L731.164 652.094L783.566 675.261L700.481 700.53L756.32 728.09L663.853 758.369L723.513 791.671L619.361 828.624L683.268 869.689L564.162 915.777L632.72 967.662L493.873 1026.75L561.14 1088.68L539.613 1100.17Z" fill="black"/>
<path d="M612.946 1100.99L530.253 1027.48L666.864 968.291L596.216 916.327L713.57 870.184L648 829.074L750.759 792.076L689.74 758.74L781.061 728.416L724.097 700.833L806.228 675.542L752.871 652.341L833.125 629.297L839.822 632.545L771.589 652.341L825.732 675.531L744.467 700.833L802.363 728.405L712.075 758.729L774.229 792.064L672.74 829.062L739.714 870.173L623.934 916.316L696.357 968.269L561.769 1027.46L633.641 1089.48L612.946 1100.99Z" fill="black"/>
<path d="M687.054 1100.17L598.958 1026.77L731.074 967.673L656.606 915.788L770.465 869.701L701.885 828.635L801.835 791.682L738.377 758.381L827.395 728.101L768.421 700.541L848.641 675.272L793.588 652.094L872.089 629.061L879.022 632.32L812.283 652.094L868.123 675.261L788.779 700.53L848.686 728.09L760.702 758.369L825.294 791.671L726.603 828.624L796.588 869.689L684.313 915.777L760.545 967.662L630.439 1026.75L706.873 1088.68L687.054 1100.17Z" fill="black"/>
<path d="M760.5 1100.99L666.932 1027.48L794.779 968.291L716.435 916.327L826.968 870.184L755.309 829.074L852.596 792.076L786.645 758.74L873.471 728.416L812.441 700.833L890.83 675.542L834.035 652.341L910.874 629.297L918.053 632.545L852.753 652.341L910.323 675.531L832.799 700.833L894.785 728.405L808.98 758.729L876.067 792.064L780.049 829.062L853.113 870.173L744.152 916.316L824.272 968.269L698.436 1027.46L779.488 1089.48L760.5 1100.99Z" fill="black"/>
<path d="M834.485 1100.17L735.524 1026.77L858.899 967.673L776.757 915.788L883.797 869.701L809.127 828.635L903.616 791.682L835.226 758.381L919.773 728.101L856.72 700.541L933.188 675.272L874.707 652.094L949.805 629.061L957.22 632.32L893.414 652.094L952.681 675.261L877.067 700.53L941.064 728.09L857.551 758.369L927.076 791.671L833.856 828.624L909.919 869.689L804.453 915.777L888.358 967.662L767.005 1026.75L852.596 1088.68L834.485 1100.17Z" fill="black"/>
<path d="M908.481 1098.54L804.228 1025.37L923.031 966.448L837.159 914.709L940.637 868.734L863.011 827.77L954.647 790.907L883.864 757.673L966.074 727.461L901.043 699.957L975.567 674.733L915.425 651.6L988.747 628.612L996.398 631.859L934.109 651.6L995.038 674.722L921.368 699.945L987.342 727.45L906.167 757.673L978.084 790.896L887.707 827.759L966.714 868.723L864.809 914.687L952.456 966.437L835.665 1025.36L925.716 1087.08L908.481 1098.54Z" fill="black"/>
<path d="M982.151 1097.73L872.573 1024.67L986.926 965.83L897.268 914.17L997.274 868.251L916.672 827.343L1005.52 790.525L932.322 757.324L1012.25 727.135L945.209 699.665L1017.83 674.464L956.007 651.352L1027.6 628.387L1035.49 631.623L974.68 651.352L1037.29 674.464L965.534 699.653L1033.51 727.124L954.613 757.313L1028.95 790.514L941.356 827.332L1023.35 868.24L924.907 914.148L1016.32 965.819L903.976 1024.66L998.532 1086.28L982.151 1097.73Z" fill="black"/>
<path d="M1055.68 1098.54L940.591 1025.37L1050.68 966.448L957.141 914.709L1053.81 868.734L970.14 827.77L1056.32 790.907L980.623 757.673L1058.35 727.461L989.252 699.957L1060.05 674.733L996.476 651.6L1066.39 628.612L1074.53 631.859L1015.16 651.6L1079.52 674.722L1009.58 699.945L1079.62 727.45L1002.91 757.673L1079.74 790.896L994.836 827.759L1079.9 868.723L984.803 914.687L1080.1 966.437L972.028 1025.36L1071.21 1087.08L1055.68 1098.54Z" fill="black"/>
<path d="M1129.22 1097.73L1008.84 1024.67L1114.47 965.83L1017.17 914.17L1110.39 868.251L1023.73 827.343L1107.13 790.525L1029.03 757.324L1104.48 727.135L1033.37 699.665L1102.27 674.464L1037.03 651.352L1105.21 628.387L1113.58 631.623L1055.7 651.352L1121.73 674.464L1053.7 699.653L1125.74 727.124L1051.31 757.313L1130.55 790.514L1048.41 827.332L1136.46 868.24L1044.81 914.148L1143.87 965.819L1040.24 1024.66L1143.91 1086.28L1129.22 1097.73Z" fill="black"/>
<path d="M1202.86 1098.54L1076.96 1025.37L1178.32 966.448L1077.12 914.709L1167 868.734L1077.26 827.77L1157.98 790.907L1077.37 757.673L1150.63 727.461L1077.46 699.957L1144.52 674.733L1077.53 651.6L1144.05 628.612L1152.66 631.859L1096.21 651.6L1164 674.722L1097.79 699.945L1171.89 727.45L1099.67 757.673L1181.41 790.896L1101.95 827.759L1193.08 868.723L1104.79 914.687L1207.73 966.437L1108.38 1025.36L1216.7 1087.08L1202.86 1098.54Z" fill="black"/>
<path d="M1276.29 1097.73L1145.09 1024.67L1242.03 965.83L1137.09 914.17L1223.5 868.251L1130.8 827.343L1208.75 790.525L1125.72 757.324L1196.71 727.135L1121.55 699.665L1186.71 674.464L1118.04 651.352L1182.83 628.387L1191.68 631.623L1136.72 651.352L1206.17 674.464L1141.86 699.653L1217.97 727.124L1148.01 757.313L1232.16 790.514L1155.47 827.332L1249.56 868.24L1164.71 914.148L1271.43 965.819L1176.49 1024.66L1289.28 1086.28L1276.29 1097.73Z" fill="black"/>
<path d="M1350.28 1099.36L1213.42 1026.07L1306.12 967.055L1197.2 915.249L1280.32 869.217L1184.44 828.208L1259.75 791.3L1174.17 758.032L1242.99 727.775L1165.71 700.249L1229.07 675.003L1158.62 651.847L1221.77 628.837L1230.86 632.084L1177.31 651.847L1248.54 674.992L1186.05 700.238L1264.27 727.764L1196.48 758.021L1283.19 791.289L1209.15 828.197L1306.42 869.206L1224.87 915.238L1335.56 967.044L1244.87 1026.05L1362.42 1087.88L1350.28 1099.36Z" fill="black"/>
<path d="M1423.64 1098.54L1281.51 1025.37L1369.78 966.448L1257.1 914.709L1336.77 868.734L1237.95 827.77L1310.48 790.907L1222.5 757.673L1289.05 727.461L1209.77 699.957L1271.24 674.733L1199.12 651.6L1260.53 628.612L1269.86 631.859L1217.79 651.6L1290.71 674.722L1230.1 699.945L1310.31 727.45L1244.79 757.673L1333.91 790.896L1262.63 827.759L1362.86 868.723L1284.76 914.687L1399.2 966.437L1312.93 1025.36L1434.95 1087.08L1423.64 1098.54Z" fill="black"/>
<path d="M1497.59 1099.36L1349.88 1026.07L1433.86 967.055L1317.26 915.249L1393.57 869.217L1291.64 828.208L1361.48 791.3L1270.98 758.032L1335.31 727.775L1253.97 700.249L1313.58 675.003L1239.71 651.847L1299.45 628.837L1309.02 632.084L1258.41 651.847L1333.07 674.992L1274.3 700.238L1356.59 727.764L1293.28 758.021L1384.92 791.289L1316.34 828.197L1419.67 869.206L1344.93 915.238L1463.29 967.044L1381.33 1026.05L1508.05 1087.88L1497.59 1099.36Z" fill="black"/>
<path d="M1570.84 1098.54L1417.87 1025.37L1497.43 966.448L1377.1 914.709L1449.96 868.734L1345.06 827.77L1412.15 790.907L1319.25 757.673L1381.32 727.461L1297.99 699.957L1355.72 674.733L1280.17 651.6L1338.18 628.612L1347.99 631.859L1298.85 651.6L1375.18 674.722L1318.31 699.945L1402.59 727.45L1341.55 757.673L1435.58 790.896L1369.76 827.759L1476.04 868.723L1404.75 914.687L1526.84 966.437L1449.28 1025.36L1580.45 1087.08L1570.84 1098.54Z" fill="black"/>
<path d="M1644.89 1099.36L1486.36 1026.07L1561.59 967.055L1437.33 915.249L1506.82 869.217L1398.83 828.208L1463.2 791.3L1367.77 758.032L1427.64 727.775L1342.21 700.249L1398.11 675.003L1320.81 651.847L1377.13 628.837L1387.19 632.084L1339.49 651.847L1417.58 674.992L1362.55 700.238L1448.92 727.764L1390.08 758.021L1486.64 791.289L1423.52 828.197L1532.92 869.206L1464.99 915.238L1591.03 967.044L1517.8 1026.05L1653.66 1087.88L1644.89 1099.36Z" fill="black"/>
<path d="M1718.03 1098.54L1554.23 1025.37L1625.07 966.448L1497.08 914.709L1563.14 868.734L1452.19 827.77L1513.82 790.907L1415.99 757.673L1473.61 727.461L1386.2 699.957L1440.19 674.733L1361.22 651.6L1415.84 628.612L1426.12 631.859L1379.91 651.6L1459.65 674.722L1406.52 699.945L1494.87 727.45L1438.3 757.673L1537.25 790.896L1476.88 827.759L1589.22 868.723L1524.73 914.687L1654.49 966.437L1585.65 1025.36L1725.93 1087.08L1718.03 1098.54Z" fill="black"/>
<path d="M1792.79 1100.17L1623.24 1026.77L1689.77 967.673L1557.72 915.788L1620.42 869.701L1506.26 828.635L1565.2 791.682L1464.79 758.381L1520.2 728.101L1430.64 700.541L1482.81 675.272L1402.04 652.094L1454.98 629.061L1465.52 632.32L1420.73 652.094L1502.29 675.261L1450.98 700.53L1541.48 728.09L1487.1 758.369L1588.66 791.671L1530.98 828.624L1646.53 869.689L1585.4 915.777L1719.21 967.662L1654.7 1026.75L1799.85 1088.68L1792.79 1100.17Z" fill="black"/>
<path d="M1865.87 1099.36L1691.06 1026.07L1753.2 967.055L1617.43 915.249L1676.71 869.217L1559.6 828.208L1615.79 791.3L1512.98 758.032L1566.13 727.775L1474.6 700.249L1524.88 675.003L1442.44 651.847L1493.66 628.837L1504.44 632.084L1461.13 651.847L1544.35 674.992L1494.93 700.238L1587.41 727.764L1535.28 758.021L1639.23 791.289L1584.3 828.197L1702.8 869.206L1645.09 915.238L1782.63 967.044L1722.49 1026.05L1872.07 1087.88L1865.87 1099.36Z" fill="black"/>
<path d="M1940.22 1100.17L1759.81 1026.77L1817.59 967.673L1677.87 915.788L1733.74 869.701L1613.51 828.635L1666.98 791.682L1561.64 758.381L1612.57 728.101L1518.93 700.541L1567.37 675.272L1483.17 652.094L1532.7 629.061L1543.72 632.32L1501.87 652.094L1586.85 675.261L1539.28 700.53L1633.85 728.09L1583.96 758.369L1690.44 791.671L1638.23 828.624L1759.85 869.689L1705.54 915.777L1847.03 967.662L1791.27 1026.75L1945.58 1088.68L1940.22 1100.17Z" fill="black"/>
<path d="M2013.18 1099.36L1827.52 1026.07L1880.94 967.055L1737.49 915.249L1789.96 869.217L1666.79 828.208L1717.52 791.3L1609.78 758.032L1658.46 727.775L1562.85 700.249L1609.39 675.003L1523.53 651.847L1571.35 628.837L1582.6 632.084L1542.21 651.847L1628.87 674.992L1583.19 700.238L1679.73 727.764L1632.08 758.021L1740.95 791.289L1691.49 828.197L1816.05 869.206L1765.16 915.238L1910.35 967.044L1858.96 1026.05L2017.68 1087.88L2013.18 1099.36Z" fill="black"/>
<path d="M2087.66 1100.17L1896.37 1026.77L1945.42 967.673L1798.01 915.788L1847.07 869.701L1720.76 828.635L1768.77 791.682L1658.5 758.381L1704.95 728.101L1607.23 700.541L1651.93 675.272L1564.3 652.094L1610.42 629.061L1621.93 632.32L1582.99 652.094L1671.41 675.261L1627.58 700.53L1726.22 728.09L1680.81 758.369L1792.22 791.671L1745.47 828.624L1873.18 869.689L1825.69 915.777L1974.85 967.662L1927.83 1026.75L2091.31 1088.68L2087.66 1100.17Z" fill="black"/>
<path d="M2160.48 1099.36L1963.99 1026.07L2008.67 967.055L1857.57 915.249L1903.22 869.217L1773.97 828.208L1819.24 791.3L1706.59 758.032L1750.79 727.775L1651.1 700.249L1693.91 675.003L1604.62 651.847L1649.04 628.837L1660.77 632.084L1623.31 651.847L1713.38 674.992L1671.43 700.238L1772.05 727.764L1728.89 758.021L1842.68 791.289L1798.67 828.197L1929.3 869.206L1885.23 915.238L2038.08 967.044L1995.42 1026.05L2163.29 1087.88L2160.48 1099.36Z" fill="black"/>
<path d="M2236.04 1100.99L2033.67 1027.48L2073.95 968.291L1918.72 916.327L1960.95 870.184L1828.47 829.074L1871 792.076L1755.72 758.74L1797.68 728.416L1695.83 700.833L1736.79 675.542L1645.68 652.341L1688.41 629.297L1700.39 632.545L1664.37 652.341L1756.28 675.531L1716.18 700.833L1818.97 728.405L1778.04 758.729L1894.46 792.064L1853.18 829.062L1987.08 870.173L1946.42 916.316L2103.41 968.269L2065.15 1027.46L2237.98 1089.48L2236.04 1100.99Z" fill="black"/>
</g>
<path d="M1787.55 744.156L2158.31 1078.97V-134.45H1787.55V744.156Z" fill="#D30B00"/>
<path d="M373.014 -134.45V744.156L364.026 752.268L305.602 804.985L293.356 816.063L292.704 816.658L229.202 874.037L123.421 969.538L115.095 977.066L103.141 987.852C95.7253 940.854 93.0289 852.319 92.1974 741.348C92.2087 741.269 92.2087 741.19 92.1974 741.112C90.2088 490.237 97.2758 124.795 78.6476 -134.45H373.014Z" fill="#D30B00"/>
<g style="mix-blend-mode:multiply" opacity="0.5">
<path d="M260.661 807.816C251.651 830.561 241.141 852.684 229.202 874.037C206.214 914.968 181.328 945.82 158.767 966.381C144.049 970.875 131.499 972.324 123.42 969.56L115.095 977.088L103.141 987.874C95.7253 940.876 93.0288 852.342 92.1974 741.37C92.2086 741.292 92.2086 741.212 92.1974 741.134C95.7253 581.345 94.6467 415.735 94.7815 -94.0023C94.7815 -107.26 94.7815 -120.742 94.7815 -134.45H196.102L260.661 807.816Z" fill="#D30B00"/>
</g>
<g style="mix-blend-mode:multiply" opacity="0.5">
<path d="M115.073 977.088L103.118 987.874C95.7029 940.876 93.0064 852.342 92.175 741.37C92.1862 741.292 92.1862 741.212 92.175 741.134C90.2088 490.237 97.2758 124.795 78.6476 -134.45H92.13C93.0813 -121.214 93.9651 -107.732 94.7816 -94.0023C116.668 272.54 94.3771 814.58 115.073 977.088Z" fill="#D30B00"/>
</g>
<path d="M158.745 966.381C144.026 970.875 131.476 972.324 123.398 969.56C116.927 967.313 113.286 962.426 113.758 954.258C129.847 658.206 113.758 649.779 113.477 -134.45H239.313L292.704 816.681L294.367 846.398C295.872 891.621 212.731 949.764 158.745 966.381Z" fill="#D30B00"/>
<g style="mix-blend-mode:multiply" opacity="0.5">
<path d="M364.026 -134.45V777.391C337.803 816.422 306.568 843.129 306.164 827.298C305.977 819.808 305.804 812.37 305.647 804.985L293.356 816.063C284.626 398.309 313.579 103.01 294.962 -134.45H364.026Z" fill="#D30B00"/>
</g>
<path d="M373.576 -134.45V762.189C370.52 767.414 367.307 772.492 364.026 777.391C337.803 816.422 306.568 843.129 306.164 827.298C305.977 819.808 305.804 812.37 305.647 804.985C296.614 388.883 326.579 98.4709 305.602 -134.45H373.576Z" fill="#D30B00"/>
<path d="M14.1116 1079.15C8.831 1080.16 3.99979 1080.19 0 1078.97V-134.45H78.6476C97.2758 124.795 90.2088 490.237 92.13 741.134C92.1413 741.212 92.1413 741.292 92.13 741.37C93.0064 852.342 95.6579 940.876 103.073 987.874C103.59 991.132 104.129 994.177 104.691 997.031C105.32 1000.27 105.994 1003.24 106.691 1005.94C109.961 1018.3 50.5592 1072.23 14.1116 1079.15Z" fill="#D30B00"/>
<path d="M1786.99 -134.449V744.156L1795.97 752.268L1854.4 804.985L1866.64 816.063L1867.3 816.658L1930.82 874.015L2036.6 969.516L2044.93 977.043L2056.88 987.829C2064.3 940.832 2066.99 852.297 2067.83 741.325C2067.81 741.247 2067.81 741.168 2067.83 741.089C2069.79 490.192 2062.72 124.751 2081.31 -134.494L1786.99 -134.449Z" fill="#D30B00"/>
<g style="mix-blend-mode:multiply" opacity="0.5">
<path d="M1899.34 807.816C1908.35 830.561 1918.86 852.684 1930.8 874.037C1953.79 914.968 1978.67 945.82 2001.23 966.381C2015.95 970.875 2028.5 972.325 2036.58 969.561L2044.9 977.088L2056.86 987.874C2064.27 940.877 2066.97 852.342 2067.8 741.37C2067.79 741.292 2067.79 741.212 2067.8 741.134C2064.25 581.345 2065.33 415.735 2065.2 -93.9573C2065.2 -107.215 2065.2 -120.697 2065.2 -134.405H1963.94L1899.34 807.816Z" fill="#D30B00"/>
</g>
<g style="mix-blend-mode:multiply" opacity="0.5">
<path d="M2044.93 977.088L2056.88 987.874C2064.3 940.876 2066.99 852.342 2067.82 741.37C2067.81 741.292 2067.81 741.212 2067.82 741.134C2069.79 490.237 2062.72 124.795 2081.31 -134.45H2067.82C2066.87 -121.214 2065.99 -107.732 2065.17 -94.0023C2043.33 272.54 2065.67 814.58 2044.93 977.088Z" fill="#D30B00"/>
</g>
<path d="M2001.26 966.381C2015.97 970.875 2028.52 972.324 2036.6 969.56C2043.07 967.313 2046.71 962.426 2046.24 954.258C2030.15 658.206 2046.24 649.779 2046.52 -134.45H1920.69L1867.32 816.681L1865.63 846.398C1864.13 891.621 1947.27 949.764 2001.26 966.381Z" fill="#D30B00"/>
<g style="mix-blend-mode:multiply" opacity="0.5">
<path d="M1866.64 816.063L1854.35 804.962C1854.2 812.355 1854.02 819.793 1853.84 827.276C1853.71 832.051 1850.79 832.893 1846.05 830.826C1835.05 825.883 1814.29 804.636 1795.97 777.368V-134.45H1865.07C1846.39 103.032 1875.37 398.332 1866.64 816.063Z" fill="#D30B00"/>
</g>
<g style="mix-blend-mode:multiply">
<path d="M1847.74 799.008C1847.74 800.996 1847.66 802.985 1847.61 804.985C1847.45 812.378 1847.28 819.815 1847.09 827.298C1847.16 828.566 1846.79 829.817 1846.05 830.849C1835.05 825.905 1814.29 804.659 1795.97 777.391C1792.69 772.492 1789.48 767.414 1786.42 762.189V-134.45H1847.66C1826.78 97.3586 1856.4 386.096 1847.74 799.008Z" fill="#D30B00"/>
</g>
<path d="M1854.35 804.985C1854.2 812.378 1854.02 819.815 1853.84 827.298C1853.71 832.073 1850.79 832.916 1846.05 830.849C1835.05 825.905 1814.29 804.659 1795.97 777.391C1792.69 772.492 1789.48 767.414 1786.42 762.189V-134.45H1854.4C1833.42 98.4709 1863.43 388.883 1854.35 804.985Z" fill="#D30B00"/>
<path d="M2145.89 1079.15C2151.17 1080.16 2156 1080.19 2160 1078.97V-134.45H2081.35C2062.72 124.795 2069.79 490.237 2067.87 741.134C2067.86 741.212 2067.86 741.292 2067.87 741.37C2066.99 852.342 2064.34 940.876 2056.93 987.874C2056.41 991.132 2055.87 994.177 2055.31 997.031C2054.68 1000.27 2054.01 1003.24 2053.31 1005.94C2050.04 1018.3 2109.47 1072.23 2145.89 1079.15Z" fill="#D30B00"/>
<path d="M1790.92 -134.45H367.396V735.168H1790.92V-134.45Z" fill="#D30B00"/>
<g style="mix-blend-mode:multiply" opacity="0.15">
<path d="M1787.55 -134.45H364.026V735.168H1787.55V-134.45Z" fill="#D30B00"/>
</g>
<g style="mix-blend-mode:multiply" opacity="0.9">
<path d="M560.398 716.169C559.179 722.63 557.447 728.983 555.218 735.168C551.185 745.977 546.106 752.785 539.86 757.077C537.364 758.535 534.646 759.575 531.815 760.156C477.986 765.122 378.07 758.38 378.07 748.651C378.07 744.374 378.07 739.88 378.07 735.168H367.958C367.88 709.889 367.689 679.295 367.43 644.903C365.498 390.658 359.644 -71.2954 367.43 -131.461C367.576 -132.584 367.722 -133.596 367.88 -134.438C367.88 -134.629 367.958 -134.82 367.992 -135H539.893C539.893 -134.809 539.893 -134.629 539.893 -134.438C550.758 113.931 559.162 293.629 563.757 423.701C569.498 586.861 569.274 671.891 560.398 716.169Z" fill="#D30B00"/>
</g>
<g style="mix-blend-mode:multiply" opacity="0.5">
<path d="M586.228 701.743C585.464 706.237 584.621 710.428 583.689 714.237C582.082 721.499 579.553 728.526 576.161 735.146H562.533C563.229 739.64 564.072 743.977 565.061 748.28L564.577 748.628C546.601 760.987 392.676 762.111 392.676 748.628C392.676 744.351 392.676 739.857 392.676 735.146C392.283 535.156 383.587 -43.9148 391.553 -134.472H564.971C588.644 405.882 600.396 618.219 586.228 701.743Z" fill="#D30B00"/>
</g>
<path d="M531.815 760.156C477.987 765.122 378.07 758.38 378.07 748.651C378.07 744.374 378.07 739.879 378.07 735.168C377.677 535.179 368.981 -43.8925 376.947 -134.45H550.365C561.521 123.189 564.106 299.64 563.746 423.69C563.241 598.052 556.915 668.902 560.375 716.169C560.881 722.91 561.578 729.157 562.51 735.168C563.207 739.662 564.049 743.999 565.038 748.302C565.038 748.415 565.094 748.538 565.117 748.651C566.521 754.572 552.601 758.234 531.815 760.156Z" fill="#D30B00"/>
<g style="mix-blend-mode:multiply" opacity="0.5">
<path d="M1466.02 751.19C1466.61 746.538 1467.15 741.179 1467.68 735.168H1433.53C1433.95 738.539 1434.28 741.651 1434.42 744.437C1427.68 742.909 1423.52 741.909 1423.52 741.909C1423.86 739.853 1424.17 737.606 1424.49 735.168C1439.52 616.523 1427.22 50.5745 1429.89 -134.45H1542.74C1541.8 0.756866 1527.66 611.152 1544.09 735.168C1545.29 744.302 1546.67 750.797 1548.23 754.268C1553.78 766.627 1504.3 758.864 1466.02 751.19Z" fill="#D30B00"/>
</g>
<path d="M1465.09 757.639C1465.41 755.673 1465.72 753.516 1466.02 751.19C1466.61 746.538 1467.15 741.179 1467.68 735.168C1480.55 584.434 1468.16 25.4073 1471.75 -134.45H1584.34C1584.41 -119.169 1584.03 -88.4632 1583.41 -47.2406C1580.6 141.603 1573 551.065 1582.09 708.99V709.08C1582.65 718.742 1583.21 727.472 1583.95 735.134C1585.52 752.706 1587.46 764.751 1589.8 769.964C1598.79 789.896 1465.09 757.639 1465.09 757.639Z" fill="#D30B00"/>
<g style="mix-blend-mode:multiply" opacity="0.5">
<path d="M1759.72 735.168V739.662C1759.72 748.01 1695.77 754.145 1645.86 752.583C1630.21 750.516 1619.4 747.066 1618.15 741.909C1617.66 739.876 1617.14 737.651 1616.61 735.168H1586.77C1585.31 728.697 1583.7 720.394 1582.09 709.113V709.023C1572.54 642.106 1562.82 470.463 1583.41 -47.2068C1584.53 -75.2502 1585.73 -104.32 1587.03 -134.416H1761.5C1768.45 -18.1072 1759.86 549.56 1759.72 735.168Z" fill="#D30B00"/>
</g>
<g style="mix-blend-mode:multiply" opacity="0.5">
<path d="M1790.92 -131.079V735.168H1778.83V736.292C1778.83 738.591 1778.83 740.838 1778.83 743.033C1778.83 752.65 1694 759.335 1643.49 754.695C1634.72 753.044 1628.28 750.819 1625.38 747.954C1624.61 747.24 1624.06 746.325 1623.78 745.314C1623.29 743.28 1622.77 741.055 1622.24 738.572C1622.01 737.449 1621.77 736.325 1621.53 735.202C1610.86 682.53 1594.73 525.763 1623.1 -131.045L1790.92 -131.079Z" fill="#D30B00"/>
</g>
<path d="M1779.68 -133.326V592.951C1779.2 650.038 1778.87 699.305 1778.83 735.168V736.292C1778.83 738.591 1778.83 740.838 1778.83 743.033C1778.83 752.65 1694 759.335 1643.49 754.695C1640.4 754.403 1637.45 754.073 1634.63 753.706C1618.98 751.639 1608.17 748.19 1606.93 743.033C1606.43 740.999 1605.92 738.775 1605.39 736.292L1605.15 735.168C1594.49 684.721 1577.46 533.078 1606.28 -133.326H1779.68Z" fill="#D30B00"/>
<g style="mix-blend-mode:multiply" opacity="0.5">
<path d="M1420.15 -134.45V666.531C1420.17 691.89 1410.77 716.352 1393.77 735.168C1386.84 742.839 1378.77 749.396 1369.84 754.605C1363.48 758.35 1356.95 761.897 1350.24 765.245C1309.65 771.503 1277.21 785.615 1218.21 795.637C1216 796.019 1213.76 796.393 1211.47 796.76C1212.54 801.26 1213.87 805.697 1215.43 810.052C1132.19 827.006 1039.84 830.669 951.636 826.175C914.132 821.343 889.089 814.613 892.088 805.951C892.972 803.412 893.819 800.82 894.628 798.176L886.572 797.457C752.141 785.098 608.676 761.83 609.058 737.91C609.084 736.958 609.314 736.023 609.732 735.168H570.319C567.409 728.798 570.577 723.045 580.869 718.315C581.992 717.821 582.88 716.45 583.689 714.259C584.988 710.199 585.839 706.01 586.228 701.765C597.89 604.568 550.533 109.74 555.993 -134.45H1420.15Z" fill="#D30B00"/>
</g>
<path d="M1434.42 744.437C1435.06 757.167 1431.44 763.538 1410.29 762.414C1390.23 761.241 1370.11 762.171 1350.24 765.189C1309.65 771.447 1277.21 785.559 1218.21 795.581C1216 795.963 1213.76 796.337 1211.47 796.704C1169.06 803.446 1113.22 807.996 1032.33 806.322C993.522 805.524 944.918 802.614 894.594 798.131L886.539 797.412C752.107 785.053 608.643 761.785 609.025 737.865C609.051 736.913 609.281 735.978 609.699 735.123C611.946 730.382 619.204 727.09 621.283 726.135C648.562 713.619 589.206 130.66 596.565 -134.494H1459.59L1431.39 708.203C1431.53 717.228 1432.25 726.234 1433.53 735.168C1433.95 738.539 1434.29 741.651 1434.42 744.437Z" fill="#D30B00"/>
<g style="mix-blend-mode:multiply" opacity="0.5">
<path d="M1223.06 827.456C1209.58 838.376 1043.29 837.961 951.636 826.163C914.132 821.332 889.089 814.602 892.089 805.94C892.972 803.401 893.819 800.809 894.628 798.165L886.572 797.446C888.819 779.177 890.695 758.279 892.291 735.157C906.515 528.55 896.897 144.244 893.336 -134.461H1216.7C1208.16 134.593 1197.22 525.628 1212.42 735.157C1214.04 757.504 1215.96 777.784 1218.21 795.626C1216 796.008 1213.76 796.382 1211.47 796.749C1212.54 801.249 1213.87 805.686 1215.43 810.041C1217.5 815.658 1219.77 820.063 1222.17 823.006C1222.52 824.512 1222.79 825.995 1223.06 827.456Z" fill="#D30B00"/>
</g>
<path d="M1223.94 826.175C1223.89 826.444 1223.79 826.701 1223.64 826.929C1223.49 827.157 1223.29 827.352 1223.06 827.5C1209.58 838.421 1043.29 838.006 951.636 826.208C914.133 821.377 889.089 814.647 892.089 805.985C892.973 803.446 893.819 800.854 894.628 798.21C900.369 779.582 904.414 758.65 907.223 735.202C921.177 618.354 904.29 439.026 913.436 171.186C916.897 69.6411 901.717 -43.0609 893.886 -134.416H1210.16C1205.14 100.235 1184.32 543.448 1202.3 735.202C1204.65 760.425 1207.68 781.267 1211.5 796.783C1212.58 801.282 1213.9 805.719 1215.47 810.074C1217.53 815.692 1219.8 820.096 1222.21 823.04C1222.42 823.287 1222.62 823.523 1222.84 823.748C1223.17 824.056 1223.45 824.431 1223.64 824.848C1223.83 825.265 1223.93 825.717 1223.94 826.175Z" fill="#D30B00"/>
<path d="M388.035 890.768C388.037 891.268 388.096 891.766 388.211 892.252C388.254 892.452 388.31 892.648 388.378 892.841L388.448 893.052C388.537 893.302 388.643 893.545 388.765 893.781C394.134 904.856 428.688 913.393 470.491 913.393C513.182 913.393 548.307 904.496 552.552 893.096C552.759 892.557 552.892 891.993 552.947 891.418V895.81C552.068 908.106 515.502 917.996 470.474 917.996C428.688 917.996 394.143 909.467 388.747 898.418C388.591 898.12 388.461 897.808 388.36 897.487C388.293 897.295 388.237 897.098 388.193 896.899C388.064 896.4 387.999 895.886 388 895.37" fill="#999999"/>
<path d="M553 890.127V891.418C552.945 891.993 552.812 892.557 552.604 893.096C548.36 904.514 513.235 913.394 470.544 913.394C428.705 913.394 394.151 904.856 388.817 893.781C388.695 893.545 388.59 893.302 388.501 893.052L388.431 892.841C388.363 892.649 388.307 892.452 388.264 892.253C388.029 891.28 388.029 890.266 388.264 889.293C388.306 889.093 388.362 888.896 388.431 888.704C388.533 888.378 388.662 888.061 388.817 887.756C394.187 876.689 428.74 868.143 470.544 868.143C515.318 868.143 551.761 877.936 553 890.127Z" fill="#CCCCCC"/>
<path d="M534.186 347.832C516.059 396.895 497.936 445.954 479.815 495.011C479.112 496.934 478.392 498.849 477.689 500.764H463.4L406.903 347.832C408.792 347.49 410.726 347.138 412.703 346.813C452.947 340.07 494.061 340.415 534.186 347.832Z" fill="#999999"/>
<path d="M508.279 887.949C504.052 889.583 492.522 892.692 470.148 892.692C456.967 892.692 447.836 891.752 441.711 890.637C432.879 889.038 430.243 887.062 430.471 886.974C444.98 881.643 456.264 857.173 463.25 837.376V500.764H477.838V838.237H477.732C483.822 855.267 493.023 875.459 504.685 883.909C506.374 885.168 508.232 886.185 510.203 886.93C510.309 887.009 509.711 887.396 508.279 887.949Z" fill="#999999"/>
<path d="M508.279 887.949C504.052 889.583 492.522 892.692 470.149 892.692C456.967 892.692 447.836 891.752 441.711 890.637C447.951 885.516 453.496 877.409 458.232 868.398C462.339 860.449 465.906 852.233 468.909 843.805V495.011H479.815C479.112 496.934 478.392 498.849 477.688 500.764H477.838V838.237H477.732C483.822 855.267 493.023 875.459 504.685 883.909C505.862 885.372 507.06 886.719 508.279 887.949Z" fill="#CCCCCC"/>
<path d="M534.185 347.832C516.059 396.895 497.935 445.954 479.815 495.011H469.067L412.702 346.813C452.946 340.07 494.06 340.415 534.185 347.832Z" fill="#CCCCCC"/>
<path d="M703.672 689.677V908.772C703.678 914.852 702.484 920.873 700.16 926.492C697.836 932.11 694.427 937.215 690.128 941.514C685.828 945.814 680.723 949.223 675.105 951.547C669.487 953.871 663.465 955.064 657.385 955.059H561.816C555.736 955.063 549.715 953.869 544.097 951.545C538.479 949.22 533.375 945.811 529.076 941.512C524.777 937.213 521.368 932.108 519.043 926.49C516.719 920.872 515.524 914.851 515.529 908.772V689.677C515.522 681.744 517.554 673.941 521.432 667.02C525.31 660.099 530.902 654.29 537.671 650.153L539.823 659.261C547.208 654.593 555.767 652.119 564.504 652.13H655.268C663.452 652.12 671.491 654.287 678.561 658.409L680.625 649.626C687.642 653.694 693.465 659.536 697.511 666.566C701.556 673.596 703.681 681.567 703.672 689.677Z" fill="#521409"/>
<path d="M701.555 698.443V909.571C701.558 915.65 700.364 921.671 698.039 927.288C695.714 932.906 692.304 938.01 688.006 942.309C683.707 946.607 678.603 950.017 672.985 952.342C667.368 954.667 661.348 955.861 655.268 955.858H564.503C558.424 955.86 552.404 954.665 546.788 952.339C541.171 950.014 536.067 946.605 531.769 942.306C527.47 938.007 524.061 932.904 521.735 927.287C519.41 921.67 518.214 915.65 518.217 909.571V698.443C518.219 686.168 523.096 674.396 531.776 665.716C540.456 657.036 552.228 652.158 564.503 652.156H655.268C661.347 652.154 667.367 653.349 672.984 655.675C678.601 658 683.704 661.409 688.003 665.708C692.302 670.007 695.711 675.11 698.036 680.727C700.362 686.344 701.557 692.364 701.555 698.443Z" fill="#6D1A0C"/>
<path d="M721.879 838.683H497.893L518.621 817.955H701.951L721.879 838.683Z" fill="#6B1400"/>
<path d="M518.621 817.955V915.087C518.621 916.589 518.024 918.03 516.961 919.093C515.899 920.155 514.458 920.752 512.956 920.752H491.595C490.852 920.752 490.115 920.605 489.428 920.32C488.742 920.036 488.118 919.618 487.592 919.092C487.067 918.566 486.651 917.941 486.367 917.254C486.083 916.567 485.938 915.83 485.939 915.087V794.837H491.402C491.663 794.837 491.924 794.855 492.184 794.89C492.894 794.971 493.585 795.17 494.23 795.479C495.14 795.928 495.932 796.585 496.542 797.397C497.153 798.208 497.564 799.152 497.743 800.151C497.822 800.539 497.86 800.933 497.857 801.328V838.683L518.621 817.955Z" fill="#6B1400"/>
<path d="M721.879 838.682H497.893V955.858H721.879V838.682Z" fill="#6B1400"/>
<g style="mix-blend-mode:multiply" opacity="0.5">
<path d="M497.919 955.858V879.445H759.339C726.701 878.707 671.113 880.798 608.612 900.788C557.003 917.309 520.325 939.741 497.919 955.858Z" fill="#6B1400"/>
</g>
<path d="M701.151 774.259V818.789L721.879 839.517V802.127C721.882 801.73 721.92 801.333 721.993 800.942C722.172 799.943 722.583 799.001 723.193 798.191C723.804 797.38 724.596 796.725 725.507 796.278C726.149 795.964 726.842 795.765 727.553 795.69L704.234 769.165C703.299 769.639 702.512 770.362 701.962 771.255C701.412 772.148 701.119 773.175 701.116 774.224L701.151 774.259Z" fill="#521409"/>
<path d="M721.888 802.127V964.509C721.887 965.362 722.054 966.207 722.38 966.995C722.705 967.783 723.184 968.499 723.786 969.102C724.389 969.705 725.105 970.183 725.893 970.508C726.681 970.834 727.526 971.001 728.379 971H752.866C753.718 971 754.561 970.832 755.348 970.506C756.135 970.18 756.85 969.701 757.452 969.098C758.054 968.496 758.532 967.78 758.857 966.993C759.182 966.205 759.349 965.361 759.348 964.509V802.127C759.35 801.609 759.288 801.093 759.163 800.59C759.096 800.328 759.014 800.07 758.917 799.818C758.538 798.822 757.916 797.938 757.108 797.244C756.681 796.898 756.216 796.603 755.72 796.366C754.861 795.945 753.919 795.72 752.963 795.707H728.37C728.108 795.707 727.847 795.724 727.588 795.76C726.877 795.835 726.184 796.035 725.542 796.348C724.631 796.795 723.839 797.451 723.229 798.261C722.618 799.071 722.207 800.014 722.028 801.012C721.95 801.379 721.903 801.752 721.888 802.127Z" fill="#6D1A0C"/>
<path d="M704.269 769.164L727.588 795.689C727.847 795.654 728.108 795.636 728.37 795.637H752.963C753.919 795.65 754.861 795.875 755.72 796.295L733.244 771.703L731.154 769.402C730.291 768.853 729.295 768.549 728.273 768.523H706.816C705.962 768.527 705.12 768.719 704.348 769.085L704.269 769.164Z" fill="#6B1400"/>
<path d="M680.608 649.644L678.544 658.427C671.476 654.317 663.444 652.159 655.268 652.174H564.504C555.767 652.163 547.208 654.637 539.823 659.305L537.671 650.197C544.933 645.735 553.293 643.378 561.816 643.39H657.385C665.543 643.382 673.557 645.54 680.608 649.644Z" fill="#6B1400"/>
<path d="M518.621 773.433V817.954L497.919 838.683V801.328C497.921 800.933 497.883 800.538 497.805 800.151C497.625 799.152 497.214 798.208 496.604 797.397C495.994 796.585 495.202 795.928 494.292 795.479C493.647 795.17 492.955 794.971 492.245 794.89L515.485 768.365C516.421 768.842 517.207 769.567 517.757 770.461C518.307 771.355 518.6 772.383 518.603 773.433H518.621Z" fill="#521409"/>
<path d="M497.919 801.328V963.71C497.92 964.563 497.753 965.407 497.427 966.195C497.102 966.983 496.624 967.699 496.021 968.302C495.418 968.905 494.702 969.383 493.914 969.709C493.126 970.035 492.281 970.202 491.428 970.201H466.915C466.063 970.201 465.219 970.033 464.432 969.706C463.645 969.38 462.93 968.902 462.328 968.299C461.726 967.696 461.249 966.981 460.924 966.193C460.599 965.406 460.432 964.562 460.433 963.71V801.328C460.431 800.81 460.493 800.294 460.617 799.791C460.684 799.528 460.769 799.269 460.872 799.018C461.245 798.022 461.864 797.136 462.673 796.445C463.824 795.45 465.288 794.89 466.809 794.864H491.402C491.664 794.864 491.925 794.881 492.184 794.916C492.894 794.997 493.586 795.196 494.23 795.505C495.14 795.955 495.933 796.612 496.543 797.423C497.153 798.235 497.564 799.178 497.743 800.178C497.841 800.554 497.9 800.94 497.919 801.328Z" fill="#6D1A0C"/>
<path d="M515.485 768.365L492.166 794.89C491.907 794.855 491.646 794.837 491.384 794.837H466.792C465.834 794.849 464.891 795.077 464.034 795.505L486.51 770.912L488.6 768.62C489.463 768.071 490.459 767.768 491.481 767.742H512.92C513.774 767.745 514.617 767.937 515.388 768.304C515.415 768.332 515.448 768.354 515.485 768.365Z" fill="#6B1400"/>
<path d="M722.204 839.491H497.577C495.112 839.491 493.115 841.488 493.115 843.953V874.922C493.115 877.386 495.112 879.384 497.577 879.384H722.204C724.668 879.384 726.666 877.386 726.666 874.922V843.953C726.666 841.488 724.668 839.491 722.204 839.491Z" fill="#701E13"/>
<path d="M1020.13 689.677V908.772C1020.13 914.852 1018.94 920.873 1016.61 926.49C1014.29 932.108 1010.88 937.213 1006.58 941.512C1002.28 945.811 997.177 949.22 991.559 951.545C985.941 953.869 979.92 955.063 973.84 955.059H878.227C872.148 955.063 866.127 953.869 860.509 951.545C854.891 949.22 849.786 945.811 845.487 941.512C841.188 937.213 837.779 932.108 835.454 926.49C833.13 920.873 831.936 914.852 831.94 908.772V689.677C831.933 681.744 833.966 673.942 837.843 667.02C841.721 660.099 847.313 654.29 854.083 650.153L856.27 659.288C863.659 654.624 872.221 652.157 880.959 652.174H971.715C979.909 652.152 987.961 654.313 995.043 658.436L997.115 649.653C1004.12 653.724 1009.93 659.564 1013.97 666.589C1018.01 673.613 1020.13 681.575 1020.13 689.677Z" fill="#521409"/>
<path d="M1018 698.443V909.571C1018 915.651 1016.81 921.671 1014.48 927.288C1012.16 932.906 1008.75 938.01 1004.45 942.309C1000.15 946.607 995.049 950.017 989.432 952.342C983.814 954.667 977.794 955.861 971.714 955.858H880.959C874.879 955.861 868.859 954.667 863.241 952.342C857.624 950.017 852.52 946.607 848.221 942.309C843.922 938.01 840.513 932.906 838.188 927.288C835.863 921.671 834.668 915.651 834.672 909.571V698.443C834.67 692.364 835.867 686.345 838.193 680.728C840.518 675.112 843.928 670.009 848.226 665.711C852.525 661.412 857.628 658.003 863.244 655.677C868.86 653.351 874.88 652.155 880.959 652.156H971.714C977.793 652.154 983.813 653.349 989.43 655.675C995.047 658 1000.15 661.409 1004.45 665.708C1008.75 670.007 1012.16 675.11 1014.48 680.727C1016.81 686.344 1018 692.364 1018 698.443Z" fill="#6D1A0C"/>
<path d="M1038.33 838.683H814.339L835.067 817.955H1018.41L1038.33 838.683Z" fill="#6B1400"/>
<path d="M835.067 817.955V915.087C835.068 915.83 834.923 916.567 834.639 917.254C834.355 917.941 833.939 918.566 833.414 919.092C832.888 919.618 832.264 920.036 831.577 920.32C830.891 920.605 830.154 920.752 829.411 920.752H808.05C806.548 920.752 805.107 920.155 804.045 919.093C802.982 918.03 802.385 916.589 802.385 915.087V794.837H807.857C808.119 794.837 808.38 794.855 808.639 794.89C809.346 794.972 810.035 795.171 810.677 795.479C811.772 796.016 812.696 796.848 813.344 797.881C813.993 798.915 814.34 800.108 814.348 801.328V838.683L835.067 817.955Z" fill="#6B1400"/>
<path d="M1038.33 838.682H814.348V955.858H1038.33V838.682Z" fill="#6B1400"/>
<g style="mix-blend-mode:multiply" opacity="0.5">
<path d="M814.348 955.858V879.445H1075.79C1043.15 878.707 987.559 880.798 925.067 900.788C873.449 917.309 836.771 939.741 814.348 955.858Z" fill="#6B1400"/>
</g>
<path d="M1017.61 774.259V818.789L1038.33 839.517V802.127C1038.33 801.73 1038.37 801.333 1038.44 800.942C1038.62 799.939 1039.04 798.994 1039.66 798.184C1040.28 797.373 1041.08 796.72 1042 796.278C1042.64 795.966 1043.33 795.767 1044.03 795.69L1020.72 769.165C1019.94 769.558 1019.26 770.127 1018.74 770.826C1018.22 771.525 1017.86 772.336 1017.7 773.196C1017.63 773.546 1017.6 773.902 1017.61 774.259Z" fill="#521409"/>
<path d="M1038.33 802.127V964.509C1038.33 966.231 1039.01 967.882 1040.23 969.099C1041.44 970.316 1043.09 971 1044.82 971H1069.3C1070.16 971.001 1071 970.834 1071.79 970.508C1072.58 970.183 1073.29 969.705 1073.9 969.102C1074.5 968.499 1074.98 967.783 1075.3 966.995C1075.63 966.207 1075.8 965.362 1075.79 964.509V802.127C1075.8 801.609 1075.73 801.092 1075.6 800.59C1075.54 800.326 1075.46 800.068 1075.35 799.818C1074.98 798.823 1074.36 797.938 1073.55 797.244C1073.13 796.896 1072.66 796.601 1072.17 796.366C1071.31 795.943 1070.37 795.718 1069.41 795.707H1044.82C1044.55 795.707 1044.29 795.724 1044.03 795.76C1043.33 795.837 1042.64 796.037 1042 796.348C1041.08 796.791 1040.28 797.444 1039.66 798.254C1039.04 799.065 1038.62 800.01 1038.44 801.012C1038.37 801.38 1038.33 801.753 1038.33 802.127Z" fill="#6D1A0C"/>
<path d="M1020.72 769.164L1044.03 795.689C1044.29 795.654 1044.55 795.636 1044.82 795.637H1069.41C1070.37 795.648 1071.31 795.873 1072.17 796.295L1049.7 771.703L1047.6 769.402C1046.74 768.853 1045.75 768.549 1044.73 768.523H1023.26C1022.41 768.526 1021.57 768.718 1020.8 769.085C1020.77 769.104 1020.74 769.132 1020.72 769.164Z" fill="#6B1400"/>
<path d="M997.08 649.644L995.007 658.427C987.935 654.314 979.896 652.155 971.714 652.174H880.959C872.221 652.157 863.658 654.624 856.269 659.288L854.117 650.18C861.372 645.732 869.717 643.382 878.227 643.391H973.84C982.003 643.382 990.023 645.54 997.08 649.644Z" fill="#6B1400"/>
<path d="M835.067 773.433V817.954L814.348 838.683V801.328C814.354 799.741 813.775 798.207 812.722 797.019C811.669 795.832 810.215 795.074 808.639 794.89L831.949 768.365C832.731 768.759 833.41 769.329 833.934 770.03C834.458 770.731 834.813 771.544 834.97 772.405C835.038 772.744 835.071 773.088 835.067 773.433Z" fill="#521409"/>
<path d="M814.348 801.328V963.71C814.348 965.432 813.664 967.082 812.446 968.3C811.229 969.517 809.578 970.201 807.857 970.201H783.37C782.517 970.202 781.672 970.035 780.884 969.709C780.096 969.383 779.38 968.905 778.777 968.302C778.174 967.699 777.696 966.983 777.371 966.195C777.045 965.407 776.878 964.563 776.879 963.71V801.328C776.875 800.81 776.94 800.293 777.072 799.791C777.131 799.527 777.214 799.268 777.318 799.018C777.681 798.028 778.285 797.144 779.075 796.445C779.498 796.094 779.964 795.799 780.462 795.566C781.319 795.137 782.262 794.908 783.22 794.899H807.813C808.074 794.899 808.335 794.916 808.595 794.952C809.302 795.033 809.99 795.232 810.632 795.54C811.728 796.077 812.651 796.909 813.3 797.943C813.948 798.976 814.296 800.17 814.304 801.39L814.348 801.328Z" fill="#6D1A0C"/>
<path d="M831.949 768.365L808.639 794.89C808.38 794.855 808.118 794.837 807.857 794.837H783.264C782.306 794.847 781.363 795.075 780.506 795.505L802.974 770.912L805.073 768.62C805.932 768.072 806.925 767.768 807.945 767.742H829.393C830.244 767.744 831.084 767.936 831.852 768.304L831.949 768.365Z" fill="#6B1400"/>
<path d="M1038.65 839.491H814.023C811.558 839.491 809.561 841.488 809.561 843.953V874.922C809.561 877.386 811.558 879.384 814.023 879.384H1038.65C1041.11 879.384 1043.11 877.386 1043.11 874.922V843.953C1043.11 841.488 1041.11 839.491 1038.65 839.491Z" fill="#701E13"/>
</g>
<defs>
<clipPath id="clip0_59_570">
<rect width="2160" height="1080" fill="white"/>
</clipPath>
</defs>
</svg>
